<?xml version="1.0" encoding="UTF-8"?><svg id="Layer_1" xmlns="http://www.w3.org/2000/svg" viewBox="0 0 453.54 453.54"><defs><style>.cls-1{fill:#fff;}.cls-2{fill:#064058;}</style></defs><rect class="cls-2" x="0" width="453.54" height="453.54" rx="70.87" ry="70.87"/><path class="cls-1" d="M311.81,228.26v140.65h0c-12.61,0-22.83-10.22-22.83-22.83v-109.67c0-38.14-10.97-42.46-21.48-42.22-26.41,.48-38.71,98.59-84.82,96.2-25.96-.96-40.95-19.19-40.95-55.65V107.46c0-12.61,10.22-22.83,22.83-22.83h0V228.74c0,30.95,9.4,34.78,18.13,34.54,32.67-.72,35.36-95.24,86.61-95,26.85,.24,42.52,17.03,42.52,59.97Z"/></svg>