<svg width="125" height="125" viewBox="0 0 125 125" fill="none" xmlns="http://www.w3.org/2000/svg">
<path d="M0 98V28C0 27.2471 0.0369873 26.4951 0.110962 25.7461C0.185059 24.9961 0.295044 24.252 0.442017 23.5129C0.588989 22.7739 0.771973 22.0439 0.98999 21.323C1.20898 20.603 1.46301 19.894 1.75098 19.198C2.03894 18.502 2.36096 17.822 2.71594 17.158C3.07104 16.4939 3.45801 15.8479 3.87598 15.2219C4.29504 14.595 4.74304 13.991 5.22095 13.4089C5.69897 12.8269 6.20398 12.269 6.73706 11.7371C7.26904 11.2041 7.82703 10.699 8.40906 10.2209C8.99097 9.74292 9.59595 9.29492 10.222 8.87598C10.848 8.45801 11.494 8.07104 12.158 7.71606C12.822 7.36108 13.502 7.03906 14.198 6.75098C14.894 6.46191 15.603 6.20898 16.323 5.98999C17.0439 5.77197 17.774 5.58911 18.5129 5.44189C19.252 5.29492 19.996 5.18506 20.746 5.11108C21.495 5.03711 22.2469 5 23 5H101C101.753 5 102.505 5.03711 103.254 5.11108C104.004 5.18506 104.748 5.29492 105.487 5.44189C106.226 5.58911 106.956 5.77197 107.677 5.98999C108.397 6.20898 109.106 6.46191 109.802 6.75098C110.498 7.03906 111.178 7.36108 111.842 7.71606C112.506 8.07104 113.152 8.45801 113.778 8.87598C114.404 9.29492 115.009 9.74292 115.591 10.2209C116.173 10.699 116.731 11.2041 117.263 11.7371C117.796 12.269 118.301 12.8269 118.779 13.4089C119.257 13.991 119.705 14.595 120.124 15.2219C120.542 15.8479 120.929 16.4939 121.284 17.158C121.639 17.822 121.961 18.502 122.249 19.198C122.537 19.894 122.791 20.603 123.01 21.323C123.228 22.0439 123.411 22.7739 123.558 23.5129C123.705 24.252 123.815 24.9961 123.889 25.7461C123.963 26.4951 124 27.2471 124 28V98C124 98.7529 123.963 99.5049 123.889 100.254C123.815 101.004 123.705 101.748 123.558 102.487C123.411 103.226 123.228 103.956 123.01 104.677C122.791 105.397 122.537 106.106 122.249 106.802C121.961 107.498 121.639 108.178 121.284 108.842C120.929 109.506 120.542 110.152 120.124 110.778C119.705 111.404 119.257 112.009 118.779 112.591C118.301 113.173 117.796 113.731 117.263 114.264C116.731 114.796 116.173 115.301 115.591 115.779C115.009 116.257 114.404 116.705 113.778 117.124C113.152 117.542 112.506 117.929 111.842 118.284C111.178 118.639 110.498 118.961 109.802 119.249C109.106 119.538 108.397 119.791 107.677 120.01C106.956 120.229 106.226 120.411 105.487 120.558C104.748 120.705 104.004 120.815 103.254 120.889C102.505 120.963 101.753 121 101 121H23C22.2469 121 21.495 120.963 20.746 120.889C19.996 120.815 19.252 120.705 18.5129 120.558C17.774 120.411 17.0439 120.229 16.323 120.01C15.603 119.791 14.894 119.538 14.198 119.249C13.502 118.961 12.822 118.639 12.158 118.284C11.494 117.929 10.848 117.542 10.222 117.124C9.59595 116.705 8.99097 116.257 8.40906 115.779C7.82703 115.301 7.26904 114.796 6.73706 114.264C6.20398 113.731 5.69897 113.173 5.22095 112.591C4.74304 112.009 4.29504 111.404 3.87598 110.778C3.45801 110.152 3.07104 109.506 2.71594 108.842C2.36096 108.178 2.03894 107.498 1.75098 106.802C1.46301 106.106 1.20898 105.397 0.98999 104.677C0.771973 103.956 0.588989 103.226 0.442017 102.487C0.295044 101.748 0.185059 101.004 0.110962 100.254C0.0369873 99.5049 0 98.7529 0 98Z" fill="white"/>
<path d="M60.2321 88.2029C60.204 88.426 60.1611 88.613 60.1611 88.8C60.157 92.7348 60.157 96.6699 60.1611 100.605C60.1611 100.825 60.1771 101.051 60.2291 101.264C60.3941 101.944 60.867 102.313 61.539 102.331C62.2491 102.349 62.757 101.98 62.929 101.265C62.9991 100.974 63.002 100.661 63.0031 100.358C63.007 96.5889 63.006 92.8198 63.006 89.052V88.2029H60.2321ZM51.518 88.175C50.945 88.175 50.4741 88.2361 50.0261 88.1631C48.8621 87.9719 48.2951 88.416 47.8531 89.5449C46.664 92.584 45.3021 95.5552 44.011 98.5542C43.7381 99.1889 43.4461 99.8188 43.216 100.47C42.966 101.181 43.294 101.894 43.954 102.207C44.6091 102.519 45.3381 102.288 45.746 101.624C45.861 101.436 45.9411 101.227 46.0291 101.023C47.7481 97.0342 49.466 93.0439 51.1811 89.0539C51.287 88.8069 51.3741 88.552 51.518 88.175ZM71.72 88.1631C71.72 88.353 71.7031 88.415 71.7221 88.4609C73.5711 92.7798 75.4151 97.1011 77.2811 101.413C77.636 102.234 78.3801 102.534 79.1081 102.239C79.898 101.918 80.221 101.122 79.846 100.241C78.2011 96.375 76.542 92.5161 74.8621 88.666C74.767 88.447 74.454 88.2009 74.2271 88.185C73.4061 88.1279 72.5771 88.1631 71.72 88.1631ZM78.585 82.511H44.6751C44.2321 84.854 45.044 85.341 46.803 85.334C56.667 85.2959 66.5301 85.3159 76.3941 85.3139C76.698 85.3139 77.006 85.3249 77.3061 85.2849C78.059 85.187 78.521 84.7639 78.5781 83.989C78.6131 83.5249 78.585 83.0569 78.585 82.511ZM61.5821 79.6211C73.2801 79.6211 84.9781 79.624 96.6761 79.6179C99.606 79.6169 101.327 77.886 101.328 74.9629C101.33 59.1311 101.33 43.2991 101.327 27.468C101.327 24.616 99.559 22.842 96.7171 22.842C73.293 22.8391 49.8691 22.8391 26.444 22.842C23.601 22.842 21.8361 24.615 21.835 27.468C21.8331 43.3279 21.834 59.188 21.8361 75.0471C21.8361 75.3789 21.8381 75.716 21.896 76.041C22.2911 78.2859 23.992 79.6179 26.4871 79.6179C38.1851 79.623 49.8831 79.6211 61.5821 79.6211ZM79.3791 105.186H77.882C76.042 104.695 75.0041 103.45 74.2911 101.721C72.511 97.4048 70.625 93.1328 68.768 88.8491C68.658 88.5969 68.445 88.2219 68.252 88.2041C67.471 88.1299 66.678 88.1731 65.851 88.1731V89.302C65.851 93.0659 65.849 96.8301 65.851 100.594C65.8521 102.436 65.136 103.863 63.4621 104.732C63.125 104.907 62.763 105.036 62.413 105.186H60.75C58.152 104.341 57.214 102.495 57.288 99.8472C57.386 96.3071 57.3121 92.7622 57.3121 89.22V88.1609C56.719 88.1609 56.2221 88.2109 55.7391 88.1499C54.9351 88.0481 54.5401 88.3349 54.215 89.116C52.4611 93.3232 50.585 97.48 48.8521 101.696C48.141 103.425 47.116 104.682 45.2811 105.186H43.617C43.5571 105.136 43.5051 105.064 43.4361 105.039C40.6611 104.016 39.617 101.633 40.7691 98.9111C41.5781 97 42.408 95.0981 43.226 93.1899C43.943 91.5181 44.657 89.843 45.3901 88.1269C42.3681 87.406 41.501 85.2971 41.714 82.466H40.615C35.9041 82.466 31.193 82.479 26.4821 82.4619C21.9741 82.4451 19.002 79.4441 19.002 74.9319C18.9991 59.133 19.0001 43.333 19.0031 27.5349C19.0031 27.0649 19.0041 26.5879 19.079 26.126C19.6921 22.374 22.558 20.008 26.49 20.008C48.4931 20.0049 70.496 20.0061 92.5001 20.0061C94.0521 20.0061 95.6041 19.988 97.1551 20.0129C100.397 20.0669 103.126 22.2339 103.946 25.375C104.015 25.6379 104.09 25.8989 104.162 26.1621V76.404C104.129 76.447 104.078 76.4861 104.065 76.5339C102.99 80.593 100.577 82.4629 96.4011 82.466C91.773 82.468 87.1441 82.466 82.5151 82.466H81.439C81.6611 85.3379 80.766 87.425 77.7651 88.1289C77.886 88.437 77.99 88.72 78.1091 88.9961C79.549 92.354 81.013 95.7012 82.4271 99.0688C83.491 101.603 82.3271 104.11 79.731 105.008C79.6081 105.051 79.496 105.126 79.3791 105.186Z" fill="#00CDBF"/>
<path d="M60.7939 58.2901C60.665 57.9619 60.572 57.709 60.467 57.4629C59.776 55.834 59.084 54.2071 58.387 52.5811C57.846 51.3159 57.4449 51.1111 55.931 51.347C55.931 53.2671 55.9 55.198 55.949 57.128C55.965 57.7639 56.4189 58.241 57.069 58.273C58.276 58.3321 59.4871 58.2901 60.7939 58.2901ZM55.882 73.9319C57.463 73.9461 58.7481 72.6831 58.743 71.117C58.739 69.5601 57.436 68.261 55.887 68.271C54.358 68.2801 53.103 69.532 53.084 71.0691C53.063 72.6651 54.288 73.918 55.882 73.9319ZM34.619 73.9319C36.1639 73.9351 37.4251 72.708 37.453 71.1731C37.481 69.618 36.207 68.2981 34.652 68.272C33.096 68.2451 31.802 69.524 31.793 71.096C31.7841 72.689 33.02 73.929 34.619 73.9319ZM61.571 61.147C60.0129 61.147 58.52 61.21 57.035 61.1321C54.783 61.013 53.1281 59.2471 53.087 56.9939C53.058 55.3589 53.079 53.7242 53.078 52.0891C53.077 51.826 53.078 51.564 53.078 51.305H50.282V68.5191C50.7679 68.169 51.149 68.0049 51.369 67.719C53.646 64.75 57.923 64.658 60.297 67.5481C60.45 67.7329 60.603 67.919 60.897 68.2749C61.1639 67.762 61.531 67.376 61.543 66.979C61.605 65.075 61.571 63.169 61.571 61.147ZM47.3521 68.2649C47.372 67.959 47.4 67.743 47.4 67.5271C47.402 60.8191 47.4041 54.1111 47.399 47.4031C47.398 46.0349 46.922 45.574 45.527 45.573C40.178 45.5691 34.83 45.5701 29.481 45.5721C27.934 45.573 27.505 46.0039 27.505 47.545C27.5031 53.782 27.5031 60.0191 27.506 66.2561C27.507 66.5601 27.431 66.9431 27.5811 67.149C27.884 67.565 28.2629 68.0171 28.715 68.209C29.202 68.416 29.697 68.291 30.121 67.7261C32.184 64.979 36.115 64.553 38.4 67.013C39.4351 68.126 40.444 68.3799 41.769 68.271C42.181 68.2361 42.599 68.2649 43.015 68.2649H47.3521ZM40.3621 71.1651C39.704 74.824 37.671 76.7891 34.579 76.772C31.5241 76.7561 29.5291 74.805 28.872 71.149C28.622 71.1121 28.3521 71.084 28.088 71.0291C26.1071 70.6089 24.687 68.9361 24.6801 66.8701C24.656 60.2439 24.6541 53.6189 24.679 46.993C24.688 44.618 26.427 42.781 28.804 42.7571C34.568 42.698 40.334 42.699 46.098 42.7549C48.444 42.7781 50.1121 44.5511 50.231 46.909C50.255 47.3741 50.235 47.8411 50.235 48.4131C50.614 48.4131 50.91 48.4131 51.2061 48.4131C53.146 48.417 55.087 48.3921 57.027 48.4341C58.698 48.471 59.978 49.282 60.6639 50.784C61.894 53.4771 63.033 56.2119 64.166 58.948C64.361 59.417 64.398 59.9761 64.4041 60.4939C64.4301 62.573 64.421 64.6531 64.413 66.732C64.406 68.4991 63.603 69.7881 62.066 70.6551C61.851 70.7759 61.62 71.065 61.594 71.2972C61.238 74.5869 58.9871 76.771 55.9091 76.772C52.86 76.774 50.574 74.6011 50.243 71.388C50.2371 71.333 50.214 71.281 50.182 71.1651H40.3621Z" fill="#00CDBF"/>
<path d="M88.34 43.461C87.354 44.4671 86.391 45.4952 85.376 46.47C84.514 47.2991 83.25 47.0421 83.002 45.9561C82.903 45.524 83.061 44.855 83.361 44.5401C85.172 42.6312 87.047 40.7811 88.9239 38.9361C89.592 38.2801 90.329 38.263 90.993 38.9122C92.876 40.751 94.736 42.6141 96.58 44.493C97.209 45.1351 97.177 46.023 96.592 46.5701C96.016 47.1089 95.22 47.097 94.582 46.4861C93.741 45.6819 92.934 44.8431 92.109 44.022C91.922 43.837 91.7209 43.6661 91.376 43.3502C91.376 44.3311 91.376 45.1212 91.376 45.9109C91.374 47.74 91.4 49.5701 91.363 51.398C91.285 55.15 88.381 58.2181 84.6331 58.2811C78.899 58.377 73.163 58.3231 67.427 58.3182C66.426 58.317 65.848 57.7501 65.865 56.8821C65.8831 56.0101 66.494 55.4891 67.5749 55.4881C72.9499 55.48 78.3249 55.4852 83.701 55.481C84.144 55.481 84.592 55.4891 85.028 55.4251C86.84 55.158 88.442 53.535 88.499 51.6971C88.583 48.9891 88.521 46.2781 88.521 43.5682L88.34 43.461Z" fill="#00CDBF"/>
<path d="M89.9511 32.7881C90.72 32.7991 91.37 32.1451 91.3681 31.3589C91.367 30.585 90.794 29.992 90.025 29.9681C89.2271 29.9419 88.573 30.5459 88.549 31.3291C88.526 32.0901 89.1861 32.7759 89.9511 32.7881ZM89.9981 27.129C92.348 27.1399 94.2011 29.003 94.202 31.3541C94.203 33.7281 92.296 35.637 89.933 35.629C87.635 35.6211 85.702 33.6751 85.709 31.376C85.716 29 87.617 27.118 89.9981 27.129Z" fill="#00CDBF"/>
<path d="M82.0849 68.452C82.603 68.931 83.192 69.4351 83.732 69.9852C84.4079 70.6722 84.425 71.5391 83.822 72.1151C83.2299 72.68 82.43 72.6522 81.7499 71.9901C81.1979 71.4529 80.6899 70.8702 80.0419 70.178C79.4229 70.834 78.9129 71.4061 78.369 71.942C77.603 72.6971 76.801 72.7501 76.1779 72.1231C75.5529 71.494 75.6089 70.7029 76.3749 69.9351C76.9009 69.407 77.467 68.918 78.2349 68.209C77.5369 67.6151 76.9229 67.1461 76.373 66.6111C75.6579 65.9141 75.6159 65.0831 76.197 64.48C76.795 63.8602 77.6559 63.9051 78.3879 64.6341C78.915 65.158 79.4029 65.721 80.02 66.388C80.644 65.7242 81.155 65.148 81.701 64.607C82.4129 63.9041 83.2309 63.845 83.8329 64.4151C84.462 65.0101 84.4169 65.8621 83.7029 66.6102C83.207 67.1312 82.6949 67.636 82.1929 68.1522C82.159 68.1881 82.155 68.253 82.0849 68.452Z" fill="#00CDBF"/>
<path d="M90.9361 64.0091C90.226 63.3502 89.6401 62.8431 89.0971 62.293C88.4221 61.609 88.3901 60.8341 88.9631 60.2281C89.5511 59.606 90.3831 59.6151 91.091 60.3001C91.647 60.837 92.1561 61.4242 92.8801 62.1951C93.4791 61.503 93.97 60.8741 94.5261 60.3082C95.2111 59.6112 96.0661 59.5902 96.6511 60.189C97.225 60.776 97.1801 61.6351 96.496 62.326C95.9521 62.8761 95.366 63.3861 94.678 64.026C95.346 64.637 95.938 65.137 96.48 65.6851C97.169 66.3822 97.21 67.233 96.636 67.8211C96.028 68.4442 95.1911 68.3912 94.4481 67.6532C93.9211 67.128 93.423 66.5731 92.8231 65.9381C92.1861 66.6021 91.6501 67.19 91.08 67.744C90.388 68.4171 89.5241 68.4481 88.945 67.858C88.351 67.252 88.393 66.4442 89.0991 65.7301C89.643 65.181 90.225 64.671 90.9361 64.0091Z" fill="#00CDBF"/>
<path d="M69.483 45.394C68.9439 44.8969 68.3559 44.3921 67.812 43.843C67.135 43.1599 67.098 42.385 67.666 41.778C68.2519 41.1499 69.082 41.153 69.7929 41.8369C70.3499 42.374 70.858 42.9599 71.608 43.759C72.1779 43.082 72.64 42.467 73.171 41.9179C73.906 41.1589 74.738 41.124 75.352 41.761C75.9229 42.353 75.868 43.197 75.1829 43.896C74.661 44.4289 74.109 44.9331 73.4449 45.57C74.0519 46.143 74.623 46.6489 75.156 47.1909C75.8769 47.924 75.9289 48.7971 75.3239 49.3889C74.713 49.988 73.8759 49.9199 73.135 49.175C72.612 48.6479 72.1249 48.0859 71.519 47.4289C70.9 48.101 70.4129 48.665 69.8879 49.1919C69.1509 49.9331 68.306 50.0009 67.696 49.405C67.062 48.7871 67.119 47.9839 67.859 47.218C68.359 46.7009 68.8669 46.1919 69.3699 45.678C69.3879 45.6599 69.3909 45.6279 69.483 45.394Z" fill="#00CDBF"/>
</svg>
