<svg width="87" height="86" viewBox="0 0 87 86" fill="none" xmlns="http://www.w3.org/2000/svg">
<path d="M42.168 3.25492V5.88993H44.764V3.25492H42.168ZM44.765 58.1189V41.7242H42.157V58.1189H44.765ZM42.158 8.73099V38.8391H83.204V8.73099H42.158ZM47.593 41.68V42.7901C47.593 47.7781 47.597 52.7662 47.592 57.753C47.589 59.803 46.517 60.8621 44.457 60.8689C43.598 60.8721 42.738 60.8912 41.881 60.8521C40.722 60.7972 39.761 60.021 39.47 58.9009C39.361 58.479 39.334 58.0259 39.333 57.587C39.326 49.6341 39.321 41.6809 39.341 33.7281C39.343 33.1451 39.187 32.834 38.624 32.6331C37.845 32.3531 37.091 31.9961 36.344 31.636C32.176 29.6311 28.801 26.7041 26.305 22.8069C24.344 19.7452 22.019 17.0281 19.115 14.824C17.602 13.6761 15.81 14.1731 15.265 15.951C14.488 18.4881 12.77 19.8479 10.198 20.2281C9.84198 20.281 9.487 20.337 9.13397 20.408C7.086 20.8221 5.71997 22.023 5.03101 23.992C4.711 24.9051 4.43201 25.833 4.09399 26.74C3.42401 28.532 3.55798 30.2439 4.41101 31.9571C5.729 34.605 6.565 37.4141 6.89502 40.354C7.34003 44.326 9.15802 47.44 12.404 49.8011C15.491 52.0472 17.403 55.116 18.032 58.888C18.466 61.492 19.714 63.4241 21.959 64.834C24.272 66.2881 25.673 68.46 26.168 71.149C26.744 74.2791 27.221 77.427 27.776 80.5611C28.156 82.7071 29.732 83.4222 31.631 82.345C33.942 81.034 36.253 79.721 38.554 78.3912C41.002 76.9771 43.392 77.0411 45.743 78.6131C47.447 79.751 49.142 80.9031 50.864 82.014C52.714 83.2071 54.939 83.096 56.693 81.771C56.914 81.604 57.135 81.4361 57.346 81.2571C60.308 78.75 63.68 77.0511 67.396 75.938C71.963 74.5701 75.666 71.9009 78.59 68.1331C81.012 65.012 82.204 61.3831 83.039 57.595C83.393 55.9861 83.34 54.406 82.823 52.844C82.363 51.4519 81.896 50.063 81.421 48.677C80.953 47.312 80.154 46.909 78.786 47.357C76.868 47.9871 74.953 48.627 73.039 49.271C69.578 50.4351 66.389 49.94 63.466 47.7381C60.944 45.837 58.415 43.9461 55.883 42.0591C55.67 41.8999 55.409 41.699 55.168 41.6961C52.68 41.669 50.191 41.68 47.593 41.68ZM0.888977 27.9021C1.37701 26.3789 1.854 24.8521 2.354 23.333C3.44897 20.0061 5.76703 18.1289 9.20502 17.594C9.50598 17.5481 9.80402 17.4871 10.105 17.44C11.381 17.241 12.182 16.523 12.587 15.292C13.857 11.429 17.739 10.271 20.933 12.7591C23.961 15.1189 26.451 17.9471 28.513 21.178C30.968 25.0249 34.322 27.8279 38.525 29.6121C38.749 29.7071 38.975 29.7981 39.328 29.9432V28.8912C39.328 20.521 39.327 12.1509 39.328 3.78104C39.328 1.49393 40.348 0.465125 42.608 0.462928C43.301 0.462928 43.994 0.456092 44.687 0.465125C46.407 0.487098 47.545 1.60209 47.589 3.32401C47.61 4.15507 47.592 4.98612 47.592 5.95096H48.579C59.942 5.95096 71.306 5.94999 82.669 5.95096C85.051 5.95096 86.032 6.94315 86.032 9.34403C86.032 19.0171 86.032 28.689 86.032 38.3621C86.032 40.639 85.007 41.6731 82.743 41.6741C75.537 41.6751 68.331 41.6741 61.125 41.6741H60.248L60.197 41.844C61.735 43.001 63.265 44.169 64.814 45.3101C65.392 45.7351 65.982 46.1722 66.627 46.471C68.327 47.2591 70.09 47.3621 71.883 46.7571C73.849 46.095 75.821 45.45 77.789 44.795C80.776 43.8001 83.086 44.9251 84.052 47.8999C84.7 49.897 85.386 51.8921 85.847 53.9351C86.089 55.01 86.041 56.212 85.855 57.3111C84.769 63.72 82.2 69.3579 77.132 73.6609C74.211 76.1421 70.885 77.8269 67.223 78.898C64.643 79.6531 62.28 80.8601 60.182 82.533C58.533 83.8492 56.895 85.147 54.769 85.606H52.44C50.358 85.1509 48.702 83.885 46.982 82.7391C46.198 82.2171 45.387 81.731 44.641 81.159C42.953 79.867 41.329 79.9031 39.497 80.982C36.717 82.6189 33.83 84.074 30.989 85.606H29.159C29.095 85.5591 29.038 85.4871 28.966 85.4681C26.717 84.866 25.452 83.375 25.066 81.1141C24.643 78.6331 24.147 76.159 23.856 73.6621C23.492 70.5271 22.251 68.094 19.452 66.3831C17.214 65.014 15.935 62.7901 15.522 60.1831C14.951 56.575 13.231 53.741 10.265 51.587C7.18597 49.3511 5.27002 46.304 4.49298 42.573C4.21198 41.221 4.17499 39.802 3.76703 38.4961C2.89801 35.712 1.85901 32.982 0.888977 30.23V27.9021Z" fill="#00C2B5"/>
</svg>
