<svg width="115" height="115" viewBox="0 0 115 115" fill="none" xmlns="http://www.w3.org/2000/svg">
<path d="M56.2791 16.7945V19.4295H58.875V16.7945H56.2791ZM58.876 71.6585V55.2637H56.268V71.6585H58.876ZM56.269 22.2705V52.3787H97.315V22.2705H56.269ZM61.704 55.2195V56.3296C61.704 61.3177 61.708 66.3057 61.703 71.2925C61.7 73.3426 60.6281 74.4016 58.568 74.4085C57.709 74.4117 56.849 74.4307 55.992 74.3916C54.833 74.3367 53.872 73.5606 53.581 72.4405C53.472 72.0186 53.445 71.5655 53.444 71.1265C53.437 63.1736 53.432 55.2205 53.452 47.2676C53.454 46.6846 53.298 46.3736 52.735 46.1726C51.956 45.8926 51.202 45.5357 50.455 45.1756C46.287 43.1707 42.912 40.2437 40.416 36.3465C38.455 33.2847 36.13 30.5677 33.226 28.3636C31.713 27.2156 29.921 27.7127 29.376 29.4905C28.599 32.0276 26.881 33.3875 24.309 33.7676C23.953 33.8206 23.598 33.8765 23.245 33.9475C21.197 34.3616 19.831 35.5625 19.142 37.5315C18.822 38.4446 18.543 39.3726 18.205 40.2796C17.535 42.0716 17.669 43.7835 18.522 45.4966C19.84 48.1446 20.676 50.9537 21.006 53.8936C21.451 57.8655 23.269 60.9795 26.515 63.3406C29.6021 65.5867 31.514 68.6556 32.143 72.4275C32.577 75.0315 33.825 76.9637 36.07 78.3736C38.383 79.8277 39.784 81.9995 40.2791 84.6885C40.855 87.8186 41.332 90.9666 41.887 94.1006C42.267 96.2466 43.843 96.9617 45.742 95.8846C48.053 94.5735 50.364 93.2605 52.665 91.9307C55.113 90.5166 57.5031 90.5806 59.854 92.1526C61.558 93.2906 63.2531 94.4427 64.975 95.5535C66.825 96.7466 69.05 96.6355 70.804 95.3106C71.025 95.1436 71.246 94.9756 71.457 94.7967C74.419 92.2896 77.791 90.5906 81.507 89.4776C86.074 88.1097 89.777 85.4405 92.701 81.6726C95.123 78.5516 96.315 74.9226 97.15 71.1346C97.504 69.5257 97.451 67.9456 96.934 66.3836C96.474 64.9915 96.007 63.6026 95.532 62.2166C95.064 60.8516 94.265 60.4485 92.897 60.8965C90.979 61.5266 89.064 62.1665 87.15 62.8106C83.689 63.9746 80.5 63.4795 77.577 61.2776C75.055 59.3765 72.526 57.4856 69.994 55.5987C69.781 55.4395 69.52 55.2386 69.2791 55.2356C66.791 55.2085 64.302 55.2195 61.704 55.2195ZM15 41.4417C15.488 39.9185 15.965 38.3916 16.465 36.8726C17.56 33.5457 19.8781 31.6685 23.316 31.1336C23.617 31.0877 23.915 31.0266 24.216 30.9795C25.492 30.7806 26.293 30.0625 26.698 28.8316C27.968 24.9685 31.85 23.8106 35.044 26.2986C38.072 28.6585 40.562 31.4866 42.624 34.7176C45.079 38.5645 48.433 41.3675 52.636 43.1516C52.86 43.2466 53.086 43.3377 53.439 43.4827V42.4307C53.439 34.0606 53.438 25.6905 53.439 17.3206C53.439 15.0335 54.459 14.0047 56.719 14.0025C57.412 14.0025 58.105 13.9956 58.798 14.0047C60.518 14.0266 61.656 15.1416 61.7 16.8636C61.721 17.6946 61.703 18.5257 61.703 19.4905H62.69C74.053 19.4905 85.4171 19.4895 96.78 19.4905C99.162 19.4905 100.143 20.4827 100.143 22.8836C100.143 32.5567 100.143 42.2286 100.143 51.9016C100.143 54.1785 99.118 55.2127 96.854 55.2137C89.648 55.2146 82.442 55.2137 75.236 55.2137H74.359L74.308 55.3836C75.846 56.5406 77.376 57.7085 78.925 58.8496C79.5031 59.2747 80.093 59.7117 80.738 60.0105C82.438 60.7986 84.201 60.9016 85.994 60.2967C87.96 59.6346 89.932 58.9895 91.9 58.3345C94.887 57.3396 97.197 58.4646 98.163 61.4395C98.811 63.4366 99.497 65.4317 99.958 67.4746C100.2 68.5496 100.152 69.7515 99.966 70.8506C98.88 77.2596 96.311 82.8975 91.243 87.2005C88.322 89.6817 84.996 91.3665 81.334 92.4375C78.754 93.1927 76.3911 94.3997 74.293 96.0725C72.644 97.3887 71.006 98.6866 68.88 99.1455H66.551C64.469 98.6905 62.813 97.4246 61.093 96.2786C60.309 95.7566 59.498 95.2705 58.752 94.6985C57.064 93.4065 55.44 93.4427 53.608 94.5215C50.828 96.1585 47.941 97.6136 45.1 99.1455H43.27C43.206 99.0987 43.149 99.0266 43.077 99.0076C40.828 98.4056 39.563 96.9146 39.177 94.6536C38.754 92.1726 38.258 89.6985 37.967 87.2017C37.603 84.0667 36.362 81.6336 33.563 79.9226C31.325 78.5535 30.046 76.3296 29.633 73.7227C29.062 70.1145 27.342 67.2806 24.376 65.1265C21.297 62.8907 19.381 59.8435 18.604 56.1126C18.323 54.7605 18.286 53.3416 17.8781 52.0357C17.009 49.2515 15.97 46.5215 15 43.7696V41.4417Z" fill="#00C2B5"/>
</svg>
