<svg width="125" height="125" viewBox="0 0 125 125" fill="none" xmlns="http://www.w3.org/2000/svg">
<path d="M0 98V28C0 27.2471 0.0369873 26.4951 0.110962 25.7461C0.185059 24.9961 0.295044 24.252 0.442017 23.5132C0.588989 22.7739 0.771973 22.0439 0.98999 21.3232C1.20898 20.603 1.46301 19.894 1.75098 19.1982C2.03894 18.502 2.36096 17.8218 2.71594 17.1582C3.07104 16.4941 3.45801 15.8481 3.87598 15.2222C4.29504 14.5962 4.74304 13.9912 5.22095 13.4092C5.69897 12.8271 6.20398 12.269 6.73706 11.7358C7.26904 11.2041 7.82703 10.6992 8.40906 10.2212C8.99097 9.74316 9.59595 9.29492 10.222 8.87598C10.848 8.45801 11.494 8.0708 12.158 7.71582C12.822 7.36084 13.502 7.03906 14.198 6.75098C14.894 6.46191 15.603 6.20898 16.323 5.99023C17.0439 5.771 17.774 5.58887 18.5129 5.44189C19.252 5.29492 19.996 5.18506 20.746 5.11084C21.495 5.03711 22.2469 5 23 5H101C101.753 5 102.505 5.03711 103.254 5.11084C104.004 5.18506 104.748 5.29492 105.487 5.44189C106.226 5.58887 106.956 5.771 107.677 5.99023C108.397 6.20898 109.106 6.46191 109.802 6.75098C110.498 7.03906 111.178 7.36084 111.842 7.71582C112.506 8.0708 113.152 8.45801 113.778 8.87598C114.404 9.29492 115.009 9.74316 115.591 10.2212C116.173 10.6992 116.731 11.2041 117.263 11.7358C117.796 12.269 118.301 12.8271 118.779 13.4092C119.257 13.9912 119.705 14.5962 120.124 15.2222C120.542 15.8481 120.929 16.4941 121.284 17.1582C121.639 17.8218 121.961 18.502 122.249 19.1982C122.537 19.894 122.791 20.603 123.01 21.3232C123.228 22.0439 123.411 22.7739 123.558 23.5132C123.705 24.252 123.815 24.9961 123.889 25.7461C123.963 26.4951 124 27.2471 124 28V98C124 98.7529 123.963 99.5049 123.889 100.254C123.815 101.004 123.705 101.748 123.558 102.487C123.411 103.226 123.228 103.956 123.01 104.677C122.791 105.397 122.537 106.106 122.249 106.802C121.961 107.498 121.639 108.178 121.284 108.842C120.929 109.506 120.542 110.152 120.124 110.778C119.705 111.404 119.257 112.009 118.779 112.591C118.301 113.173 117.796 113.731 117.263 114.264C116.731 114.796 116.173 115.301 115.591 115.779C115.009 116.257 114.404 116.705 113.778 117.124C113.152 117.542 112.506 117.929 111.842 118.284C111.178 118.639 110.498 118.961 109.802 119.249C109.106 119.538 108.397 119.791 107.677 120.01C106.956 120.229 106.226 120.411 105.487 120.558C104.748 120.705 104.004 120.815 103.254 120.889C102.505 120.963 101.753 121 101 121H23C22.2469 121 21.495 120.963 20.746 120.889C19.996 120.815 19.252 120.705 18.5129 120.558C17.774 120.411 17.0439 120.229 16.323 120.01C15.603 119.791 14.894 119.538 14.198 119.249C13.502 118.961 12.822 118.639 12.158 118.284C11.494 117.929 10.848 117.542 10.222 117.124C9.59595 116.705 8.99097 116.257 8.40906 115.779C7.82703 115.301 7.26904 114.796 6.73706 114.264C6.20398 113.731 5.69897 113.173 5.22095 112.591C4.74304 112.009 4.29504 111.404 3.87598 110.778C3.45801 110.152 3.07104 109.506 2.71594 108.842C2.36096 108.178 2.03894 107.498 1.75098 106.802C1.46301 106.106 1.20898 105.397 0.98999 104.677C0.771973 103.956 0.588989 103.226 0.442017 102.487C0.295044 101.748 0.185059 101.004 0.110962 100.254C0.0369873 99.5049 0 98.7529 0 98Z" fill="white"/>
<path d="M100.796 91.1748V69.9819H87.5861V91.1748H100.796ZM23.662 59.2988V60.127C23.662 72.5952 23.662 85.063 23.662 97.5322C23.662 97.7261 23.6591 97.9199 23.671 98.1128C23.7939 100.187 25.536 101.841 27.613 101.859C29.9189 101.88 31.644 100.08 31.645 97.6162C31.65 85.0918 31.647 72.5679 31.645 60.0449C31.645 59.8052 31.6169 59.5649 31.6 59.2988H23.662ZM74.235 59.3091C72.566 59.2759 71.548 60.771 71.563 62.0132C71.598 64.896 71.574 67.7798 71.573 70.6641C71.572 72.1899 71.1851 72.5791 69.66 72.5791C66.389 72.5801 63.1169 72.5752 59.845 72.583C58.926 72.584 58.377 72.9819 58.2889 73.7451C58.235 74.2251 58.2791 74.7158 58.2791 75.2612H68.86V77.936H58.308V80.582H68.847V83.2559H58.321V85.9312H68.864V88.5762H58.314C58.1331 90.8911 58.426 91.2139 60.6169 91.2139C63.722 91.2139 66.838 91.0518 69.9301 91.2559C73.53 91.4941 76.835 90.9082 79.879 88.9219C80.285 88.6558 80.869 88.5898 81.377 88.5679C82.528 88.5181 83.682 88.5518 84.816 88.5518V72.5801C83.613 72.5801 82.476 72.5542 81.3409 72.5889C80.653 72.6099 80.125 72.395 79.642 71.8999C78.093 70.313 76.527 68.7422 74.938 67.1948C74.4189 66.6899 74.213 66.1392 74.224 65.4219C74.255 63.4009 74.235 61.3789 74.235 59.3091ZM34.309 24.7041V25.8271C34.309 49.231 34.304 72.6348 34.318 96.0391C34.319 98.0459 34.3459 100.035 32.9301 101.862H33.991H51.292C61.967 101.862 72.641 101.864 83.316 101.86C85.459 101.859 87.168 100.629 87.428 98.625C87.6281 97.083 87.468 95.4941 87.468 94.082C86.679 93.854 85.749 93.8511 85.302 93.3828C84.854 92.916 84.89 91.9858 84.7209 91.2861C82.61 90.979 80.578 91.2119 78.719 92.4409C78.053 92.8809 77.307 93.2119 76.569 93.5229C76.123 93.71 75.621 93.8589 75.144 93.8608C70.043 93.8848 64.941 93.8809 59.839 93.874C57.291 93.8701 55.609 92.1982 55.605 89.6602C55.598 84.502 55.599 79.3452 55.605 74.187C55.608 71.5898 57.274 69.9238 59.868 69.9189C62.585 69.9131 65.302 69.917 68.019 69.917H68.912C68.912 67.2021 68.916 64.623 68.91 62.0439C68.908 60.749 69.2889 59.5859 70.106 58.5811C71.436 56.9448 73.225 56.501 75.24 56.5991C76.428 56.6572 76.891 57.0791 76.895 58.2778C76.901 60.4399 76.879 62.604 76.915 64.7661C76.921 65.106 77.089 65.521 77.323 65.7671C78.548 67.0498 79.814 68.2949 81.078 69.54C81.244 69.7031 81.479 69.8911 81.688 69.8979C82.7321 69.9351 83.777 69.915 84.661 69.915C84.9 69.0659 84.8979 68.1362 85.3621 67.686C85.826 67.2349 86.756 67.2642 87.505 67.0771V24.7041H34.309ZM31.647 56.6069V55.4878C31.647 44.98 31.647 34.4731 31.647 23.9658C31.647 22.3701 32.0129 22 33.59 22C51.83 22 70.0699 22 88.3101 22C89.823 22 90.205 22.3901 90.205 23.9312C90.2061 38.0151 90.2061 52.0991 90.2061 66.1821V67.2549H91.1591C94.6801 67.2549 98.2 67.2539 101.721 67.2559C103.083 67.2568 103.513 67.6831 103.514 69.0391C103.515 76.7178 103.515 84.3979 103.514 92.0771C103.513 93.4419 103.085 93.874 101.734 93.875C97.937 93.877 94.139 93.876 90.2061 93.876C90.2061 94.604 90.22 95.311 90.202 96.0171C90.177 97.0122 90.235 98.0249 90.071 98.999C89.522 102.245 86.847 104.499 83.546 104.517C78.584 104.543 73.6219 104.524 68.66 104.524C55.188 104.524 41.7159 104.525 28.244 104.524C23.751 104.523 21.001 101.768 21 97.2681C21 84.376 21 71.4839 21 58.5928C21 56.958 21.355 56.6069 23.006 56.6069C25.855 56.6069 28.704 56.6069 31.647 56.6069Z" fill="#00CDBF"/>
<path d="M60.83 58.7589C69.123 53.0363 74.983 45.8781 75.501 35.3781C75.364 35.3453 75.286 35.3121 75.207 35.3082C70.16 35.0709 65.541 33.5582 61.402 30.6461C60.99 30.3571 60.744 30.4552 60.389 30.7023C57.3719 32.7999 54.062 34.2213 50.437 34.8571C49.083 35.0963 47.7111 35.2272 46.33 35.4093C46.5699 39.7911 47.821 43.839 49.9659 47.6422C52.615 52.337 56.824 55.4762 60.83 58.7589ZM43.636 34.8541C43.636 34.5221 43.605 34.1862 43.642 33.8571C43.731 33.0612 44.274 32.6422 45.244 32.652C48.528 32.6871 51.725 32.1783 54.701 30.7872C56.469 29.9591 58.127 28.88 59.7841 27.8351C60.795 27.1969 61.11 27.1271 62.08 27.8619C66.311 31.066 71.0811 32.653 76.385 32.6491C77.838 32.6491 78.265 33.0743 78.215 34.549C77.918 43.4493 74.417 50.8361 67.6949 56.6759C65.833 58.2931 63.907 59.837 62.022 61.4269C61.401 61.9513 60.7371 62.1803 60.078 61.6061C57.11 59.026 53.962 56.6139 51.2629 53.775C46.7531 49.0299 44.366 43.2111 43.767 36.6783C43.712 36.0709 43.663 35.464 43.611 34.8571L43.636 34.8541Z" fill="#00CDBF"/>
<path d="M46.866 64.6401H39.689V72.5122H47.558V67.7939C46.517 68.8628 45.625 69.8042 44.703 70.7158C44.049 71.3638 43.3731 71.4639 42.786 70.917C41.8571 70.0518 41 69.1089 40.142 68.229L42.073 66.208C42.5871 66.8428 43.07 67.4399 43.5 67.9722C44.683 66.8008 45.757 65.7368 46.866 64.6401ZM51.928 59.6309L53.916 61.606C52.848 62.644 51.775 63.6392 50.768 64.6968C50.501 64.9771 50.307 65.4482 50.301 65.834C50.26 68.4102 50.2841 70.9868 50.278 73.563C50.275 74.7632 49.812 75.2368 48.63 75.2388C45.2791 75.2451 41.927 75.2461 38.5761 75.2378C37.448 75.2358 36.975 74.75 36.973 73.604C36.9671 70.252 36.966 66.8999 36.973 63.5479C36.976 62.4092 37.4521 61.9292 38.595 61.9351C42.192 61.9551 45.789 61.9971 49.386 62.0059C49.5871 62.0068 49.824 61.8208 49.9831 61.6621C50.627 61.0171 51.247 60.3481 51.928 59.6309Z" fill="#00CDBF"/>
<path d="M43.405 83.9019C44.6071 82.71 45.689 81.6372 46.703 80.6299H39.678V88.4951H47.572V83.999L47.4 83.8691C46.51 84.8032 45.6231 85.7402 44.729 86.6699C44.188 87.2319 43.4981 87.501 42.884 86.9512C41.9041 86.0752 41.039 85.0708 40.195 84.1929C40.757 83.5752 41.313 82.9639 42.012 82.1948C42.532 82.833 43.018 83.4282 43.405 83.9019ZM51.882 75.5918C52.629 76.3208 53.22 76.8979 53.875 77.5381C52.8941 78.5151 51.964 79.5 50.9671 80.4111C50.426 80.9048 50.254 81.4341 50.265 82.1479C50.303 84.6128 50.2841 87.0791 50.277 89.5439C50.2741 90.7388 49.809 91.209 48.622 91.2109C45.298 91.2178 41.974 91.2168 38.65 91.2119C37.447 91.21 36.975 90.75 36.973 89.5679C36.9671 86.2158 36.966 82.8638 36.974 79.5122C36.976 78.3779 37.4561 77.9082 38.603 77.9058C41.872 77.8989 45.142 77.833 48.407 77.9458C49.413 77.981 50.064 77.7178 50.647 76.9922C51.027 76.519 51.449 76.0801 51.882 75.5918Z" fill="#00CDBF"/>
<path d="M69.8421 40.5533C66.5141 40.169 63.558 38.9649 60.919 36.9801C58.256 38.9952 55.314 40.169 52.007 40.5543C53.359 45.7271 56.9511 49.0611 60.9301 52.1192C64.9001 49.0621 68.495 45.7301 69.8421 40.5533ZM72.9001 39.543C72.703 40.2589 72.496 41.2081 72.1851 42.1212C70.965 45.711 68.939 48.775 66.078 51.273C64.721 52.4581 63.341 53.6163 61.9821 54.7969C61.39 55.3121 60.73 55.522 60.11 54.9742C57.933 53.0489 55.669 51.1993 53.6751 49.0963C51.23 46.5181 49.794 43.3301 49.0401 39.8511C48.789 38.6939 49.2961 38.005 50.4731 37.9742C53.887 37.8819 56.907 36.7388 59.596 34.6529C60.8061 33.7139 61.057 33.7149 62.283 34.6661C64.9731 36.751 67.995 37.8902 71.4091 37.9742C72.333 37.9971 72.88 38.5142 72.9001 39.543Z" fill="#00CDBF"/>
</svg>
