<svg width="125" height="125" viewBox="0 0 125 125" fill="none" xmlns="http://www.w3.org/2000/svg">
<path d="M1 98V28C1 27.2471 1.03699 26.4951 1.11102 25.7461C1.185 24.9961 1.29498 24.252 1.44202 23.5129C1.58899 22.7739 1.77197 22.0439 1.98999 21.323C2.20898 20.603 2.46301 19.894 2.75098 19.198C3.039 18.502 3.36102 17.822 3.716 17.158C4.07098 16.4939 4.45801 15.8479 4.87598 15.2219C5.29498 14.595 5.74298 13.991 6.22101 13.4089C6.69897 12.8269 7.20398 12.269 7.737 11.7371C8.26898 11.2041 8.82703 10.699 9.409 10.2209C9.99103 9.74292 10.596 9.29492 11.222 8.87598C11.848 8.45801 12.494 8.07104 13.158 7.71606C13.822 7.36108 14.502 7.03906 15.198 6.75098C15.894 6.46191 16.603 6.20898 17.323 5.98999C18.044 5.77197 18.774 5.58911 19.513 5.44189C20.252 5.29492 20.996 5.18506 21.746 5.11108C22.495 5.03711 23.247 5 24 5H102C102.753 5 103.505 5.03711 104.254 5.11108C105.004 5.18506 105.748 5.29492 106.487 5.44189C107.226 5.58911 107.956 5.77197 108.677 5.98999C109.397 6.20898 110.106 6.46191 110.802 6.75098C111.498 7.03906 112.178 7.36108 112.842 7.71606C113.506 8.07104 114.152 8.45801 114.778 8.87598C115.404 9.29492 116.009 9.74292 116.591 10.2209C117.173 10.699 117.731 11.2041 118.263 11.7371C118.796 12.269 119.301 12.8269 119.779 13.4089C120.257 13.991 120.705 14.595 121.124 15.2219C121.542 15.8479 121.929 16.4939 122.284 17.158C122.639 17.822 122.961 18.502 123.249 19.198C123.537 19.894 123.791 20.603 124.01 21.323C124.228 22.0439 124.411 22.7739 124.558 23.5129C124.705 24.252 124.815 24.9961 124.889 25.7461C124.963 26.4951 125 27.2471 125 28V98C125 98.7529 124.963 99.5049 124.889 100.254C124.815 101.004 124.705 101.748 124.558 102.487C124.411 103.226 124.228 103.956 124.01 104.677C123.791 105.397 123.537 106.106 123.249 106.802C122.961 107.498 122.639 108.178 122.284 108.842C121.929 109.506 121.542 110.152 121.124 110.778C120.705 111.404 120.257 112.009 119.779 112.591C119.301 113.173 118.796 113.731 118.263 114.264C117.731 114.796 117.173 115.301 116.591 115.779C116.009 116.257 115.404 116.705 114.778 117.124C114.152 117.542 113.506 117.929 112.842 118.284C112.178 118.639 111.498 118.961 110.802 119.249C110.106 119.538 109.397 119.791 108.677 120.01C107.956 120.229 107.226 120.411 106.487 120.558C105.748 120.705 105.004 120.815 104.254 120.889C103.505 120.963 102.753 121 102 121H24C23.247 121 22.495 120.963 21.746 120.889C20.996 120.815 20.252 120.705 19.513 120.558C18.774 120.411 18.044 120.229 17.323 120.01C16.603 119.791 15.894 119.538 15.198 119.249C14.502 118.961 13.822 118.639 13.158 118.284C12.494 117.929 11.848 117.542 11.222 117.124C10.596 116.705 9.99103 116.257 9.409 115.779C8.82703 115.301 8.26898 114.796 7.737 114.264C7.20398 113.731 6.69897 113.173 6.22101 112.591C5.74298 112.009 5.29498 111.404 4.87598 110.778C4.45801 110.152 4.07098 109.506 3.716 108.842C3.36102 108.178 3.039 107.498 2.75098 106.802C2.46301 106.106 2.20898 105.397 1.98999 104.677C1.77197 103.956 1.58899 103.226 1.44202 102.487C1.29498 101.748 1.185 101.004 1.11102 100.254C1.03699 99.5049 1 98.7529 1 98Z" fill="white"/>
<path d="M37.568 53.2821C38.122 54.7381 38.616 56.1131 39.173 57.462C39.409 58.0321 39.935 58.2521 40.55 58.1551C41.169 58.057 41.648 57.66 41.616 57.0621C41.541 55.6412 41.331 54.2272 41.174 52.7921L37.568 53.2821ZM44.154 54.5802C44.649 54.2811 45.148 54.0851 45.508 53.744C47.255 52.0902 48.97 50.4022 50.685 48.713C51.397 48.0111 51.449 47.2601 50.867 46.671C50.307 46.1041 49.521 46.1542 48.819 46.828C47.68 47.9181 46.555 49.0221 45.424 50.1202C43.66 51.8321 43.66 51.8321 44.021 54.2291C44.029 54.2821 44.059 54.3321 44.154 54.5802ZM30.291 80.1151C30.976 79.4881 31.663 78.859 32.208 78.3602C28.857 75.0101 25.523 71.6761 22.295 68.4501C21.698 68.9982 21.012 69.628 20.374 70.2142C23.714 73.5482 27.037 76.8661 30.291 80.1151ZM45.36 56.9811C44.634 57.1671 44.311 57.514 44.12 58.1581C43.524 60.1761 41.403 61.3871 39.413 60.754C38.414 60.4361 37.992 60.8561 37.691 61.5812C37.477 62.097 37.341 62.6981 37.368 63.2521C37.46 65.0951 38.152 66.7171 39.258 68.2081C40.86 70.3671 43.345 70.3861 44.973 69.6771C45.883 69.2801 46.771 68.8231 47.638 68.3392C49.541 67.2782 49.605 67.057 48.778 65.0831C48.724 64.9552 48.671 64.828 48.618 64.701C47.535 62.1351 46.452 59.5692 45.36 56.9811ZM37.588 70.3941C36.486 69.17 35.555 67.5831 35.081 65.7572C34.424 63.2281 34.36 60.8131 36.442 58.8131C36.556 58.7042 36.651 58.4501 36.603 58.3192C36.092 56.9051 35.55 55.503 34.993 54.034C34.057 54.723 33.589 55.5421 33.338 56.5091C33.005 57.7941 32.716 59.0931 32.307 60.3541C32.121 60.9291 31.789 61.5221 31.36 61.942C29.446 63.8212 27.474 65.6412 25.605 67.4042C28.158 69.962 30.676 72.484 33.274 75.087C34.649 73.5912 36.072 72.0441 37.588 70.3941ZM54.313 74.2272C55.888 74.2772 57.692 73.932 58.51 75.858C59.336 77.805 57.875 78.858 56.832 79.9261C58.111 81.202 59.337 82.4242 60.677 83.7611C61 83.3932 61.35 82.92 61.772 82.5272C62.594 81.7621 63.567 81.546 64.617 81.984C65.695 82.4352 66.233 83.2911 66.269 84.453C66.287 85.024 66.272 85.597 66.272 86.1561H71.6C71.6 85.5961 71.6 85.098 71.6 84.6012C71.599 83.409 72.09 82.503 73.199 82.013C74.348 81.505 75.376 81.7872 76.236 82.6522C76.618 83.036 76.919 83.5001 77.175 83.8231C78.596 82.4032 79.806 81.1932 81.061 79.9391C79.999 78.8732 78.565 77.8312 79.335 75.9222C80.12 73.9772 81.903 74.243 83.527 74.2301V68.9191C82.951 68.9191 82.428 68.9242 81.905 68.9171C80.709 68.9022 79.815 68.38 79.348 67.2682C78.879 66.15 79.16 65.1471 79.993 64.3002C80.375 63.911 80.796 63.5621 81.045 63.336C79.702 61.9891 78.481 60.765 77.193 59.472C76.916 59.775 76.581 60.1842 76.202 60.5472C75.345 61.3702 74.341 61.64 73.226 61.161C72.115 60.6832 71.607 59.784 71.6 58.5892C71.598 58.0492 71.6 57.5091 71.6 56.942H68.892H66.281C66.278 58.6202 66.534 60.3612 64.641 61.1632C62.703 61.983 61.642 60.5191 60.61 59.4991C59.321 60.785 58.096 62.0091 56.791 63.3121C57.111 63.5992 57.522 63.932 57.889 64.3082C58.719 65.1581 58.996 66.161 58.521 67.2782C58.049 68.389 57.153 68.9061 55.957 68.9181C55.415 68.9232 54.873 68.9191 54.313 68.9191V74.2272ZM52.179 67.3111C53.034 66.0101 54.504 66.2792 55.989 66.0521C55.628 65.7291 55.245 65.4281 54.909 65.0802C53.751 63.878 53.739 62.3512 54.899 61.1551C56.076 59.941 57.274 58.7472 58.486 57.5682C59.713 56.3751 61.237 56.389 62.471 57.598C62.8 57.92 63.053 58.3192 63.341 58.6832L63.614 58.5182C63.614 57.9781 63.597 57.4381 63.617 56.8981C63.671 55.4342 64.753 54.3192 66.214 54.2911C68.016 54.2572 69.819 54.2601 71.621 54.2892C73.118 54.3131 74.211 55.4391 74.258 56.9462C74.274 57.4642 74.261 57.983 74.261 58.5011L74.462 58.64C74.804 58.2621 75.123 57.8612 75.491 57.5111C76.632 56.4261 78.155 56.3961 79.295 57.484C80.578 58.7091 81.833 59.9652 83.058 61.2482C84.109 62.3492 84.093 63.8741 83.048 64.9881C82.694 65.3661 82.252 65.66 81.851 65.9921L81.998 66.2582C82.509 66.2582 83.02 66.2482 83.53 66.2601C85.086 66.296 86.213 67.389 86.237 68.9342C86.263 70.68 86.259 72.4271 86.238 74.1732C86.219 75.775 85.108 76.8671 83.502 76.901C83.01 76.9122 82.518 76.9032 82.027 76.9032L81.87 77.1171C82.213 77.4142 82.58 77.6881 82.897 78.0121C84.145 79.285 84.161 80.7921 82.927 82.0582C81.785 83.2291 80.63 84.3871 79.458 85.5282C78.142 86.8102 76.65 86.8002 75.353 85.5111C75.044 85.2042 74.798 84.8321 74.524 84.4901L74.262 84.6312C74.262 85.086 74.266 85.5411 74.262 85.9952C74.244 87.7662 73.171 88.8651 71.425 88.878C69.761 88.89 68.097 88.8912 66.433 88.8771C64.733 88.8641 63.635 87.7601 63.613 86.0621C63.607 85.598 63.612 85.1341 63.612 84.6691L63.386 84.493C63.095 84.8412 62.829 85.2142 62.507 85.5311C61.229 86.784 59.723 86.8011 58.46 85.5682C57.27 84.4061 56.092 83.2311 54.931 82.0401C53.728 80.805 53.733 79.286 54.936 78.057C55.261 77.7252 55.65 77.4552 56.009 77.1571L55.883 76.9032C55.374 76.9032 54.864 76.9132 54.355 76.901C52.76 76.8651 51.65 75.7582 51.635 74.1561C51.617 72.286 51.63 70.4161 51.63 68.5831C49.25 70.817 46.57 72.378 43.318 72.702C42.385 72.795 41.413 72.4681 40.455 72.3631C40.214 72.336 39.865 72.3292 39.729 72.4701C38.228 74.0231 36.76 75.607 35.245 77.223C35.897 78.263 35.858 78.5851 34.79 79.6542C33.712 80.732 32.636 81.8131 31.553 82.8861C30.645 83.786 30.023 83.7992 29.141 82.92C25.314 79.1012 21.491 75.2792 17.67 71.4542C16.776 70.5582 16.778 69.9432 17.669 69.0441C18.782 67.9222 19.902 66.807 21.021 65.691C22.017 64.6981 22.485 64.6752 23.633 65.6031C25.596 63.7472 27.571 61.889 29.529 60.0121C29.692 59.8551 29.768 59.5831 29.833 59.3502C30.115 58.337 30.383 57.3202 30.648 56.3031C31.592 52.6732 33.389 51.0961 37.094 50.639C38.331 50.4862 39.563 50.274 40.805 50.1742C41.468 50.1202 41.927 49.8412 42.378 49.3912C43.929 47.8441 45.492 46.3092 47.084 44.805C48.29 43.6661 49.727 43.2911 51.307 43.8741C52.815 44.431 53.681 45.5741 53.883 47.1622C54.051 48.4862 53.574 49.6141 52.629 50.5411C51.125 52.0162 49.624 53.4952 48.092 54.941C47.708 55.3031 47.648 55.5912 47.857 56.076C48.985 58.6932 50.11 61.3131 51.164 63.961C51.598 65.0492 51.851 66.2101 52.179 67.3111Z" fill="#00CDBF"/>
<path d="M96.895 64.972C96.895 75.8651 96.896 86.7591 96.894 97.6529C96.893 102.085 94.119 104.85 89.672 104.85C75.834 104.851 61.996 104.851 48.158 104.85C43.771 104.85 40.981 102.067 40.98 97.6929C40.978 90.9571 40.979 84.221 40.98 77.4852C40.98 77.2361 40.956 76.98 41 76.7391C41.133 76.0211 41.575 75.5911 42.311 75.5911C43.047 75.5911 43.489 76.024 43.619 76.741C43.669 77.0101 43.641 77.293 43.641 77.5701C43.642 84.306 43.641 91.0421 43.643 97.7779C43.644 100.552 45.263 102.187 48.016 102.188C61.965 102.189 75.914 102.189 89.863 102.188C92.583 102.187 94.23 100.557 94.231 97.856C94.233 75.9022 94.233 53.9481 94.231 31.994C94.23 29.295 92.582 27.6671 89.86 27.6671C75.911 27.6651 61.962 27.6651 48.014 27.6671C45.263 27.6671 43.646 29.3021 43.643 32.0779C43.64 34.046 43.646 36.014 43.64 37.982C43.637 39.0272 43.134 39.639 42.305 39.6361C41.477 39.6331 40.984 39.024 40.981 37.973C40.976 35.8941 40.965 33.815 40.983 31.7361C41.015 27.907 43.904 25.013 47.75 25.0101C61.865 24.9971 75.98 24.9971 90.095 25.0091C94.02 25.012 96.887 27.9141 96.891 31.8741C96.902 42.907 96.895 53.939 96.895 64.972Z" fill="#00CDBF"/>
<path d="M88.849 35.69H48.967C48.967 36.523 48.978 37.3201 48.964 38.116C48.948 39.0359 48.438 39.6189 47.663 39.636C46.857 39.6541 46.318 39.0521 46.308 38.0879C46.296 36.9791 46.302 35.8702 46.305 34.762C46.309 33.4122 46.737 32.99 48.108 32.99C61.336 32.9881 74.564 32.9891 87.792 32.9891C88.569 32.9891 89.346 32.9729 90.122 32.9939C91.051 33.0201 91.53 33.5162 91.568 34.4541C91.575 34.648 91.569 34.8421 91.569 35.0359C91.569 54.0801 91.569 73.1241 91.569 92.167C91.569 93.8619 91.227 94.2042 89.527 94.2042H48.346C46.645 94.2042 46.305 93.8653 46.305 92.168C46.304 87.2061 46.293 82.2439 46.324 77.283C46.327 76.826 46.488 76.2491 46.793 75.952C47.062 75.691 47.697 75.5779 48.061 75.7081C48.426 75.8392 48.707 76.3201 48.925 76.7051C49.045 76.917 48.966 77.2471 48.966 77.524C48.968 82.1521 48.967 86.7811 48.967 91.4761H88.849V35.69Z" fill="#00CDBF"/>
<path d="M66.39 42.177C66.735 42.8779 66.94 43.3879 67.224 43.8491C67.696 44.6169 67.676 45.3391 67.21 46.1001C66.928 46.561 66.723 47.0681 66.378 47.7671C68.796 46.791 70.952 45.9209 73.26 44.99C72.982 44.8501 72.873 44.7849 72.756 44.738C70.713 43.915 68.67 43.094 66.39 42.177ZM63.763 51.614C62.597 51.624 61.988 50.6011 62.469 49.5969C63.09 48.3 63.724 47.0071 64.415 45.7471C64.732 45.1689 64.7 44.7109 64.394 44.1489C63.734 42.935 63.146 41.6809 62.516 40.4499C62.21 39.855 62.148 39.2781 62.623 38.7561C63.0949 38.237 63.668 38.2251 64.296 38.478C68.5819 40.199 72.8709 41.9141 77.163 43.623C77.778 43.8669 78.234 44.23 78.2459 44.937C78.2589 45.686 77.783 46.062 77.139 46.3191C72.873 48.0181 68.611 49.728 64.347 51.4299C64.119 51.521 63.876 51.5791 63.763 51.614Z" fill="#00CDBF"/>
<path d="M68.931 31.649C68.46 31.649 67.986 31.682 67.518 31.6422C66.783 31.5792 66.278 31.014 66.281 30.3221C66.284 29.627 66.789 29.0492 67.527 29.015C68.468 28.971 69.414 28.971 70.354 29.0162C71.089 29.0511 71.595 29.638 71.592 30.3311C71.589 31.023 71.081 31.5821 70.344 31.6432C69.876 31.681 69.403 31.65 68.931 31.649Z" fill="#00CDBF"/>
<path d="M51.607 99.526C51.219 99.526 50.831 99.5372 50.443 99.5241C49.539 99.4943 48.96 98.9572 48.974 98.174C48.987 97.421 49.546 96.8942 50.403 96.8712C51.206 96.8502 52.011 96.8532 52.815 96.8702C53.719 96.8893 54.298 97.4342 54.285 98.2169C54.272 98.9982 53.694 99.5011 52.772 99.525C52.384 99.5353 51.995 99.526 51.607 99.526Z" fill="#00CDBF"/>
<path d="M68.904 99.5208C68.461 99.5208 68.015 99.5476 67.574 99.5159C66.793 99.4597 66.263 98.8879 66.281 98.1638C66.298 97.471 66.811 96.9128 67.554 96.8806C68.468 96.8416 69.385 96.8416 70.299 96.8787C71.079 96.9119 71.61 97.5037 71.592 98.2278C71.575 98.9168 71.059 99.4597 70.318 99.5149C69.849 99.5486 69.376 99.5208 68.904 99.5208Z" fill="#00CDBF"/>
<path d="M86.274 96.8751C86.746 96.8751 87.22 96.8399 87.687 96.8838C88.412 96.9503 88.936 97.5401 88.894 98.2271C88.849 98.96 88.429 99.4483 87.708 99.4991C86.742 99.567 85.766 99.5543 84.799 99.5049C84.074 99.4678 83.571 98.8541 83.588 98.1651C83.605 97.4722 84.118 96.9322 84.861 96.878C85.33 96.8443 85.803 96.8721 86.274 96.8721V96.8751Z" fill="#00CDBF"/>
<path d="M57.569 46.285C57.319 46.285 57.064 46.3182 56.821 46.2791C56.103 46.161 55.68 45.731 55.636 44.9962C55.594 44.3082 56.116 43.722 56.84 43.6522C57.28 43.609 57.727 43.6241 58.17 43.639C59.029 43.668 59.591 44.182 59.61 44.9332C59.63 45.712 59.046 46.2591 58.151 46.294C57.957 46.3021 57.763 46.295 57.569 46.295V46.285Z" fill="#00CDBF"/>
<path d="M82.898 46.2958C82.759 46.2958 82.62 46.299 82.482 46.2958C81.51 46.2729 80.914 45.756 80.925 44.9479C80.937 44.1388 81.5251 43.652 82.5171 43.6359C82.849 43.631 83.183 43.623 83.515 43.6398C84.358 43.6818 84.916 44.2279 84.906 44.9819C84.895 45.7328 84.332 46.2528 83.48 46.2939C83.286 46.3029 83.091 46.2948 82.898 46.2958Z" fill="#00CDBF"/>
<path d="M68.884 78.232C72.576 78.2471 75.578 75.283 75.59 71.6131C75.603 67.9641 72.655 64.958 69.033 64.929C65.306 64.898 62.288 67.876 62.282 71.5911C62.276 75.22 65.257 78.219 68.884 78.232ZM78.253 71.584C78.251 76.709 74.058 80.906 68.953 80.895C63.783 80.8831 59.617 76.7029 59.62 71.5301C59.623 66.4641 63.81 62.2759 68.881 62.2661C74.062 62.2549 78.255 66.4241 78.253 71.584Z" fill="#00CDBF"/>
</svg>
