<svg width="81" height="115" viewBox="0 0 81 115" fill="none" xmlns="http://www.w3.org/2000/svg">
<path d="M18.215 66.0891C18.242 63.8391 16.521 62.0691 14.287 62.051C12.068 62.033 10.255 63.8101 10.246 66.01C10.238 68.155 11.989 69.946 14.152 70.0061C16.367 70.0669 18.188 68.312 18.215 66.0891ZM37.034 0.48999C37.886 0.995117 38.613 1.5769 38.603 2.7019C38.592 3.99805 37.732 4.81909 36.224 4.93799C27.547 5.62305 20.134 9.04199 14.042 15.261C3.00596 26.5281 1.28597 44.344 9.93997 57.5181C10.12 57.793 10.312 58.0601 10.543 58.395C12.446 57.6279 14.385 57.3569 16.383 57.8821C21.086 59.116 23.759 64.019 22.244 68.635C20.724 73.2629 15.683 75.6411 11.16 73.864C6.65997 72.0969 4.53296 66.854 6.64597 62.4961C7.08996 61.5801 6.96496 61.0259 6.44596 60.241C-8.35403 37.842 3.52097 7.61499 29.93 1.41211C31.613 1.01709 33.335 0.793945 35.039 0.48999H37.034Z" fill="#00C2B5"/>
<path d="M66.785 11.935C66.803 9.69089 65.062 7.91404 62.836 7.905C60.641 7.89597 58.809 9.71702 58.817 11.9021C58.825 14.0639 60.574 15.8239 62.747 15.8569C65.001 15.8899 66.767 14.175 66.785 11.935ZM34.454 42.8669C36.991 41.563 39.497 41.48 42.059 42.666C42.312 42.7829 42.902 42.5879 43.097 42.3459C44.948 40.049 44.526 36.5439 42.213 34.584C39.928 32.6469 36.452 32.8391 34.388 35.0171C32.286 37.2361 32.285 40.6579 34.454 42.8669ZM46.359 55.289C52.79 52.51 58.291 44.343 56.338 35.1179C54.55 26.6709 46.558 20.364 38.012 20.7549C28.86 21.175 21.516 27.884 20.445 36.803C19.536 44.372 24.408 53.3469 30.497 55.1069C30.497 54.1609 30.486 53.249 30.499 52.3379C30.526 50.3889 30.333 48.4199 31.154 46.5471C31.26 46.3039 31.002 45.8081 30.784 45.532C28.628 42.8069 27.856 39.7671 28.722 36.384C29.741 32.4009 33.181 29.3779 37.152 28.8911C41.421 28.3679 45.448 30.4121 47.464 34.1269C49.454 37.7939 49.001 42.3149 46.244 45.5071C45.731 46.1001 45.693 46.549 45.912 47.2661C46.188 48.1689 46.305 49.1421 46.341 50.0901C46.406 51.78 46.359 53.4741 46.359 55.289ZM30.454 92.1919C30.468 91.8659 30.495 91.541 30.495 91.2151C30.497 81.2009 30.488 71.187 30.514 61.1721C30.516 60.394 30.283 60.0149 29.552 59.699C20.386 55.7419 14.853 46.216 16.016 36.467C17.227 26.312 24.82 18.3091 34.835 16.635C49.002 14.2661 61.975 25.675 61.124 39.9939C60.581 49.1379 55.9 55.7051 47.634 59.685C47.236 59.876 46.826 60.04 46.396 60.227V72.125C46.998 71.969 47.549 71.8379 48.094 71.6831C63.144 67.4021 73.326 53.187 72.59 37.5691C72.296 31.3349 70.49 25.615 67.13 20.3659C66.714 19.716 66.376 19.521 65.554 19.813C60.997 21.4299 56.086 18.8689 54.744 14.2571C53.385 9.58591 56.182 4.81003 60.94 3.67795C65.572 2.57493 70.252 5.64402 71.107 10.3979C71.442 12.261 71.211 14.092 70.279 15.771C69.975 16.32 69.972 16.706 70.334 17.2451C83.585 36.9761 76.531 63.282 55.218 73.674C54.957 73.801 54.706 73.949 54.357 74.1369C54.787 74.5129 55.158 74.8379 55.529 75.1631C59.633 71.24 66.404 72.136 68.925 78.2949C70.619 77.4741 72.413 77.143 74.272 77.509C77.893 78.2229 80.619 81.2839 80.655 85.008C80.74 93.876 80.697 102.745 80.683 111.614C80.68 113.033 79.709 114.01 78.451 114.006C77.128 114.001 76.263 113.032 76.261 111.484C76.253 102.874 76.262 94.2639 76.253 85.654C76.251 83.5549 74.977 82.0119 73.155 81.8401C70.945 81.6299 69.266 83.166 69.232 85.4909C69.197 87.9299 69.22 90.3689 69.218 92.8081C69.218 93.803 68.763 94.6499 67.838 94.8459C67.135 94.9951 66.12 94.875 65.617 94.4409C65.103 93.997 64.837 93.029 64.822 92.2839C64.745 88.4419 64.814 84.5979 64.773 80.7549C64.745 78.249 62.332 76.6001 60.069 77.4719C58.7 77.999 57.842 79.2461 57.833 80.8479C57.813 84.5061 57.827 88.165 57.822 91.823C57.821 92.228 57.828 92.6411 57.757 93.0371C57.549 94.185 56.588 94.968 55.5 94.9189C54.342 94.8679 53.43 93.9919 53.411 92.7561C53.368 89.948 53.391 87.1399 53.387 84.332C53.385 83.1489 53.424 81.9651 53.373 80.7839C53.285 78.7329 51.763 77.229 49.852 77.238C47.892 77.247 46.38 78.8159 46.366 80.925C46.344 84.324 46.361 87.7241 46.359 91.124C46.358 93.105 45.645 94.0691 44.173 94.082C42.671 94.0959 41.924 93.0969 41.924 91.061C41.923 77.426 41.925 63.79 41.922 50.155C41.921 48.093 40.859 46.678 39.095 46.3449C37.077 45.9651 35.205 47.334 34.984 49.376C34.929 49.8879 34.938 50.4089 34.938 50.925C34.936 67.074 34.936 83.2219 34.936 99.3701C34.936 99.7771 34.943 100.184 34.924 100.589C34.874 101.705 34.364 102.501 33.251 102.79C32.131 103.081 31.306 102.605 30.728 101.662C28.473 97.978 26.238 94.281 23.971 90.605C23.04 89.0969 21.532 88.448 19.905 88.7649C18.384 89.062 17.112 90.3291 16.99 91.9839C16.929 92.8159 17.151 93.759 17.518 94.519C20.021 99.7019 22.598 104.849 25.149 110.01C25.328 110.373 25.532 110.732 25.654 111.116C25.987 112.164 25.518 113.267 24.57 113.754C23.558 114.275 22.408 113.982 21.733 113.024C21.627 112.875 21.544 112.708 21.462 112.542C18.743 107.054 15.967 101.593 13.326 96.0681C10.971 91.143 13.732 85.6059 19.017 84.415C22.233 83.6899 25.605 85.053 27.5 87.9031C28.455 89.3379 29.326 90.8291 30.236 92.2949L30.454 92.1919Z" fill="#00C2B5"/>
<path d="M46.395 1.31495C47.628 1.31812 48.575 2.25391 48.584 3.47803C48.593 4.6919 47.643 5.67799 46.437 5.70508C45.212 5.73292 44.148 4.68311 44.169 3.46509C44.189 2.2649 45.177 1.31202 46.395 1.31495Z" fill="#00C2B5"/>
</svg>
