<svg width="115" height="115" viewBox="0 0 115 115" fill="none" xmlns="http://www.w3.org/2000/svg">
<path d="M35.215 66.5991C35.242 64.3491 33.521 62.5791 31.287 62.561C29.068 62.543 27.255 64.3201 27.246 66.52C27.238 68.665 28.989 70.4561 31.152 70.5161C33.367 70.5769 35.188 68.822 35.215 66.5991ZM54.034 1C54.886 1.50513 55.613 2.08691 55.603 3.21191C55.592 4.50806 54.732 5.3291 53.224 5.448C44.547 6.13306 37.134 9.552 31.042 15.771C20.006 27.0381 18.286 44.854 26.94 58.0281C27.12 58.303 27.312 58.5701 27.543 58.905C29.446 58.1379 31.385 57.8669 33.383 58.3921C38.086 59.626 40.759 64.5291 39.244 69.145C37.724 73.7729 32.683 76.1511 28.16 74.374C23.66 72.6069 21.533 67.364 23.646 63.0061C24.09 62.0901 23.965 61.5359 23.446 60.751C8.64597 38.3521 20.521 8.125 46.93 1.92212C48.613 1.5271 50.335 1.30396 52.039 1H54.034Z" fill="#00C2B5"/>
<path d="M83.7851 12.445C83.803 10.2009 82.062 8.42405 79.8361 8.41501C77.6411 8.40598 75.8091 10.227 75.8171 12.4121C75.8251 14.5739 77.5741 16.334 79.747 16.3669C82.0011 16.3999 83.7671 14.685 83.7851 12.445ZM51.4541 43.3769C53.9911 42.073 56.497 41.99 59.0591 43.176C59.3121 43.2929 59.902 43.0979 60.0971 42.8559C61.9481 40.5591 61.5261 37.0539 59.2131 35.094C56.928 33.157 53.4521 33.3491 51.3881 35.5271C49.2861 37.7461 49.2851 41.1679 51.4541 43.3769ZM63.359 55.799C69.79 53.02 75.2911 44.853 73.3381 35.6279C71.5501 27.1809 63.5581 20.874 55.012 21.2649C45.8601 21.685 38.5161 28.394 37.4451 37.313C36.536 44.8821 41.4081 53.8569 47.497 55.6169C47.497 54.6709 47.486 53.759 47.499 52.8479C47.5261 50.8989 47.333 48.9299 48.1541 47.0571C48.26 46.8139 48.0021 46.3181 47.7841 46.042C45.6281 43.3169 44.8561 40.2771 45.7221 36.894C46.7411 32.9109 50.1811 29.8879 54.152 29.4011C58.4211 28.8779 62.4481 30.9221 64.4641 34.6369C66.454 38.3039 66.0011 42.8249 63.2441 46.0171C62.7311 46.6101 62.693 47.0591 62.9121 47.7761C63.1881 48.6789 63.305 49.6521 63.3411 50.6001C63.4061 52.29 63.359 53.9841 63.359 55.799ZM47.4541 92.7019C47.4681 92.376 47.4951 92.051 47.4951 91.7251C47.497 81.7109 47.4881 71.697 47.5141 61.6821C47.5161 60.904 47.2831 60.5249 46.5521 60.209C37.3861 56.2519 31.8531 46.7261 33.0161 36.977C34.2271 26.822 41.8201 18.8191 51.8351 17.145C66.0021 14.7761 78.9751 26.185 78.124 40.5039C77.581 49.6479 72.9 56.2151 64.6341 60.195C64.236 60.386 63.8261 60.55 63.396 60.737V72.635C63.9981 72.479 64.549 72.3479 65.094 72.1931C80.1441 67.9121 90.3261 53.697 89.59 38.0791C89.2961 31.8449 87.4901 26.125 84.1301 20.876C83.7141 20.226 83.3761 20.031 82.5541 20.323C77.997 21.9399 73.0861 19.3789 71.7441 14.7671C70.385 10.0959 73.1821 5.32004 77.9401 4.18796C82.5721 3.08494 87.2521 6.15403 88.107 10.9079C88.4421 12.771 88.2111 14.602 87.2791 16.281C86.9751 16.8301 86.9721 17.216 87.3341 17.7551C100.585 37.4861 93.5311 63.792 72.2181 74.1841C71.9571 74.311 71.706 74.459 71.357 74.6469C71.7871 75.0229 72.1581 75.3479 72.5291 75.6731C76.633 71.75 83.4041 72.646 85.9251 78.8049C87.6191 77.9841 89.413 77.6531 91.2721 78.019C94.8931 78.7329 97.6191 81.7939 97.6551 85.518C97.7401 94.386 97.6971 103.255 97.6831 112.124C97.68 113.543 96.7091 114.52 95.4511 114.516C94.1281 114.511 93.2631 113.542 93.2611 111.994C93.2531 103.384 93.262 94.7739 93.2531 86.164C93.2511 84.0649 91.9771 82.5219 90.1551 82.3501C87.9451 82.1399 86.2661 83.676 86.232 86.001C86.1971 88.4399 86.2201 90.8789 86.2181 93.3181C86.2181 94.313 85.7631 95.1599 84.8381 95.3559C84.135 95.5051 83.12 95.385 82.6171 94.9509C82.1031 94.5071 81.8371 93.539 81.8221 92.7939C81.745 88.9519 81.814 85.1079 81.773 81.2649C81.745 78.759 79.3321 77.1101 77.0691 77.9819C75.7001 78.509 74.842 79.7561 74.833 81.3579C74.8131 85.0161 74.827 88.675 74.8221 92.333C74.8211 92.738 74.8281 93.1511 74.7571 93.5471C74.549 94.695 73.5881 95.478 72.5001 95.4289C71.342 95.3779 70.43 94.5019 70.411 93.2661C70.368 90.458 70.3911 87.6499 70.387 84.842C70.385 83.6589 70.424 82.4751 70.3731 81.2939C70.2851 79.2429 68.7631 77.739 66.8521 77.748C64.8921 77.7571 63.3801 79.3259 63.3661 81.435C63.344 84.834 63.361 88.2341 63.359 91.634C63.3581 93.615 62.6451 94.5791 61.1731 94.592C59.6711 94.6059 58.9241 93.6069 58.9241 91.571C58.9231 77.936 58.9251 64.3 58.9221 50.665C58.9211 48.603 57.859 47.188 56.0951 46.855C54.0771 46.4751 52.2051 47.844 51.984 49.886C51.9291 50.3979 51.9381 50.9189 51.9381 51.435C51.9361 67.584 51.9361 83.7319 51.9361 99.8801C51.9361 100.287 51.943 100.694 51.9241 101.099C51.874 102.215 51.3641 103.011 50.2511 103.3C49.1311 103.591 48.3061 103.115 47.7281 102.172C45.4731 98.488 43.2381 94.791 40.971 91.115C40.04 89.6069 38.5321 88.958 36.9051 89.2749C35.3841 89.572 34.1121 90.8391 33.9901 92.4939C33.9291 93.3259 34.1511 94.269 34.5181 95.029C37.0211 100.212 39.5981 105.359 42.1491 110.52C42.3281 110.883 42.5321 111.242 42.6541 111.626C42.9871 112.674 42.5181 113.777 41.5701 114.264C40.5581 114.785 39.4081 114.492 38.7331 113.534C38.6271 113.385 38.5441 113.218 38.4621 113.052C35.7431 107.564 32.967 102.103 30.3261 96.5781C27.9711 91.6531 30.7321 86.1159 36.0171 84.925C39.2331 84.1999 42.6051 85.563 44.5001 88.4131C45.4551 89.8479 46.3261 91.3391 47.236 92.8049L47.4541 92.7019Z" fill="#00C2B5"/>
<path d="M63.395 1.82496C64.628 1.82813 65.575 2.76392 65.584 3.98804C65.593 5.20191 64.643 6.18799 63.437 6.21509C62.212 6.24293 61.148 5.19312 61.169 3.9751C61.189 2.77491 62.177 1.82203 63.395 1.82496Z" fill="#00C2B5"/>
</svg>
