<svg width="125" height="125" viewBox="0 0 125 125" fill="none" xmlns="http://www.w3.org/2000/svg">
<path d="M0 98V28C0 27.2471 0.0370026 26.4951 0.110992 25.7461C0.184998 24.9961 0.294998 24.252 0.442001 23.5132C0.589005 22.7739 0.772003 22.0439 0.990005 21.3232C1.209 20.603 1.463 19.894 1.75101 19.1982C2.039 18.502 2.36099 17.8218 2.716 17.1582C3.071 16.4941 3.45799 15.8481 3.87601 15.2222C4.295 14.5962 4.743 13.9912 5.22099 13.4092C5.69901 12.8271 6.20399 12.269 6.737 11.7358C7.269 11.2041 7.827 10.6992 8.409 10.2212C8.991 9.74316 9.59599 9.29492 10.222 8.87598C10.848 8.45801 11.494 8.0708 12.158 7.71582C12.822 7.36084 13.502 7.03906 14.198 6.75098C14.894 6.46191 15.603 6.20898 16.323 5.99023C17.044 5.771 17.774 5.58887 18.513 5.44189C19.252 5.29492 19.996 5.18506 20.746 5.11084C21.495 5.03711 22.247 5 23 5H101C101.753 5 102.505 5.03711 103.254 5.11084C104.004 5.18506 104.748 5.29492 105.487 5.44189C106.226 5.58887 106.956 5.771 107.677 5.99023C108.397 6.20898 109.106 6.46191 109.802 6.75098C110.498 7.03906 111.178 7.36084 111.842 7.71582C112.506 8.0708 113.152 8.45801 113.778 8.87598C114.404 9.29492 115.009 9.74316 115.591 10.2212C116.173 10.6992 116.731 11.2041 117.263 11.7358C117.796 12.269 118.301 12.8271 118.779 13.4092C119.257 13.9912 119.705 14.5962 120.124 15.2222C120.542 15.8481 120.929 16.4941 121.284 17.1582C121.639 17.8218 121.961 18.502 122.249 19.1982C122.537 19.894 122.791 20.603 123.01 21.3232C123.228 22.0439 123.411 22.7739 123.558 23.5132C123.705 24.252 123.815 24.9961 123.889 25.7461C123.963 26.4951 124 27.2471 124 28V98C124 98.7529 123.963 99.5049 123.889 100.254C123.815 101.004 123.705 101.748 123.558 102.487C123.411 103.226 123.228 103.956 123.01 104.677C122.791 105.397 122.537 106.106 122.249 106.802C121.961 107.498 121.639 108.178 121.284 108.842C120.929 109.506 120.542 110.152 120.124 110.778C119.705 111.404 119.257 112.009 118.779 112.591C118.301 113.173 117.796 113.731 117.263 114.264C116.731 114.796 116.173 115.301 115.591 115.779C115.009 116.257 114.404 116.705 113.778 117.124C113.152 117.542 112.506 117.929 111.842 118.284C111.178 118.639 110.498 118.961 109.802 119.249C109.106 119.538 108.397 119.791 107.677 120.01C106.956 120.229 106.226 120.411 105.487 120.558C104.748 120.705 104.004 120.815 103.254 120.889C102.505 120.963 101.753 121 101 121H23C22.247 121 21.495 120.963 20.746 120.889C19.996 120.815 19.252 120.705 18.513 120.558C17.774 120.411 17.044 120.229 16.323 120.01C15.603 119.791 14.894 119.538 14.198 119.249C13.502 118.961 12.822 118.639 12.158 118.284C11.494 117.929 10.848 117.542 10.222 117.124C9.59599 116.705 8.991 116.257 8.409 115.779C7.827 115.301 7.269 114.796 6.737 114.264C6.20399 113.731 5.69901 113.173 5.22099 112.591C4.743 112.009 4.295 111.404 3.87601 110.778C3.45799 110.152 3.071 109.506 2.716 108.842C2.36099 108.178 2.039 107.498 1.75101 106.802C1.463 106.106 1.209 105.397 0.990005 104.677C0.772003 103.956 0.589005 103.226 0.442001 102.487C0.294998 101.748 0.184998 101.004 0.110992 100.254C0.0370026 99.5049 0 98.7529 0 98Z" fill="white"/>
<path d="M56.318 38.6739V43.922H58.865V38.6739H56.318ZM42.262 26.631C41.487 24.298 38.812 22.6139 36.072 22.6813C33.552 22.7433 30.911 24.5533 30.351 26.631H42.262ZM29.675 29.3639C29.656 31.8522 31.08 34.1862 33.318 35.2633C35.783 36.4484 38.174 36.2203 40.354 34.5709C42.051 33.2882 42.888 31.5289 42.93 29.3639H29.675ZM29.642 72.5392V73.4C29.642 76.6681 29.666 79.9381 29.622 83.2052C29.613 83.84 29.448 84.526 29.168 85.0963C26.985 89.5411 24.756 93.963 22.543 98.3942C22.397 98.6852 22.264 98.983 22.09 99.3531C23.583 100.249 25.042 101.124 26.499 101.998C26.601 101.871 26.661 101.812 26.703 101.743C29.839 96.6539 32.977 91.566 36.101 86.4694C36.268 86.1959 36.372 85.858 36.414 85.5392C36.709 83.317 36.988 81.0919 37.245 78.8654C37.273 78.629 37.205 78.2672 37.043 78.1432C34.617 76.277 32.167 74.442 29.642 72.5392ZM61.576 38.6603C61.576 40.8351 61.583 42.9342 61.573 45.0343C61.568 46.1261 61.085 46.6154 60.006 46.6232C58.371 46.6349 56.736 46.6373 55.101 46.6222C54.112 46.6119 53.616 46.1173 53.597 45.1403C53.579 44.1969 53.593 43.255 53.593 42.3131V38.7101H48.317V54.5543H66.833V38.6603H61.576ZM61.632 57.2711H60.577C56.17 57.2711 51.763 57.2731 47.356 57.2701C46.053 57.2692 45.612 56.8273 45.611 55.5231C45.607 52.1139 45.632 48.7052 45.601 45.297C45.568 41.5612 42.673 38.6891 38.931 38.6471C37.296 38.628 35.661 38.6412 34.025 38.6442C29.809 38.65 26.987 41.4659 26.983 45.6783C26.978 50.3063 26.978 54.9352 26.982 59.5631C26.986 64.713 29.066 68.819 33.188 71.903C37.869 75.4049 42.534 78.9283 47.227 82.4132C47.964 82.9601 48.295 83.5611 48.289 84.5001C48.252 90.1813 48.271 95.8629 48.271 101.545V102.458H53.555C53.571 102.3 53.59 102.193 53.59 102.086C53.592 94.5753 53.598 87.0641 53.573 79.5533C53.572 79.215 53.358 78.817 53.125 78.5519C50.285 75.3282 47.433 72.1163 44.563 68.92C43.593 67.84 42.497 66.8429 42.995 65.1969C39.103 64.0553 37.443 61.151 37.597 57.4571C37.734 54.1652 37.626 50.8619 37.626 47.5631V46.6891H40.287V47.6622C40.287 51.2921 40.273 54.923 40.293 58.5543C40.305 60.8009 41.992 62.5641 44.2 62.5812C48.69 62.6139 53.18 62.608 57.67 62.5821C59.506 62.5709 61.035 61.3219 61.435 59.527C61.589 58.837 61.565 58.1071 61.632 57.2711ZM26.482 105.172C24.388 103.889 22.295 102.603 20.197 101.326C18.848 100.505 18.719 100.097 19.413 98.7062C21.814 93.9039 24.225 89.107 26.605 84.295C26.827 83.8453 26.962 83.3019 26.965 82.8019C26.993 78.4791 26.991 74.1549 26.966 69.8321C26.964 69.3883 26.836 68.8981 26.62 68.5113C25.101 65.7931 24.32 62.8912 24.32 59.778C24.32 55.0392 24.298 50.2999 24.327 45.5612C24.352 41.443 26.269 38.506 29.99 36.7443C30.09 36.6969 30.184 36.6393 30.566 36.4303C30.244 36.2413 29.967 36.1442 29.777 35.9581C27.054 33.2882 26.239 29.276 27.69 25.7662C29.127 22.2882 32.587 19.9982 36.377 20.0172C40.104 20.0343 43.53 22.34 44.901 25.8541C45.166 26.5323 45.491 26.7003 46.153 26.6813C47.702 26.6393 49.253 26.6681 50.868 26.6681V29.3121H45.639C45.524 32.2369 44.406 34.6251 42.288 36.465L45.611 38.5831C45.611 38.1871 45.596 37.7882 45.614 37.3912C45.655 36.5079 46.142 36.0299 47.028 35.984C47.166 35.9772 47.305 35.9821 47.444 35.9821C54.206 35.9821 60.968 35.9811 67.73 35.9821C69.144 35.9821 69.559 36.3971 69.559 37.8121C69.561 43.6881 69.561 49.5631 69.559 55.4381C69.559 56.8531 69.143 57.2672 67.731 57.2711C66.651 57.274 65.57 57.277 64.489 57.2833C64.439 57.2833 64.389 57.3131 64.277 57.3502C64.246 58.0382 64.276 58.757 64.172 59.4562C63.663 62.8981 60.947 65.235 57.447 65.2511C53.817 65.2662 50.186 65.254 46.556 65.254H45.412C45.679 65.8043 45.792 66.2613 46.068 66.5753C49.199 70.131 52.346 73.6739 55.512 77.1993C56.026 77.7701 56.269 78.3541 56.267 79.1329C56.246 87.17 56.244 95.2071 56.269 103.244C56.271 104.055 56.096 104.7 55.422 105.172H46.441C45.766 104.702 45.59 104.058 45.594 103.247C45.622 97.2682 45.614 91.2892 45.597 85.3102C45.596 84.986 45.525 84.5299 45.31 84.361C43.529 82.963 41.707 81.6193 39.803 80.1881C39.734 80.587 39.672 80.8751 39.635 81.1652C39.426 82.8112 39.257 84.464 38.996 86.1022C38.899 86.7081 38.681 87.3361 38.362 87.86C35.109 93.1959 31.828 98.5172 28.54 103.832C28.242 104.313 27.836 104.727 27.48 105.172H26.482Z" fill="#00CDBF"/>
<path d="M87.37 43.5469C90.651 44.6968 94.164 43.1572 95.576 40.0391C96.997 36.9028 95.767 33.189 92.75 31.502C89.742 29.8208 85.946 30.7319 84.006 33.6021C82.192 36.2832 82.608 40.148 84.947 42.0098C86.192 41.2598 86.747 40.086 86.895 38.6992H89.509C89.474 40.6221 88.698 42.1651 87.37 43.5469ZM74.915 63.9111C79.954 63.9111 84.911 63.9341 89.867 63.8931C90.994 63.8838 91.925 63.292 92.637 62.4048C93.332 61.541 93.537 60.5371 93.517 59.4483C93.489 57.853 93.51 56.2559 93.51 54.6748H96.218C95.878 57.98 97.061 61.46 94.589 64.1929C96.907 66.5161 99.184 68.7979 101.441 71.0611V46.627C98.401 46.627 95.413 46.6211 92.426 46.6289C89.877 46.6348 88.2 48.3018 88.189 50.836C88.181 52.832 88.19 54.8262 88.187 56.8208C88.184 58.1729 87.753 58.6001 86.39 58.6011C82.871 58.604 79.352 58.6021 75.833 58.6021H74.915V63.9111ZM87.098 46.377C80.583 44.2168 79.022 37.7598 81.049 33.437C83.194 28.8599 88.568 26.7569 93.159 28.7471C95.477 29.751 97.179 31.418 98.109 33.7588C99.596 37.502 98.782 40.8838 96.16 43.8989H101.449V22.728H77.601V55.8731H85.462C85.842 52.627 84.654 49.2041 87.098 46.377ZM77.601 66.585V102.447H101.493C101.493 93.437 101.496 84.4888 101.48 75.543C101.48 75.3008 101.349 75 101.179 74.8281C98.351 71.9751 95.511 69.1338 92.656 66.3081C92.502 66.1558 92.183 66.0801 91.957 66.106C90.785 66.2412 89.62 66.542 88.449 66.563C84.852 66.625 81.253 66.585 77.601 66.585ZM75.713 105.172C75.037 104.701 74.866 104.056 74.867 103.244C74.889 91.3799 74.882 79.5171 74.882 67.6528V66.583C74.406 66.583 73.998 66.6011 73.593 66.5791C72.757 66.5332 72.238 66.0459 72.231 65.211C72.21 62.5781 72.21 59.9448 72.231 57.312C72.238 56.4771 72.758 55.9922 73.594 55.9468C73.98 55.9258 74.369 55.9429 74.882 55.9429V54.9551C74.882 43.9502 74.882 32.9458 74.882 21.9409C74.882 20.4019 75.263 20.0161 76.781 20.0161C85.263 20.0152 93.745 20.0239 102.226 20C103.038 19.9981 103.684 20.1699 104.155 20.8472V105.172H75.713Z" fill="#00CDBF"/>
<rect x="50.9755" y="49.3242" width="2.55896" height="2.57373" fill="#00CDBF"/>
</svg>
