<svg width="111" height="112" viewBox="0 0 111 112" fill="none" xmlns="http://www.w3.org/2000/svg">
<path d="M61.141 63.9929V57.0271H54.177V63.9929H61.141ZM70.078 99.523C72.331 99.523 74.584 99.534 76.836 99.5191C78.121 99.51 78.909 98.8421 78.933 97.7971C78.959 96.7119 78.149 96.0039 76.804 96.001C72.335 95.99 67.866 95.991 63.396 96.001C62.045 96.0039 61.238 96.6919 61.249 97.7749C61.259 98.854 62.064 99.5139 63.429 99.521C65.645 99.531 67.862 99.523 70.078 99.523ZM70.079 85.3311C72.332 85.3311 74.585 85.3421 76.838 85.3269C78.126 85.3181 78.91 84.6531 78.933 83.605C78.958 82.5149 78.154 81.8159 76.804 81.813C72.335 81.802 67.865 81.803 63.395 81.812C62.04 81.815 61.239 82.4981 61.249 83.585C61.259 84.667 62.061 85.322 63.429 85.3279C65.646 85.3391 67.862 85.3311 70.079 85.3311ZM70.054 92.449C72.126 92.449 74.197 92.4519 76.269 92.4461C76.631 92.4451 76.996 92.4319 77.354 92.385C78.321 92.2591 78.847 91.6699 78.925 90.7229C79 89.824 78.372 89.128 77.369 88.938C77.086 88.885 76.792 88.874 76.503 88.874C72.214 88.8689 67.926 88.866 63.637 88.878C63.207 88.8799 62.647 88.8401 62.377 89.0791C61.903 89.4981 61.293 90.136 61.322 90.6489C61.354 91.2219 61.963 91.8411 62.463 92.2759C62.732 92.51 63.298 92.439 63.73 92.4419C65.838 92.4561 67.946 92.449 70.054 92.449ZM70.122 78.26V78.2539C72.412 78.2539 74.703 78.2881 76.991 78.24C78.196 78.2151 78.946 77.4619 78.942 76.4661C78.937 75.471 78.18 74.784 76.98 74.689C76.835 74.677 76.689 74.6831 76.544 74.6831C72.255 74.6831 67.966 74.679 63.677 74.688C63.282 74.689 62.871 74.718 62.494 74.826C61.434 75.1311 60.936 76.2981 61.438 77.2661C61.865 78.0901 62.637 78.2561 63.471 78.2581C65.688 78.263 67.905 78.26 70.122 78.26ZM54.13 74.75V76.055C54.13 83.034 54.13 90.013 54.131 96.992C54.131 99.6089 54.111 102.226 54.143 104.843C54.163 106.516 55.18 107.83 56.696 108.243C58.134 108.634 59.361 108.247 60.343 107.148C61.458 105.901 61.219 104.372 61.127 102.893C61.119 102.754 60.828 102.616 60.649 102.508C57.561 100.649 56.831 97.7471 58.649 94.7051C58.799 94.4529 58.793 93.9461 58.637 93.698C57.356 91.6709 57.353 89.6841 58.622 87.6509C58.781 87.397 58.815 86.8841 58.663 86.646C57.347 84.5869 57.334 82.564 58.663 80.513C58.796 80.3069 58.924 79.909 58.822 79.77C57.717 78.2671 57.424 76.617 57.927 74.75H54.13ZM18.52 99.4781V71.2271H13.398V99.4781H18.52ZM50.587 35.8321C48.556 35.701 47.087 37.135 47.028 39.326C46.961 41.7949 46.991 44.2681 47.028 46.7381C47.033 47.0891 47.225 47.5181 47.473 47.773C49.169 49.5191 50.888 51.2439 52.638 52.9361C52.915 53.2019 53.383 53.3989 53.766 53.4051C56.346 53.4461 58.927 53.449 61.507 53.4031C61.923 53.396 62.432 53.189 62.731 52.9009C64.46 51.2381 66.144 49.5301 67.826 47.8201C68.04 47.6021 68.294 47.2871 68.296 47.0149C68.316 44.2549 68.394 41.4881 68.236 38.7351C68.131 36.8899 66.467 35.636 64.779 35.887C64.779 37.4671 64.643 39.076 64.812 40.6509C65.035 42.721 64.397 44.2671 62.77 45.552C62.16 46.032 61.642 46.3401 60.853 46.314C59.219 46.261 57.57 46.1699 55.95 46.3321C54.079 46.52 52.705 45.9551 51.514 44.501C50.901 43.753 50.525 43.105 50.563 42.1111C50.641 40.0171 50.587 37.918 50.587 35.8321ZM75.483 68.3269C85.127 60.9109 88.588 47.5271 83.93 35.583C79.445 24.083 67.293 16.843 54.583 18.1011C42.44 19.302 32.105 28.844 29.8 40.9619C27.493 53.084 33.502 64.1931 40.849 69.003C41.71 68.168 42.528 67.377 43.329 66.6011C30.257 57.0979 30.063 39.6841 39.34 29.562C48.564 19.4971 64.311 18.7881 74.526 28.1101C84.727 37.4209 85.825 54.9419 73.733 65.2801C74.312 66.2881 74.882 67.281 75.483 68.3269ZM44.033 78.72C46.354 76.4021 48.654 74.1341 50.912 71.826C51.413 71.313 51.922 71.126 52.626 71.1289C58.263 71.1541 63.9 71.1599 69.537 71.1179C70.143 71.114 70.926 70.9351 71.3 70.533C71.66 70.145 71.804 69.315 71.673 68.7671C71.451 67.8321 70.599 67.6089 69.685 67.6101C62.629 67.6201 55.574 67.604 48.519 67.6421C48.049 67.645 47.478 67.9231 47.131 68.2561C45.167 70.148 43.281 72.1211 41.307 74.001C40.916 74.375 40.255 74.6489 39.715 74.6531C34.334 74.701 28.951 74.6819 23.569 74.6819H22.261V94.2271H23.492C27.711 94.2271 31.93 94.2 36.148 94.2591C36.717 94.2671 37.397 94.575 37.825 94.9651C39.219 96.24 40.512 97.624 41.864 98.9461C42.109 99.1851 42.443 99.489 42.74 99.4939C45.312 99.5381 47.886 99.5191 50.504 99.5191V77.126C49.035 78.6411 47.782 79.9319 46.57 81.1809C45.711 80.3479 44.932 79.5921 44.033 78.72ZM54.131 32.002C54.131 35.282 54.139 38.2981 54.126 41.313C54.121 42.3059 54.562 42.7801 55.566 42.7671C56.985 42.749 58.404 42.752 59.823 42.7661C60.789 42.7759 61.204 42.2949 61.199 41.3601C61.189 39.7591 61.197 38.158 61.197 36.5581V32.114C62.49 32.114 63.648 32.0491 64.796 32.126C69.11 32.416 71.813 35.2871 71.846 39.5869C71.867 42.388 71.877 45.19 71.824 47.99C71.815 48.469 71.572 49.0459 71.244 49.397C69.929 50.805 68.645 52.2781 67.147 53.4729C65.198 55.0281 64.45 56.866 64.745 59.3211C64.928 60.8469 64.779 62.4141 64.779 64.062C66.029 64.062 67.116 64.095 68.199 64.0481C68.72 64.0249 69.328 63.992 69.739 63.7229C76.664 59.1751 80.309 50.0969 78.512 41.981C75.836 29.897 64.065 22.6709 52.11 25.773C43.772 27.938 37.22 35.562 36.498 44.1431C35.879 51.4871 38.508 57.542 43.916 62.5471C45.954 64.4331 48.178 64.0349 50.586 64.0149C50.586 61.534 50.623 59.1751 50.558 56.8191C50.544 56.3081 50.288 55.689 49.934 55.3191C47.997 53.2959 45.981 51.3501 44.03 49.3401C43.738 49.0391 43.494 48.544 43.487 48.136C43.442 45.2261 43.426 42.315 43.474 39.4051C43.531 35.8911 45.634 33.063 48.888 32.3799C50.533 32.0349 52.268 32.1221 54.131 32.002ZM37.485 71.094C22.301 58.2261 22.549 36.8721 34.524 24.345C45.799 12.552 64.534 10.7649 77.844 21.6221C84.605 27.136 88.577 34.344 89.39 43.022C90.445 54.283 86.452 63.658 77.739 71.187C79.976 71.6201 81.427 72.7451 82.18 74.701C82.95 76.7029 82.262 78.479 81.237 80.2229C81.486 80.1941 81.625 80.1441 81.719 80.0501C84.976 76.7739 88.237 73.501 91.463 70.1941C91.651 70.001 91.686 69.461 91.56 69.1919C90.791 67.5471 89.911 65.9541 89.17 64.2981C88.969 63.8469 88.964 63.179 89.14 62.7129C89.883 60.7461 90.7 58.805 91.558 56.885C91.736 56.4851 92.141 56.0559 92.542 55.907C94.275 55.26 96.057 54.739 97.793 54.0991C98.088 53.99 98.441 53.52 98.443 53.2141C98.485 48.6321 98.462 44.0491 98.485 39.4661C98.488 38.8921 98.295 38.638 97.76 38.469C95.994 37.9121 94.232 37.336 92.496 36.6931C92.123 36.555 91.738 36.166 91.575 35.7959C90.708 33.8401 89.879 31.866 89.115 29.867C88.949 29.4309 88.952 28.802 89.142 28.3811C89.888 26.7271 90.717 25.1079 91.564 23.502C91.833 22.991 91.77 22.6851 91.365 22.2849C88.135 19.085 84.916 15.8731 81.724 12.635C81.273 12.177 80.931 12.178 80.406 12.4519C78.829 13.2749 77.214 14.0281 75.642 14.8611C75.074 15.1621 74.643 15.159 74.041 14.8841C72.129 14.0081 70.156 13.2671 68.235 12.408C67.838 12.23 67.414 11.8279 67.265 11.43C66.626 9.73196 66.065 8.00295 65.522 6.27102C65.342 5.69802 65.08 5.47707 64.452 5.48098C59.941 5.50906 55.43 5.51199 50.919 5.47903C50.235 5.47414 49.97 5.74197 49.782 6.34011C49.248 8.03713 48.708 9.73391 48.073 11.395C47.912 11.8181 47.45 12.2371 47.024 12.43C45.14 13.281 43.203 14.0149 41.319 14.8689C40.738 15.1321 40.31 15.2019 39.722 14.885C38.123 14.0249 36.471 13.2639 34.862 12.4231C34.36 12.1609 34.042 12.21 33.64 12.616C30.44 15.8469 27.226 19.063 23.992 22.2591C23.545 22.701 23.516 23.0459 23.796 23.5801C24.639 25.189 25.466 26.8081 26.219 28.459C26.393 28.843 26.382 29.4241 26.227 29.825C25.456 31.8211 24.635 33.8001 23.765 35.7539C23.588 36.1521 23.177 36.573 22.776 36.7229C21.076 37.357 19.345 37.9099 17.614 38.4551C17.047 38.6341 16.823 38.9051 16.827 39.5349C16.857 44.0449 16.86 48.555 16.825 53.065C16.819 53.76 17.089 54 17.695 54.188C19.394 54.7129 21.089 55.261 22.748 55.898C23.172 56.0611 23.591 56.523 23.784 56.951C24.621 58.801 25.326 60.711 26.181 62.553C26.506 63.2539 26.529 63.7671 26.138 64.4431C24.892 66.6021 23.721 68.804 22.463 71.094H37.485ZM56.547 111.951C54.299 111.313 52.302 110.241 51.387 107.99C50.883 106.75 50.763 105.333 50.617 103.98C50.542 103.28 50.369 103.045 49.66 103.054C47.041 103.088 44.42 103.096 41.802 103.041C41.321 103.03 40.741 102.792 40.39 102.464C38.958 101.121 37.604 99.6941 36.201 98.3201C35.958 98.0821 35.616 97.7881 35.318 97.7859C30.995 97.751 26.672 97.762 22.219 97.762V102.985H9.854V67.615H10.984C13.786 67.615 16.588 67.596 19.389 67.628C20.045 67.636 20.378 67.4021 20.773 66.865C22.345 64.729 22.778 62.6521 21.282 60.2219C20.753 59.3631 20.344 58.7451 19.348 58.451C17.332 57.857 15.353 57.138 13.312 56.4551V48.125C13.312 44.4871 13.332 40.8491 13.294 37.211C13.286 36.4451 13.471 36.0491 14.259 35.8181C16.106 35.2771 17.908 34.5879 19.752 34.0371C20.498 33.814 20.923 33.419 21.126 32.689C21.262 32.201 21.395 31.678 21.675 31.271C22.687 29.7981 22.5 28.4461 21.589 26.9781C20.769 25.656 20.131 24.2161 19.486 22.794C19.351 22.4981 19.393 21.9099 19.601 21.7C24.177 17.0681 28.787 12.471 33.476 7.78201C35.475 8.77908 37.495 9.75002 39.474 10.794C40.18 11.167 40.788 11.281 41.49 10.8479C41.888 10.6021 42.325 10.3501 42.776 10.2681C44.681 9.91799 45.496 8.67996 45.896 6.89602C46.212 5.48611 46.802 4.13796 47.236 2.75295C47.408 2.20608 47.635 1.93313 48.289 1.93606C54.548 1.96413 60.806 1.96096 67.064 1.93899C67.639 1.93801 67.9 2.13406 68.068 2.66311C68.65 4.49709 69.31 6.30691 69.856 8.1509C70.117 9.03005 70.501 9.65701 71.457 9.8301C71.737 9.87991 72.032 9.98806 72.263 10.1509C74.122 11.4619 75.847 11.085 77.634 9.91506C78.751 9.18411 80.006 8.6509 81.236 8.11404C81.527 7.98708 82.102 8.06496 82.319 8.27908C86.797 12.7019 91.249 17.1499 95.67 21.6299C95.9 21.8631 95.972 22.499 95.827 22.813C94.957 24.6909 93.966 26.5139 93.102 28.3941C92.907 28.8159 92.945 29.4221 93.068 29.8941C93.229 30.5181 93.694 31.0681 93.825 31.6931C94.157 33.2681 95.098 34.034 96.633 34.4051C98.216 34.7891 99.731 35.4419 101.294 35.9151C101.86 36.086 102.019 36.367 102.018 36.9241C102.003 43.1809 101.998 49.438 102.024 55.6951C102.027 56.3401 101.769 56.5701 101.212 56.7471C99.309 57.3531 97.428 58.0301 95.521 58.625C94.876 58.825 94.452 59.1101 94.266 59.7971C94.096 60.4241 93.877 61.0659 93.535 61.6111C92.738 62.8821 92.779 64.023 93.583 65.315C94.425 66.666 94.997 68.1809 95.777 69.574C96.18 70.292 96.016 70.7041 95.475 71.2439C91.356 75.357 87.226 79.461 83.202 83.666C82.339 84.5681 81.875 85.8601 81.276 86.9981C81.204 87.135 81.406 87.4529 81.534 87.6509C82.834 89.667 82.819 91.6609 81.548 93.6961C81.385 93.9571 81.417 94.5091 81.588 94.783C83.85 98.416 81.606 102.881 77.326 103.024C73.619 103.147 69.905 103.061 66.193 103.067C65.765 103.068 65.337 103.067 64.848 103.067C64.8 103.866 64.788 104.55 64.713 105.228C64.32 108.739 62.542 110.812 59.124 111.778C58.988 111.816 58.861 111.892 58.73 111.951H56.547Z" fill="#00C2B5"/>
<path d="M105.617 108.388C106.539 108.36 107.341 107.531 107.331 106.615C107.322 105.626 106.486 104.855 105.478 104.906C104.514 104.954 103.804 105.733 103.842 106.7C103.88 107.647 104.688 108.415 105.617 108.388ZM104.579 111.951C104.282 111.828 103.988 111.697 103.688 111.582C101.272 110.655 99.883 108.17 100.37 105.641C100.848 103.155 103.004 101.343 105.528 101.306C108.093 101.269 110.335 103.163 110.807 105.766C111.251 108.21 109.82 110.683 107.441 111.587C107.139 111.702 106.843 111.829 106.544 111.951H104.579Z" fill="#00C2B5"/>
<path d="M7.94705 5.48999C7.93502 4.54907 7.14205 3.75098 6.21603 3.74902C5.30404 3.74609 4.47805 4.55908 4.45803 5.479C4.43801 6.46607 5.25503 7.26807 6.25802 7.24292C7.22103 7.21802 7.96005 6.45093 7.94705 5.48999ZM0.889002 5.52588C0.88003 2.65088 3.26004 0.239015 6.14401 0.198976C9.06204 0.158937 11.5251 2.58106 11.536 5.5C11.547 8.39893 9.05801 10.874 6.17001 10.835C3.28402 10.7971 0.898036 8.39795 0.889002 5.52588Z" fill="#00C2B5"/>
</svg>
