<svg width="115" height="115" viewBox="0 0 115 115" fill="none" xmlns="http://www.w3.org/2000/svg">
<path d="M62.2521 64.7945V57.8286H55.2881V64.7945H62.2521ZM71.1891 100.324C73.4421 100.324 75.6951 100.335 77.9471 100.321C79.2321 100.312 80.0201 99.6436 80.0441 98.5987C80.0701 97.5135 79.2601 96.8054 77.9151 96.8025C73.4461 96.7915 68.9771 96.7925 64.5071 96.8025C63.1561 96.8054 62.3491 97.4934 62.3601 98.5764C62.3701 99.6555 63.1751 100.315 64.5401 100.323C66.7561 100.333 68.9731 100.324 71.1891 100.324ZM71.1901 86.1326C73.4431 86.1326 75.6961 86.1436 77.9491 86.1284C79.2371 86.1197 80.0211 85.4546 80.0441 84.4065C80.0691 83.3164 79.2651 82.6175 77.9151 82.6145C73.4461 82.6035 68.9761 82.6045 64.5061 82.6135C63.1511 82.6165 62.3501 83.2996 62.3601 84.3865C62.3701 85.4685 63.1721 86.1236 64.5401 86.1294C66.7571 86.1406 68.9731 86.1326 71.1901 86.1326ZM71.1651 93.2505C73.2371 93.2505 75.3081 93.2534 77.3801 93.2476C77.7421 93.2466 78.1071 93.2334 78.4651 93.1865C79.4321 93.0606 79.9581 92.4715 80.0361 91.5244C80.1111 90.6255 79.4831 89.9295 78.4801 89.7395C78.1971 89.6865 77.9031 89.6756 77.6141 89.6756C73.3251 89.6704 69.0371 89.6675 64.7481 89.6795C64.3181 89.6814 63.7581 89.6416 63.4881 89.8806C63.0141 90.2996 62.4041 90.9375 62.4331 91.4505C62.4651 92.0235 63.0741 92.6426 63.5741 93.0774C63.8431 93.3115 64.4091 93.2405 64.8411 93.2434C66.9491 93.2576 69.0571 93.2505 71.1651 93.2505ZM71.2331 79.0615V79.0554C73.5231 79.0554 75.8141 79.0896 78.1021 79.0415C79.3071 79.0166 80.0571 78.2635 80.0531 77.2676C80.0481 76.2725 79.2911 75.5855 78.0911 75.4905C77.9461 75.4785 77.8001 75.4846 77.6551 75.4846C73.3661 75.4846 69.0771 75.4805 64.7881 75.4895C64.3931 75.4905 63.9821 75.5196 63.6051 75.6275C62.5451 75.9326 62.0471 77.0996 62.5491 78.0676C62.9761 78.8916 63.7481 79.0576 64.5821 79.0596C66.7991 79.0645 69.0161 79.0615 71.2331 79.0615ZM55.2411 75.5515V76.8565C55.2411 83.8355 55.2411 90.8145 55.2421 97.7935C55.2421 100.41 55.2221 103.028 55.2541 105.645C55.2741 107.318 56.2911 108.632 57.8071 109.044C59.2451 109.436 60.4721 109.049 61.4541 107.949C62.5691 106.702 62.3301 105.174 62.2381 103.695C62.2301 103.555 61.9391 103.418 61.7601 103.31C58.6721 101.45 57.9421 98.5486 59.7601 95.5066C59.9101 95.2544 59.9041 94.7476 59.7481 94.4995C58.4671 92.4724 58.4641 90.4856 59.7331 88.4524C59.8921 88.1985 59.9261 87.6856 59.7741 87.4475C58.4581 85.3885 58.4451 83.3655 59.7741 81.3145C59.9071 81.1084 60.0351 80.7105 59.9331 80.5716C58.8281 79.0686 58.5351 77.4185 59.0381 75.5515H55.2411ZM19.6311 100.28V72.0286H14.5091V100.28H19.6311ZM51.6981 36.6336C49.6671 36.5025 48.1981 37.9365 48.1391 40.1275C48.0721 42.5965 48.1021 45.0696 48.1391 47.5396C48.1441 47.8906 48.3361 48.3196 48.5841 48.5745C50.2801 50.3206 51.9991 52.0454 53.7491 53.7376C54.0261 54.0034 54.4941 54.2005 54.8771 54.2066C57.4571 54.2476 60.0381 54.2505 62.6181 54.2046C63.0341 54.1975 63.5431 53.9905 63.8421 53.7024C65.5711 52.0396 67.2551 50.3316 68.9371 48.6216C69.1511 48.4036 69.4051 48.0886 69.4071 47.8164C69.4271 45.0564 69.5051 42.2896 69.3471 39.5366C69.2421 37.6914 67.5781 36.4375 65.8901 36.6885C65.8901 38.2686 65.7541 39.8775 65.9231 41.4524C66.1461 43.5225 65.5081 45.0686 63.8811 46.3535C63.2711 46.8335 62.7531 47.1416 61.9641 47.1155C60.3301 47.0625 58.6811 46.9715 57.0611 47.1336C55.1901 47.3216 53.8161 46.7566 52.6251 45.3025C52.0121 44.5545 51.6361 43.9065 51.6741 42.9126C51.7521 40.8186 51.6981 38.7195 51.6981 36.6336ZM76.5941 69.1284C86.2381 61.7124 89.6991 48.3286 85.0411 36.3845C80.5561 24.8845 68.4041 17.6446 55.6941 18.9026C43.5511 20.1035 33.2161 29.6455 30.9111 41.7635C28.6041 53.8855 34.6131 64.9947 41.9601 69.8045C42.8211 68.9695 43.6391 68.1785 44.4401 67.4026C31.3681 57.8994 31.1741 40.4856 40.4511 30.3635C49.6751 20.2986 65.4221 19.5896 75.6371 28.9116C85.8381 38.2224 86.9361 55.7434 74.8441 66.0816C75.4231 67.0896 75.9931 68.0825 76.5941 69.1284ZM45.1441 79.5215C47.4651 77.2036 49.7651 74.9356 52.0231 72.6275C52.5241 72.1145 53.0331 71.9275 53.7371 71.9304C59.3741 71.9556 65.0111 71.9614 70.6481 71.9195C71.2541 71.9156 72.0371 71.7366 72.4111 71.3345C72.7711 70.9466 72.9151 70.1165 72.7841 69.5686C72.5621 68.6336 71.7101 68.4104 70.7961 68.4116C63.7401 68.4217 56.6851 68.4055 49.6301 68.4436C49.1601 68.4466 48.5891 68.7246 48.2421 69.0576C46.2781 70.9495 44.3921 72.9226 42.4181 74.8025C42.0271 75.1765 41.3661 75.4505 40.8261 75.4546C35.4451 75.5025 30.0621 75.4834 24.6801 75.4834H23.3721V95.0286H24.6031C28.8221 95.0286 33.0411 95.0015 37.2591 95.0606C37.8281 95.0686 38.5081 95.3765 38.9361 95.7666C40.3301 97.0415 41.6231 98.4256 42.9751 99.7476C43.2201 99.9866 43.5541 100.291 43.8511 100.295C46.4231 100.34 48.9971 100.321 51.6151 100.321V77.9275C50.1461 79.4426 48.8931 80.7334 47.6811 81.9824C46.8221 81.1494 46.0431 80.3936 45.1441 79.5215ZM55.2421 32.8035C55.2421 36.0835 55.2501 39.0996 55.2371 42.1145C55.2321 43.1074 55.6731 43.5816 56.6771 43.5686C58.0961 43.5506 59.5151 43.5535 60.9341 43.5676C61.9001 43.5774 62.3151 43.0965 62.3101 42.1616C62.3001 40.5606 62.3081 38.9595 62.3081 37.3596V32.9156C63.6011 32.9156 64.7591 32.8506 65.9071 32.9275C70.2211 33.2176 72.9241 36.0886 72.9571 40.3885C72.9781 43.1895 72.9881 45.9915 72.9351 48.7915C72.9261 49.2705 72.6831 49.8474 72.3551 50.1985C71.0401 51.6065 69.7561 53.0796 68.2581 54.2744C66.3091 55.8296 65.5611 57.6675 65.8561 60.1226C66.0391 61.6485 65.8901 63.2156 65.8901 64.8635C67.1401 64.8635 68.2271 64.8965 69.3101 64.8496C69.8311 64.8264 70.4391 64.7935 70.8501 64.5244C77.7751 59.9766 81.4201 50.8985 79.6231 42.7825C76.9471 30.6985 65.1761 23.4724 53.2211 26.5745C44.8831 28.7395 38.3311 36.3635 37.6091 44.9446C36.9901 52.2886 39.6191 58.3435 45.0271 63.3487C47.0651 65.2346 49.2891 64.8364 51.6971 64.8164C51.6971 62.3355 51.7341 59.9766 51.6691 57.6206C51.6551 57.1096 51.3991 56.4905 51.0451 56.1206C49.1081 54.0974 47.0921 52.1516 45.1411 50.1416C44.8491 49.8406 44.6051 49.3455 44.5981 48.9375C44.5531 46.0276 44.5371 43.1165 44.5851 40.2066C44.6421 36.6926 46.7451 33.8645 49.9991 33.1814C51.6441 32.8364 53.3791 32.9236 55.2421 32.8035ZM38.5961 71.8955C23.4121 59.0276 23.6601 37.6736 35.6351 25.1465C46.9101 13.3535 65.6451 11.5664 78.9551 22.4236C85.7161 27.9375 89.6881 35.1455 90.5011 43.8235C91.5561 55.0845 87.5631 64.4595 78.8501 71.9885C81.0871 72.4217 82.5381 73.5467 83.2911 75.5025C84.0611 77.5044 83.3731 79.2805 82.3481 81.0244C82.5971 80.9956 82.7361 80.9456 82.8301 80.8516C86.0871 77.5755 89.3481 74.3025 92.5741 70.9956C92.7621 70.8025 92.7971 70.2625 92.6711 69.9934C91.9021 68.3487 91.0221 66.7556 90.2811 65.0996C90.0801 64.6485 90.0751 63.9805 90.2511 63.5144C90.9941 61.5476 91.8111 59.6065 92.6691 57.6865C92.8471 57.2866 93.2521 56.8574 93.6531 56.7085C95.3861 56.0615 97.1681 55.5406 98.9041 54.9007C99.1991 54.7915 99.5521 54.3216 99.5541 54.0156C99.5961 49.4336 99.5731 44.8506 99.5961 40.2676C99.5991 39.6936 99.4061 39.4395 98.8711 39.2705C97.1051 38.7136 95.3431 38.1375 93.6071 37.4947C93.2341 37.3565 92.8491 36.9676 92.6861 36.5974C91.8191 34.6416 90.9901 32.6675 90.2261 30.6685C90.0601 30.2324 90.0631 29.6035 90.2531 29.1826C90.9991 27.5286 91.8281 25.9094 92.6751 24.3035C92.9441 23.7925 92.8811 23.4866 92.4761 23.0864C89.2461 19.8865 86.0271 16.6746 82.8351 13.4365C82.3841 12.9785 82.0421 12.9795 81.5171 13.2534C79.9401 14.0764 78.3251 14.8296 76.7531 15.6626C76.1851 15.9636 75.7541 15.9605 75.1521 15.6856C73.2401 14.8096 71.2671 14.0686 69.3461 13.2095C68.9491 13.0315 68.5251 12.6294 68.3761 12.2315C67.7371 10.5335 67.1761 8.80447 66.6331 7.07253C66.4531 6.49954 66.1911 6.27859 65.5631 6.28249C61.0521 6.31057 56.5411 6.3135 52.0301 6.28054C51.3461 6.27566 51.0811 6.54348 50.8931 7.14162C50.3591 8.83865 49.8191 10.5354 49.1841 12.1966C49.0231 12.6197 48.5611 13.0386 48.1351 13.2315C46.2511 14.0825 44.3141 14.8164 42.4301 15.6704C41.8491 15.9336 41.4211 16.0034 40.8331 15.6865C39.2341 14.8264 37.5821 14.0655 35.9731 13.2246C35.4711 12.9624 35.1531 13.0115 34.7511 13.4175C31.5511 16.6485 28.3371 19.8645 25.1031 23.0606C24.6561 23.5025 24.6271 23.8474 24.9071 24.3816C25.7501 25.9905 26.5771 27.6096 27.3301 29.2605C27.5041 29.6446 27.4931 30.2256 27.3381 30.6265C26.5671 32.6226 25.7461 34.6016 24.8761 36.5554C24.6991 36.9536 24.2881 37.3745 23.8871 37.5244C22.1871 38.1585 20.4561 38.7114 18.7251 39.2566C18.1581 39.4356 17.9341 39.7066 17.9381 40.3364C17.9681 44.8465 17.9711 49.3565 17.9361 53.8665C17.9301 54.5615 18.2001 54.8015 18.8061 54.9895C20.5051 55.5144 22.2001 56.0625 23.8591 56.6995C24.2831 56.8626 24.7021 57.3245 24.8951 57.7525C25.7321 59.6026 26.4371 61.5125 27.2921 63.3545C27.6171 64.0554 27.6401 64.5686 27.2491 65.2447C26.0031 67.4036 24.8321 69.6055 23.5741 71.8955H38.5961ZM57.6581 112.752C55.4101 112.115 53.4131 111.043 52.4981 108.792C51.9941 107.552 51.8741 106.135 51.7281 104.782C51.6531 104.082 51.4801 103.846 50.7711 103.855C48.1521 103.889 45.5311 103.897 42.9131 103.843C42.4321 103.832 41.8521 103.594 41.5011 103.266C40.0691 101.923 38.7151 100.496 37.3121 99.1216C37.0691 98.8836 36.7271 98.5896 36.4291 98.5874C32.1061 98.5525 27.7831 98.5635 23.3301 98.5635V103.787H10.9651V68.4165H12.0951C14.8971 68.4165 17.6991 68.3975 20.5001 68.4295C21.1561 68.4375 21.4891 68.2036 21.8841 67.6665C23.4561 65.5305 23.8891 63.4536 22.3931 61.0235C21.8641 60.1646 21.4551 59.5467 20.4591 59.2525C18.4431 58.6585 16.4641 57.9395 14.4231 57.2566V48.9265C14.4231 45.2886 14.4431 41.6507 14.4051 38.0125C14.3971 37.2466 14.5821 36.8506 15.3701 36.6197C17.2171 36.0786 19.0191 35.3894 20.8631 34.8386C21.6091 34.6155 22.0341 34.2205 22.2371 33.4905C22.3731 33.0025 22.5061 32.4795 22.7861 32.0725C23.7981 30.5996 23.6111 29.2476 22.7001 27.7796C21.8801 26.4575 21.2421 25.0176 20.5971 23.5955C20.4621 23.2996 20.5041 22.7114 20.7121 22.5015C25.2881 17.8697 29.8981 13.2725 34.5871 8.58352C36.5861 9.58059 38.6061 10.5515 40.5851 11.5955C41.2911 11.9685 41.8991 12.0825 42.6011 11.6494C42.9991 11.4036 43.4361 11.1516 43.8871 11.0696C45.7921 10.7195 46.6071 9.48147 47.0071 7.69753C47.3231 6.28762 47.9131 4.93948 48.3471 3.55447C48.5191 3.00759 48.7461 2.73464 49.4001 2.73757C55.6591 2.76565 61.9171 2.76247 68.1751 2.7405C68.7501 2.73953 69.0111 2.93557 69.1791 3.46462C69.7611 5.29861 70.4211 7.10842 70.9671 8.95242C71.2281 9.83157 71.6121 10.4585 72.5681 10.6316C72.8481 10.6814 73.1431 10.7896 73.3741 10.9524C75.2331 12.2635 76.9581 11.8865 78.7451 10.7166C79.8621 9.98562 81.1171 9.45242 82.3471 8.91555C82.6381 8.7886 83.2131 8.86648 83.4301 9.08059C87.9081 13.5034 92.3601 17.9514 96.7811 22.4314C97.0111 22.6646 97.0831 23.3006 96.9381 23.6145C96.0681 25.4925 95.0771 27.3155 94.2131 29.1956C94.0181 29.6175 94.0561 30.2237 94.1791 30.6956C94.3401 31.3196 94.8051 31.8697 94.9361 32.4947C95.2681 34.0696 96.2091 34.8355 97.7441 35.2066C99.3271 35.5906 100.842 36.2434 102.405 36.7166C102.971 36.8875 103.13 37.1685 103.129 37.7256C103.114 43.9824 103.109 50.2395 103.135 56.4966C103.138 57.1416 102.88 57.3716 102.323 57.5486C100.42 58.1546 98.5391 58.8316 96.6321 59.4265C95.9871 59.6265 95.5631 59.9116 95.3771 60.5987C95.2071 61.2256 94.9881 61.8675 94.6461 62.4126C93.8491 63.6836 93.8901 64.8245 94.6941 66.1165C95.5361 67.4676 96.1081 68.9824 96.8881 70.3755C97.2911 71.0935 97.1271 71.5056 96.5861 72.0454C92.4671 76.1585 88.3371 80.2625 84.3131 84.4676C83.4501 85.3697 82.9861 86.6616 82.3871 87.7996C82.3151 87.9365 82.5171 88.2544 82.6451 88.4524C83.9451 90.4685 83.9301 92.4624 82.6591 94.4976C82.4961 94.7586 82.5281 95.3106 82.6991 95.5845C84.9611 99.2176 82.7171 103.683 78.4371 103.825C74.7301 103.949 71.0161 103.863 67.3041 103.868C66.8761 103.87 66.4481 103.868 65.9591 103.868C65.9111 104.668 65.8991 105.352 65.8241 106.03C65.4311 109.541 63.6531 111.614 60.2351 112.58C60.0991 112.617 59.9721 112.694 59.8411 112.752H57.6581Z" fill="#00C2B5"/>
<path d="M106.728 109.189C107.65 109.162 108.452 108.333 108.442 107.417C108.433 106.428 107.597 105.657 106.589 105.708C105.625 105.756 104.915 106.534 104.953 107.502C104.991 108.449 105.799 109.217 106.728 109.189ZM105.69 112.752C105.393 112.629 105.099 112.499 104.799 112.384C102.383 111.457 100.994 108.971 101.481 106.443C101.959 103.957 104.115 102.145 106.639 102.107C109.204 102.071 111.446 103.965 111.918 106.568C112.362 109.012 110.931 111.485 108.552 112.388C108.25 112.503 107.954 112.631 107.655 112.752H105.69Z" fill="#00C2B5"/>
<path d="M9.05807 6.2915C9.04605 5.35059 8.25308 4.55249 7.32705 4.55054C6.41506 4.54761 5.58908 5.3606 5.56906 6.28052C5.54904 7.26758 6.36605 8.06958 7.36904 8.04443C8.33206 8.01953 9.07107 7.25244 9.05807 6.2915ZM2.00003 6.32739C1.99105 3.45239 4.37106 1.04053 7.25503 1.00049C10.1731 0.96045 12.6361 3.38257 12.6471 6.30151C12.658 9.20044 10.169 11.6755 7.28103 11.6365C4.39504 11.5986 2.00906 9.19946 2.00003 6.32739Z" fill="#00C2B5"/>
<rect x="5.62427" y="34.7434" width="3.38306" height="3.41968" fill="#00C2B5"/>
<rect x="104.972" y="75.552" width="3.43878" height="3.43945" fill="#00C2B5"/>
<rect x="5.58472" y="25.8948" width="3.42169" height="3.41626" fill="#00C2B5"/>
<rect x="104.967" y="84.425" width="3.44574" height="3.41357" fill="#00C2B5"/>
<rect x="5.59766" y="17.0105" width="3.43591" height="3.41626" fill="#00C2B5"/>
<rect x="104.982" y="93.3323" width="3.36487" height="3.42822" fill="#00C2B5"/>
</svg>
