<svg width="125" height="125" viewBox="0 0 125 125" fill="none" xmlns="http://www.w3.org/2000/svg">
<path d="M0 98V28C0 27.2471 0.0370026 26.4951 0.110992 25.7461C0.184998 24.9961 0.294998 24.252 0.442001 23.5129C0.589005 22.7739 0.772003 22.0439 0.990005 21.323C1.209 20.603 1.463 19.894 1.75101 19.198C2.039 18.502 2.36099 17.822 2.716 17.158C3.071 16.4939 3.45799 15.8479 3.87601 15.2219C4.295 14.595 4.743 13.991 5.22099 13.4089C5.69901 12.8269 6.20399 12.269 6.737 11.7371C7.269 11.2041 7.827 10.699 8.409 10.2209C8.991 9.74292 9.59599 9.29492 10.222 8.87598C10.848 8.45801 11.494 8.07104 12.158 7.71606C12.822 7.36108 13.502 7.03906 14.198 6.75098C14.894 6.46191 15.603 6.20898 16.323 5.98999C17.044 5.77197 17.774 5.58911 18.513 5.44189C19.252 5.29492 19.996 5.18506 20.746 5.11108C21.495 5.03711 22.247 5 23 5H101C101.753 5 102.505 5.03711 103.254 5.11108C104.004 5.18506 104.748 5.29492 105.487 5.44189C106.226 5.58911 106.956 5.77197 107.677 5.98999C108.397 6.20898 109.106 6.46191 109.802 6.75098C110.498 7.03906 111.178 7.36108 111.842 7.71606C112.506 8.07104 113.152 8.45801 113.778 8.87598C114.404 9.29492 115.009 9.74292 115.591 10.2209C116.173 10.699 116.731 11.2041 117.263 11.7371C117.796 12.269 118.301 12.8269 118.779 13.4089C119.257 13.991 119.705 14.595 120.124 15.2219C120.542 15.8479 120.929 16.4939 121.284 17.158C121.639 17.822 121.961 18.502 122.249 19.198C122.537 19.894 122.791 20.603 123.01 21.323C123.228 22.0439 123.411 22.7739 123.558 23.5129C123.705 24.252 123.815 24.9961 123.889 25.7461C123.963 26.4951 124 27.2471 124 28V98C124 98.7529 123.963 99.5049 123.889 100.254C123.815 101.004 123.705 101.748 123.558 102.487C123.411 103.226 123.228 103.956 123.01 104.677C122.791 105.397 122.537 106.106 122.249 106.802C121.961 107.498 121.639 108.178 121.284 108.842C120.929 109.506 120.542 110.152 120.124 110.778C119.705 111.404 119.257 112.009 118.779 112.591C118.301 113.173 117.796 113.731 117.263 114.264C116.731 114.796 116.173 115.301 115.591 115.779C115.009 116.257 114.404 116.705 113.778 117.124C113.152 117.542 112.506 117.929 111.842 118.284C111.178 118.639 110.498 118.961 109.802 119.249C109.106 119.538 108.397 119.791 107.677 120.01C106.956 120.229 106.226 120.411 105.487 120.558C104.748 120.705 104.004 120.815 103.254 120.889C102.505 120.963 101.753 121 101 121H23C22.247 121 21.495 120.963 20.746 120.889C19.996 120.815 19.252 120.705 18.513 120.558C17.774 120.411 17.044 120.229 16.323 120.01C15.603 119.791 14.894 119.538 14.198 119.249C13.502 118.961 12.822 118.639 12.158 118.284C11.494 117.929 10.848 117.542 10.222 117.124C9.59599 116.705 8.991 116.257 8.409 115.779C7.827 115.301 7.269 114.796 6.737 114.264C6.20399 113.731 5.69901 113.173 5.22099 112.591C4.743 112.009 4.295 111.404 3.87601 110.778C3.45799 110.152 3.071 109.506 2.716 108.842C2.36099 108.178 2.039 107.498 1.75101 106.802C1.463 106.106 1.209 105.397 0.990005 104.677C0.772003 103.956 0.589005 103.226 0.442001 102.487C0.294998 101.748 0.184998 101.004 0.110992 100.254C0.0370026 99.5049 0 98.7529 0 98Z" fill="white"/>
<path d="M79.417 94.2109V96.8451H82.139V94.2109H79.417ZM21.802 94.2177V96.853H27.275V94.2177H21.802ZM71.276 77.7489V80.371H79.026C78.797 79.457 78.582 78.6039 78.367 77.7489H71.276ZM60.234 94.2299H46.459V96.852H60.234V94.2299ZM46.41 69.9379V63.987H38.305V69.9279C39.552 69.309 40.698 68.7099 41.875 68.1769C42.148 68.0539 42.573 68.0539 42.846 68.1789C44.022 68.714 45.166 69.3168 46.41 69.9379ZM36.762 102.397C40.544 102.461 43.656 99.4301 43.727 95.6161C43.795 91.9369 40.743 88.7619 37.072 88.6918C33.207 88.6178 30.04 91.6298 29.987 95.4321C29.934 99.227 32.957 102.334 36.762 102.397ZM69.723 102.396C73.499 102.465 76.644 99.4072 76.693 95.6191C76.74 91.9179 73.712 88.7638 70.04 88.6918C66.172 88.6149 63.035 91.5942 62.945 95.4267C62.857 99.1767 65.921 102.327 69.723 102.396ZM94.539 85.05C96.548 82.34 98.551 79.8219 100.348 77.164C102.22 74.393 101.582 70.6298 99.068 68.413C96.565 66.205 92.796 66.1379 90.209 68.2548C87.58 70.4059 86.797 74.1799 88.655 77.0138C90.442 79.7399 92.5 82.287 94.539 85.05ZM39.621 49.341C41.677 46.5329 43.8 43.9318 45.583 41.1159C47.388 38.2648 46.465 34.498 43.782 32.4208C41.135 30.372 37.42 30.5419 34.945 32.8259C32.468 35.112 31.975 38.894 33.922 41.6679C35.716 44.225 37.642 46.6879 39.621 49.341ZM62.982 88.6298C63.105 88.603 63.172 88.6078 63.204 88.5768C67.864 84.141 75.405 85.5129 78.308 91.04C78.393 91.2021 78.625 91.3837 78.793 91.3901C79.755 91.4228 80.718 91.4057 81.729 91.4057C81.682 91.1098 81.666 90.9189 81.62 90.735C81.058 88.4799 80.465 86.2319 79.942 83.9679C79.803 83.3659 79.582 83.1689 78.959 83.1779C76.41 83.214 73.86 83.2079 71.31 83.1869C69.633 83.173 68.496 82.0509 68.439 80.3759C68.409 79.4899 68.406 78.601 68.44 77.716C68.503 76.113 69.582 75.03 71.179 74.9389C71.648 74.912 72.121 74.9318 72.592 74.9308C74.248 74.9308 75.903 74.9308 77.607 74.9308C77.56 74.62 77.542 74.402 77.492 74.1918C77.047 72.329 76.891 72.2079 74.97 72.2079H63.912H62.982V88.6298ZM76.654 58.9389C76.837 58.7409 76.995 58.5929 77.127 58.425C80.586 54.0258 84.054 49.6349 87.491 45.2199C89.406 42.7599 90.338 39.9499 90.413 36.8249C90.639 27.3639 81.406 20.4789 72.424 23.435C63.31 26.434 60.009 37.455 65.903 45.2438C67.14 46.8779 68.429 48.4728 69.695 50.0849C72.003 53.0219 74.311 55.9589 76.654 58.9389ZM60.175 63.9999H49.201V74.404C47.047 73.329 45.013 72.3339 43.002 71.2939C42.526 71.048 42.156 71.0558 41.694 71.3019C40.447 71.9618 39.177 72.5778 37.913 73.207C37.132 73.5949 36.347 73.976 35.436 74.423V63.987H24.538V91.4111C25.519 91.4111 26.456 91.3827 27.39 91.4208C27.949 91.4438 28.259 91.2709 28.557 90.757C32.287 84.342 41.408 84.3368 45.145 90.7428C45.432 91.2358 45.728 91.4281 46.303 91.4238C50.654 91.3988 55.004 91.412 59.355 91.4091C59.62 91.4081 59.885 91.3749 60.175 91.3549V63.9999ZM48.38 33.9008C50.032 38.0009 49.075 41.5199 46.44 44.8058C44.274 47.5048 42.267 50.332 40.188 53.101C40.011 53.3368 39.819 53.5619 39.587 53.851C37.787 51.4599 36.04 49.1398 34.243 46.7538C31.658 51.318 30.262 56.0519 30.057 61.2209H31.074H41.05C47.258 61.2209 53.466 61.2199 59.673 61.2218C61.967 61.2218 62.935 62.2028 62.938 64.5199C62.939 65.905 62.936 67.2909 62.941 68.6759C62.942 68.913 62.974 69.1488 62.996 69.4308H63.985C67.838 69.4308 71.69 69.425 75.542 69.434C77.952 69.4399 79.432 70.612 80.016 72.9528C80.645 75.476 81.266 78.0019 81.896 80.5248C82.31 82.1799 82.734 83.8329 83.221 85.748C84.515 84.2328 85.691 82.9169 86.797 81.5429C87.669 80.4599 87.63 80.4289 86.814 79.279C82.758 73.5619 85.607 65.85 92.39 64.2428C93.007 64.0959 93.163 63.8239 93.171 63.2399C93.218 59.8058 92.805 56.433 91.708 53.1769C91.052 51.2309 90.217 49.3459 89.395 47.2619C85.051 52.788 80.886 58.0839 76.68 63.434C72.144 57.6469 67.63 52.0329 63.285 46.29C60.609 42.7519 59.787 38.631 60.387 34.247C60.534 33.174 60.819 32.1188 61.051 31.006C56.612 31.1039 52.435 32.0229 48.38 33.9008ZM19 93.518C19.475 92.4628 20.135 91.6318 21.378 91.4408C21.52 91.4189 21.679 91.1698 21.731 90.997C21.794 90.7939 21.749 90.558 21.749 90.3359C21.749 81.8268 21.749 73.318 21.75 64.809C21.75 64.4489 21.743 64.0868 21.776 63.7289C21.909 62.2929 22.964 61.28 24.405 61.2328C25.34 61.2028 26.276 61.228 27.277 61.228C27.579 55.141 29.267 49.56 32.333 44.6178C31.624 43.111 30.779 41.779 30.355 40.3249C29.144 36.1769 30.985 31.8229 34.712 29.5968C38.377 27.4079 43.04 27.894 46.155 30.882C46.755 31.4579 47.172 31.443 47.852 31.144C52.22 29.227 56.798 28.259 61.572 28.2958C62.218 28.301 62.548 28.0829 62.883 27.558C66.563 21.7919 73.503 18.923 80.186 20.371C86.808 21.8068 91.989 27.3 92.98 33.987C93.52 37.6269 92.964 41.101 91.289 44.394C91.157 44.653 91.141 45.1049 91.279 45.3478C94.519 51.048 96.113 57.1508 95.865 63.7179C95.862 63.799 95.882 63.881 95.889 63.9318C96.865 64.278 97.861 64.53 98.768 64.9689C103.963 67.4819 105.741 74.017 102.573 78.8429C102.315 79.236 102.032 79.6139 101.749 79.9899C99.373 83.1589 96.994 86.3259 94.546 89.5859C92.821 87.2929 91.132 85.049 89.38 82.7209C89.151 83.0209 88.988 83.2709 88.788 83.488C87.342 85.0529 85.908 86.631 84.424 88.1598C84.066 88.529 83.924 88.8359 84.093 89.3149C84.933 91.7118 84.995 94.1947 84.92 96.6982C84.863 98.5878 83.798 99.6528 81.887 99.6708C81.804 99.6718 81.721 99.6708 81.638 99.6708C80.695 99.6718 79.636 99.4057 78.845 99.7519C78.128 100.066 77.718 101.06 77.148 101.734C75.682 103.468 73.826 104.545 71.6 104.992C71.416 105.029 71.239 105.104 71.059 105.16H68.564C68.494 105.119 68.428 105.053 68.353 105.04C65.235 104.498 62.924 102.83 61.346 100.092C61.214 99.8627 60.783 99.6899 60.489 99.6889C55.725 99.665 50.961 99.6811 46.197 99.6581C45.675 99.6557 45.434 99.8461 45.186 100.282C43.927 102.495 42.06 103.98 39.629 104.746C39.134 104.901 38.628 105.023 38.127 105.16H35.632C35.587 105.129 35.546 105.078 35.497 105.069C32.323 104.525 29.953 102.851 28.354 100.051C28.234 99.8407 27.829 99.6928 27.554 99.6879C25.865 99.6547 24.174 99.6152 22.488 99.6879C20.786 99.7612 19.593 99.1479 19 97.5097V93.518Z" fill="#00CDBF"/>
<rect x="57.4926" y="55.7842" width="2.67749" height="2.62036" fill="#00CDBF"/>
<rect x="52.0112" y="55.7986" width="2.67847" height="2.58105" fill="#00CDBF"/>
<rect x="62.9985" y="55.7991" width="2.67957" height="2.58057" fill="#00CDBF"/>
<path d="M84.907 36.4871C84.91 31.918 81.231 28.2451 76.666 28.261C72.143 28.2759 68.476 31.9221 68.438 36.4409C68.4 40.95 72.122 44.7019 76.661 44.73C81.186 44.759 84.904 41.041 84.907 36.4871ZM65.714 36.4939C65.712 30.4099 70.621 25.4951 76.698 25.498C82.752 25.5 87.693 30.457 87.68 36.5149C87.666 42.541 82.751 47.449 76.719 47.459C70.626 47.469 65.717 42.5769 65.714 36.4939Z" fill="#00CDBF"/>
<path d="M39.643 36.488C38.887 36.4619 38.265 37.0659 38.254 37.8359C38.244 38.5779 38.788 39.1731 39.521 39.22C40.27 39.269 40.927 38.6731 40.959 37.917C40.99 37.1589 40.396 36.512 39.643 36.488ZM39.601 41.967C37.33 41.9661 35.479 40.1221 35.478 37.8601C35.477 35.5979 37.326 33.7581 39.601 33.7571C41.88 33.7561 43.729 35.593 43.728 37.8589C43.727 40.1189 41.871 41.967 39.601 41.967Z" fill="#00CDBF"/>
<path d="M95.89 73.532C95.872 72.759 95.259 72.187 94.482 72.217C93.748 72.2461 93.184 72.8291 93.18 73.563C93.177 74.3301 93.778 74.9241 94.554 74.918C95.328 74.9121 95.909 74.311 95.89 73.532ZM98.662 73.5691C98.662 75.824 96.793 77.6951 94.542 77.696C92.292 77.696 90.423 75.824 90.422 73.5691C90.42 71.3159 92.29 69.4431 94.543 69.4419C96.791 69.4399 98.662 71.314 98.662 73.5691Z" fill="#00CDBF"/>
<path d="M69.796 96.8959C70.553 96.9081 71.18 96.3119 71.194 95.5678C71.208 94.8368 70.582 94.1957 69.842 94.183C69.103 94.1698 68.461 94.7851 68.446 95.5209C68.431 96.2641 69.04 96.8847 69.796 96.8959ZM73.92 95.5829C73.903 97.8559 72.052 99.683 69.781 99.665C67.516 99.6459 65.703 97.7919 65.717 95.5077C65.73 93.2338 67.597 91.393 69.857 91.4247C72.143 91.4569 73.936 93.2919 73.92 95.5829Z" fill="#00CDBF"/>
<path d="M36.816 94.1842C36.068 94.2042 35.449 94.8619 35.483 95.6012C35.518 96.357 36.162 96.9312 36.931 96.8931C37.662 96.856 38.23 96.254 38.22 95.5269C38.209 94.775 37.57 94.1632 36.816 94.1842ZM40.963 95.567C40.954 97.838 39.103 99.6749 36.834 99.6651C34.569 99.6549 32.745 97.8033 32.754 95.523C32.763 93.2442 34.61 91.4083 36.878 91.422C39.146 91.4371 40.971 93.2901 40.963 95.567Z" fill="#00CDBF"/>
</svg>
