<svg width="33" height="33" viewBox="0 0 33 33" fill="none" xmlns="http://www.w3.org/2000/svg">
<path d="M0 27V6C0 5.606 0.0379639 5.216 0.11499 4.83C0.192017 4.443 0.30603 4.068 0.457031 3.704C0.608032 3.34 0.791992 2.994 1.01099 2.667C1.22998 2.339 1.479 2.036 1.75696 1.757C2.03601 1.479 2.33899 1.23 2.66699 1.011C2.99402 0.792 3.33997 0.607002 3.70398 0.457001C4.06799 0.306 4.44299 0.192001 4.82898 0.114998C5.21594 0.0390015 5.60596 0 6 0H27C27.394 0 27.7841 0.0390015 28.171 0.114998C28.557 0.192001 28.932 0.306 29.296 0.457001C29.66 0.607002 30.006 0.792 30.333 1.011C30.661 1.23 30.964 1.479 31.243 1.757C31.521 2.036 31.77 2.339 31.989 2.667C32.208 2.994 32.392 3.34 32.543 3.704C32.694 4.068 32.808 4.443 32.885 4.83C32.962 5.216 33 5.606 33 6V27C33 27.394 32.962 27.784 32.885 28.17C32.808 28.557 32.694 28.932 32.543 29.296C32.392 29.66 32.208 30.006 31.989 30.333C31.77 30.661 31.521 30.964 31.243 31.243C30.964 31.521 30.661 31.77 30.333 31.989C30.006 32.208 29.66 32.393 29.296 32.543C28.932 32.694 28.557 32.808 28.171 32.885C27.7841 32.961 27.394 33 27 33H6C5.60596 33 5.21594 32.961 4.82898 32.885C4.44299 32.808 4.06799 32.694 3.70398 32.543C3.33997 32.393 2.99402 32.208 2.66699 31.989C2.33899 31.77 2.03601 31.521 1.75696 31.243C1.479 30.964 1.22998 30.661 1.01099 30.333C0.791992 30.006 0.608032 29.66 0.457031 29.296C0.30603 28.932 0.192017 28.557 0.11499 28.17C0.0379639 27.784 0 27.394 0 27Z" fill="white"/>
<path d="M19.516 16.7221H16.66C16.626 16.4501 16.609 16.1671 16.609 15.8721C16.609 15.5551 16.629 15.2511 16.668 14.9621C16.708 14.6731 16.785 14.4181 16.8979 14.1971C17.011 13.9771 17.17 13.8011 17.374 13.6701C17.578 13.5401 17.844 13.4751 18.173 13.4751C18.649 13.4751 19.111 13.5211 19.558 13.6111C20.006 13.7021 20.474 13.8381 20.9611 14.0191V11.8771C20.485 11.6501 19.995 11.5061 19.49 11.4431C18.986 11.3811 18.547 11.3501 18.173 11.3501C17.448 11.3501 16.839 11.4601 16.345 11.6821C15.853 11.9021 15.459 12.2111 15.1639 12.6081C14.869 13.0051 14.657 13.4801 14.526 14.0361C14.396 14.5911 14.3311 15.2031 14.3311 15.8721C14.3311 16.0641 14.337 16.2491 14.348 16.4241C14.359 16.6001 14.376 16.7731 14.399 16.9431C13.594 17.1361 12.9821 17.5131 12.563 18.0731C12.144 18.6341 11.928 19.4591 11.917 20.5471V20.5641V20.7681C11.917 21.5161 12.016 22.1391 12.214 22.6381C12.413 23.1371 12.705 23.5331 13.09 23.8281C13.475 24.1231 13.948 24.3301 14.51 24.4481C15.071 24.5671 15.714 24.6271 16.439 24.6271V22.5191C16.099 22.5191 15.782 22.4991 15.4871 22.4591C15.192 22.4201 14.937 22.3401 14.722 22.2221C14.507 22.1031 14.339 21.9381 14.22 21.7291C14.101 21.5191 14.042 21.2441 14.042 20.9041V20.6151C14.042 20.2861 14.101 20.0171 14.22 19.8081C14.339 19.5981 14.507 19.4341 14.722 19.3141C14.937 19.1951 15.189 19.1131 15.479 19.0681C15.767 19.0221 16.082 19.0001 16.422 19.0001H21.59L21.641 16.8071L19.516 16.7221Z" fill="#00344B"/>
</svg>
