<svg width="228" height="113" viewBox="0 0 228 113" fill="none" xmlns="http://www.w3.org/2000/svg">
<path d="M65.453 55.271V109.399C60.601 109.399 56.668 105.466 56.668 100.615V58.409C56.668 43.731 52.448 42.069 48.4 42.162C38.238 42.347 33.501 80.104 15.76 79.181C5.77 78.813 0 71.796 0 57.763V8.785C0 3.933 3.933 0 8.785 0V55.456C8.785 67.365 12.402 68.842 15.76 68.75C28.334 68.472 29.368 32.099 49.09 32.191C59.424 32.284 65.453 38.746 65.453 55.271Z" fill="white"/>
<path d="M74.879 88.2485V22.8818H84.6646L84.8489 88.2485H74.879Z" fill="white"/>
<path d="M116.884 89.1959C103.037 88.852 91.958 77.9999 92.235 65.0819C92.605 52.4219 103.867 42.3459 117.438 42.3459C128.055 42.3459 136.087 48.0289 140.518 56.4699L108.391 73.8659L104.237 67.1479L127.963 54.4889C125.655 51.9909 121.408 50.3549 116.884 50.5269C108.206 50.6989 101.837 57.7609 101.837 65.771C101.929 74.0379 109.222 80.8419 118.085 80.8419C125.378 80.7559 132.855 75.7609 133.133 67.2349L142.364 68.1819C140.98 81.0139 129.994 89.3679 116.884 89.1959Z" fill="white"/>
<path d="M173.385 89.1959C159.537 88.852 148.459 77.9999 148.736 65.0819C149.105 52.4219 160.368 42.3459 173.939 42.3459C184.555 42.3459 192.587 48.0289 197.018 56.4699L164.891 73.8659L160.737 67.1479L184.463 54.4889C182.155 51.9909 177.908 50.3549 173.385 50.5269C164.707 50.6989 158.337 57.7609 158.337 65.771C158.429 74.0379 165.722 80.8419 174.585 80.8419C181.878 80.7559 189.356 75.7609 189.633 67.2349L198.864 68.1819C197.48 81.0139 186.494 89.3679 173.385 89.1959Z" fill="white"/>
<path d="M227.397 79.292H226.737C224.429 79.292 220.921 79.55 218.521 77.569C216.12 75.675 215.936 74.21 215.936 71.368V51.819H227.397V42.862H215.751V31.752H206.334V73.091C206.334 76.363 207.35 79.636 209.75 82.564C213.535 87.56 218.89 88.334 225.26 88.334H227.397V79.292Z" fill="white"/>
<path d="M78.393 105.133H81.724L80.089 100.442H80.043L78.393 105.133ZM79.065 98.563H81.097L85.299 109.472H83.251L82.228 106.584H77.873L76.85 109.472H74.879L79.065 98.563Z" fill="white"/>
<path d="M93.029 109.472H91.318V108.372H91.287C91.073 108.769 90.755 109.087 90.332 109.326C89.91 109.565 89.479 109.686 89.042 109.686C88.003 109.686 87.251 109.429 86.788 108.914C86.324 108.4 86.093 107.623 86.093 106.584V101.573H87.835V106.416C87.835 107.108 87.967 107.598 88.232 107.883C88.496 108.168 88.868 108.311 89.347 108.311C89.714 108.311 90.019 108.254 90.264 108.142C90.508 108.03 90.707 107.88 90.86 107.691C91.012 107.503 91.122 107.276 91.188 107.012C91.254 106.747 91.287 106.462 91.287 106.156V101.573H93.029V109.472Z" fill="white"/>
<path d="M94.068 101.573H95.382V99.2051H97.124V101.573H98.697V102.872H97.124V107.088C97.124 107.271 97.131 107.43 97.147 107.562C97.162 107.694 97.198 107.807 97.254 107.898C97.309 107.99 97.394 108.059 97.506 108.104C97.618 108.15 97.77 108.173 97.964 108.173C98.086 108.173 98.208 108.17 98.331 108.165C98.453 108.16 98.575 108.143 98.697 108.112V109.456C98.503 109.477 98.315 109.497 98.132 109.518C97.949 109.538 97.76 109.548 97.567 109.548C97.108 109.548 96.739 109.505 96.459 109.418C96.179 109.332 95.96 109.204 95.802 109.036C95.644 108.868 95.537 108.657 95.481 108.402C95.425 108.147 95.392 107.857 95.382 107.531V102.872H94.068V101.573Z" fill="white"/>
<path d="M103.571 108.311C103.958 108.311 104.294 108.229 104.579 108.066C104.865 107.903 105.099 107.689 105.282 107.424C105.466 107.16 105.601 106.862 105.687 106.531C105.774 106.2 105.817 105.861 105.817 105.515C105.817 105.179 105.774 104.842 105.687 104.506C105.601 104.17 105.466 103.872 105.282 103.612C105.099 103.353 104.865 103.142 104.579 102.979C104.294 102.815 103.958 102.734 103.571 102.734C103.184 102.734 102.848 102.815 102.563 102.979C102.278 103.142 102.043 103.353 101.86 103.612C101.677 103.872 101.541 104.17 101.455 104.506C101.369 104.842 101.325 105.179 101.325 105.515C101.325 105.861 101.369 106.2 101.455 106.531C101.541 106.862 101.677 107.16 101.86 107.424C102.043 107.689 102.278 107.903 102.563 108.066C102.848 108.229 103.184 108.311 103.571 108.311ZM103.571 109.686C102.939 109.686 102.377 109.581 101.883 109.373C101.389 109.164 100.971 108.875 100.63 108.509C100.289 108.142 100.029 107.705 99.851 107.195C99.673 106.686 99.584 106.126 99.584 105.515C99.584 104.914 99.673 104.359 99.851 103.849C100.029 103.34 100.289 102.902 100.63 102.536C100.971 102.169 101.389 101.881 101.883 101.672C102.377 101.463 102.939 101.359 103.571 101.359C104.202 101.359 104.765 101.463 105.259 101.672C105.753 101.881 106.171 102.169 106.512 102.536C106.853 102.902 107.113 103.34 107.291 103.849C107.469 104.359 107.559 104.914 107.559 105.515C107.559 106.126 107.469 106.686 107.291 107.195C107.113 107.705 106.853 108.142 106.512 108.509C106.171 108.875 105.753 109.164 105.259 109.373C104.765 109.581 104.202 109.686 103.571 109.686Z" fill="white"/>
<path d="M109.01 101.573H110.66V102.673H110.706C110.838 102.479 110.981 102.301 111.134 102.138C111.286 101.976 111.457 101.838 111.645 101.726C111.834 101.614 112.05 101.524 112.295 101.458C112.539 101.392 112.819 101.359 113.135 101.359C113.614 101.359 114.059 101.466 114.472 101.68C114.884 101.894 115.177 102.225 115.35 102.673C115.645 102.266 115.987 101.945 116.374 101.71C116.761 101.476 117.245 101.359 117.826 101.359C118.661 101.359 119.31 101.563 119.773 101.97C120.237 102.378 120.469 103.06 120.469 104.018V109.472H118.727V104.857C118.727 104.542 118.717 104.254 118.696 103.994C118.676 103.734 118.617 103.511 118.521 103.322C118.424 103.134 118.278 102.989 118.085 102.887C117.891 102.785 117.627 102.734 117.291 102.734C116.7 102.734 116.272 102.917 116.007 103.284C115.742 103.65 115.61 104.17 115.61 104.842V109.472H113.868V104.399C113.868 103.849 113.769 103.434 113.571 103.154C113.372 102.874 113.007 102.734 112.478 102.734C112.254 102.734 112.037 102.78 111.829 102.872C111.62 102.963 111.437 103.096 111.279 103.269C111.12 103.442 110.994 103.656 110.897 103.91C110.8 104.165 110.752 104.456 110.752 104.781V109.472H109.01V101.573Z" fill="white"/>
<path d="M127.176 105.515C126.911 105.688 126.585 105.792 126.198 105.828C125.811 105.864 125.424 105.917 125.037 105.988C124.853 106.019 124.675 106.062 124.502 106.118C124.329 106.174 124.176 106.25 124.044 106.347C123.911 106.444 123.807 106.571 123.73 106.729C123.654 106.887 123.616 107.078 123.616 107.302C123.616 107.496 123.672 107.659 123.784 107.791C123.896 107.923 124.031 108.028 124.189 108.104C124.346 108.181 124.52 108.234 124.708 108.265C124.897 108.295 125.067 108.311 125.22 108.311C125.413 108.311 125.622 108.285 125.846 108.234C126.07 108.183 126.282 108.097 126.48 107.974C126.679 107.853 126.845 107.697 126.977 107.508C127.109 107.32 127.176 107.088 127.176 106.813V105.515ZM128.917 107.715C128.917 107.929 128.945 108.081 129.001 108.173C129.057 108.265 129.167 108.311 129.33 108.311H129.513C129.584 108.311 129.666 108.3 129.758 108.28V109.487C129.697 109.507 129.617 109.53 129.521 109.556C129.424 109.581 129.324 109.604 129.223 109.625C129.121 109.645 129.019 109.66 128.917 109.67C128.815 109.68 128.729 109.686 128.658 109.686C128.301 109.686 128.006 109.614 127.771 109.472C127.537 109.329 127.384 109.08 127.313 108.723C126.967 109.059 126.542 109.304 126.038 109.456C125.533 109.609 125.047 109.686 124.578 109.686C124.222 109.686 123.88 109.637 123.555 109.541C123.229 109.443 122.941 109.301 122.692 109.113C122.442 108.924 122.243 108.685 122.096 108.395C121.948 108.104 121.874 107.766 121.874 107.378C121.874 106.89 121.963 106.492 122.142 106.187C122.32 105.881 122.554 105.642 122.844 105.469C123.134 105.296 123.46 105.171 123.822 105.095C124.184 105.018 124.548 104.96 124.915 104.919C125.23 104.857 125.531 104.814 125.816 104.789C126.101 104.764 126.353 104.72 126.572 104.659C126.791 104.598 126.964 104.504 127.092 104.376C127.219 104.249 127.282 104.058 127.282 103.804C127.282 103.58 127.229 103.396 127.122 103.254C127.015 103.111 126.883 103.001 126.725 102.925C126.567 102.849 126.391 102.798 126.198 102.772C126.004 102.747 125.821 102.734 125.648 102.734C125.159 102.734 124.756 102.836 124.441 103.04C124.125 103.243 123.947 103.559 123.906 103.987H122.164C122.195 103.478 122.317 103.055 122.531 102.719C122.745 102.383 123.017 102.113 123.349 101.909C123.679 101.705 124.054 101.563 124.471 101.481C124.889 101.4 125.317 101.359 125.755 101.359C126.142 101.359 126.524 101.4 126.901 101.481C127.277 101.563 127.616 101.695 127.917 101.878C128.217 102.062 128.459 102.299 128.642 102.589C128.826 102.879 128.917 103.233 128.917 103.65V107.715Z" fill="white"/>
<path d="M130.002 101.573H131.316V99.2051H133.058V101.573H134.631V102.872H133.058V107.088C133.058 107.271 133.065 107.43 133.081 107.562C133.096 107.694 133.132 107.807 133.188 107.898C133.244 107.99 133.328 108.059 133.44 108.104C133.552 108.15 133.704 108.173 133.898 108.173C134.02 108.173 134.143 108.17 134.265 108.165C134.387 108.16 134.509 108.143 134.631 108.112V109.456C134.438 109.477 134.25 109.497 134.066 109.518C133.883 109.538 133.694 109.548 133.501 109.548C133.042 109.548 132.673 109.505 132.393 109.418C132.113 109.332 131.894 109.204 131.736 109.036C131.578 108.868 131.471 108.657 131.415 108.402C131.359 108.147 131.326 107.857 131.316 107.531V102.872H130.002V101.573Z" fill="white"/>
<path d="M135.93 101.573H137.672V109.472H135.93V101.573ZM135.93 98.563H137.672V100.213H135.93V98.563Z" fill="white"/>
<path d="M143.187 108.311C143.574 108.311 143.91 108.229 144.195 108.066C144.48 107.903 144.715 107.689 144.898 107.424C145.081 107.16 145.216 106.862 145.303 106.531C145.389 106.2 145.433 105.861 145.433 105.515C145.433 105.179 145.389 104.842 145.303 104.506C145.216 104.17 145.081 103.872 144.898 103.612C144.715 103.353 144.48 103.142 144.195 102.979C143.91 102.815 143.574 102.734 143.187 102.734C142.8 102.734 142.464 102.815 142.178 102.979C141.893 103.142 141.659 103.353 141.476 103.612C141.292 103.872 141.157 104.17 141.071 104.506C140.984 104.842 140.941 105.179 140.941 105.515C140.941 105.861 140.984 106.2 141.071 106.531C141.157 106.862 141.292 107.16 141.476 107.424C141.659 107.689 141.893 107.903 142.178 108.066C142.464 108.229 142.8 108.311 143.187 108.311ZM143.187 109.686C142.555 109.686 141.993 109.581 141.499 109.373C141.005 109.164 140.587 108.875 140.246 108.509C139.905 108.142 139.645 107.705 139.467 107.195C139.288 106.686 139.199 106.126 139.199 105.515C139.199 104.914 139.288 104.359 139.467 103.849C139.645 103.34 139.905 102.902 140.246 102.536C140.587 102.169 141.005 101.881 141.499 101.672C141.993 101.463 142.555 101.359 143.187 101.359C143.818 101.359 144.381 101.463 144.875 101.672C145.369 101.881 145.786 102.169 146.128 102.536C146.469 102.902 146.729 103.34 146.907 103.849C147.085 104.359 147.174 104.914 147.174 105.515C147.174 106.126 147.085 106.686 146.907 107.195C146.729 107.705 146.469 108.142 146.128 108.509C145.786 108.875 145.369 109.164 144.875 109.373C144.381 109.581 143.818 109.686 143.187 109.686Z" fill="white"/>
<path d="M148.626 101.573H150.276V102.734L150.306 102.765C150.571 102.327 150.918 101.983 151.345 101.733C151.773 101.484 152.247 101.359 152.766 101.359C153.632 101.359 154.315 101.583 154.814 102.031C155.312 102.479 155.562 103.151 155.562 104.048V109.472H153.821V104.506C153.8 103.885 153.668 103.434 153.423 103.154C153.179 102.874 152.797 102.734 152.278 102.734C151.982 102.734 151.717 102.787 151.483 102.895C151.249 103.001 151.05 103.149 150.887 103.337C150.724 103.526 150.597 103.748 150.505 104.002C150.413 104.257 150.368 104.527 150.368 104.812V109.472H148.626V101.573Z" fill="white"/>
<path d="M161.887 98.5635H163.797V107.821H169.343V109.472H161.887V98.5635Z" fill="white"/>
<path d="M174.033 108.311C174.42 108.311 174.756 108.229 175.042 108.066C175.327 107.903 175.561 107.689 175.744 107.424C175.928 107.16 176.063 106.862 176.149 106.531C176.236 106.2 176.279 105.861 176.279 105.515C176.279 105.179 176.236 104.842 176.149 104.506C176.063 104.17 175.928 103.872 175.744 103.612C175.561 103.353 175.327 103.142 175.042 102.979C174.756 102.815 174.42 102.734 174.033 102.734C173.646 102.734 173.31 102.815 173.025 102.979C172.74 103.142 172.505 103.353 172.322 103.612C172.139 103.872 172.004 104.17 171.917 104.506C171.831 104.842 171.787 105.179 171.787 105.515C171.787 105.861 171.831 106.2 171.917 106.531C172.004 106.862 172.139 107.16 172.322 107.424C172.505 107.689 172.74 107.903 173.025 108.066C173.31 108.229 173.646 108.311 174.033 108.311ZM174.033 109.686C173.402 109.686 172.839 109.581 172.345 109.373C171.851 109.164 171.433 108.875 171.092 108.509C170.751 108.142 170.491 107.705 170.313 107.195C170.135 106.686 170.046 106.126 170.046 105.515C170.046 104.914 170.135 104.359 170.313 103.849C170.491 103.34 170.751 102.902 171.092 102.536C171.433 102.169 171.851 101.881 172.345 101.672C172.839 101.463 173.402 101.359 174.033 101.359C174.665 101.359 175.227 101.463 175.721 101.672C176.215 101.881 176.633 102.169 176.974 102.536C177.315 102.902 177.575 103.34 177.753 103.849C177.932 104.359 178.021 104.914 178.021 105.515C178.021 106.126 177.932 106.686 177.753 107.195C177.575 107.705 177.315 108.142 176.974 108.509C176.633 108.875 176.215 109.164 175.721 109.373C175.227 109.581 174.665 109.686 174.033 109.686Z" fill="white"/>
<path d="M182.91 108.097C183.297 108.097 183.625 108.018 183.896 107.859C184.165 107.702 184.384 107.493 184.552 107.233C184.721 106.974 184.843 106.678 184.919 106.347C184.995 106.016 185.034 105.683 185.034 105.347C185.034 105.011 184.993 104.685 184.911 104.369C184.83 104.053 184.705 103.773 184.537 103.528C184.369 103.284 184.15 103.09 183.88 102.948C183.61 102.805 183.287 102.734 182.91 102.734C182.523 102.734 182.197 102.815 181.932 102.979C181.667 103.142 181.453 103.353 181.291 103.612C181.128 103.872 181.01 104.168 180.939 104.499C180.868 104.83 180.832 105.158 180.832 105.484C180.832 105.81 180.873 106.128 180.954 106.439C181.036 106.75 181.161 107.027 181.329 107.271C181.497 107.516 181.711 107.715 181.97 107.867C182.23 108.021 182.543 108.097 182.91 108.097ZM186.775 109.059C186.775 110.251 186.442 111.14 185.775 111.725C185.107 112.311 184.148 112.604 182.895 112.604C182.498 112.604 182.098 112.563 181.695 112.481C181.293 112.399 180.926 112.262 180.595 112.069C180.264 111.875 179.987 111.621 179.763 111.305C179.539 110.989 179.406 110.602 179.365 110.144H181.107C181.158 110.388 181.245 110.587 181.367 110.74C181.489 110.893 181.634 111.012 181.802 111.099C181.97 111.185 182.156 111.241 182.36 111.267C182.564 111.292 182.778 111.305 183.002 111.305C183.705 111.305 184.219 111.132 184.545 110.785C184.871 110.439 185.034 109.94 185.034 109.288V108.081H185.003C184.759 108.52 184.425 108.86 184.002 109.105C183.58 109.35 183.124 109.472 182.635 109.472C182.004 109.472 181.466 109.362 181.023 109.143C180.58 108.924 180.214 108.624 179.923 108.242C179.633 107.859 179.421 107.419 179.289 106.92C179.157 106.421 179.09 105.886 179.09 105.316C179.09 104.786 179.172 104.282 179.335 103.804C179.498 103.325 179.732 102.904 180.038 102.543C180.344 102.182 180.718 101.894 181.161 101.68C181.604 101.466 182.105 101.359 182.666 101.359C183.164 101.359 183.623 101.463 184.041 101.672C184.458 101.881 184.779 102.209 185.003 102.658H185.034V101.573H186.775V109.059Z" fill="white"/>
<path d="M188.578 101.573H190.32V109.472H188.578V101.573ZM188.578 98.563H190.32V100.213H188.578V98.563Z" fill="white"/>
<path d="M193.528 106.936C193.579 107.445 193.773 107.802 194.109 108.005C194.445 108.208 194.847 108.311 195.316 108.311C195.478 108.311 195.665 108.298 195.873 108.272C196.082 108.247 196.278 108.198 196.462 108.127C196.645 108.056 196.795 107.952 196.912 107.814C197.029 107.677 197.083 107.496 197.073 107.271C197.062 107.048 196.981 106.864 196.828 106.722C196.675 106.579 196.479 106.464 196.24 106.378C196.001 106.292 195.728 106.217 195.423 106.156C195.117 106.095 194.806 106.029 194.491 105.958C194.165 105.886 193.851 105.8 193.551 105.698C193.25 105.597 192.98 105.459 192.741 105.286C192.502 105.112 192.311 104.891 192.169 104.621C192.026 104.351 191.955 104.018 191.955 103.62C191.955 103.192 192.059 102.833 192.268 102.543C192.476 102.253 192.741 102.019 193.062 101.84C193.383 101.662 193.74 101.537 194.131 101.466C194.524 101.395 194.898 101.359 195.255 101.359C195.662 101.359 196.052 101.402 196.423 101.489C196.795 101.575 197.131 101.716 197.432 101.909C197.732 102.103 197.982 102.354 198.18 102.666C198.379 102.976 198.504 103.351 198.555 103.788H196.736C196.655 103.371 196.464 103.09 196.164 102.948C195.863 102.805 195.519 102.734 195.132 102.734C195.01 102.734 194.865 102.744 194.697 102.765C194.529 102.785 194.371 102.823 194.223 102.879C194.075 102.936 193.951 103.017 193.849 103.124C193.747 103.23 193.696 103.371 193.696 103.543C193.696 103.757 193.77 103.931 193.918 104.063C194.065 104.196 194.259 104.305 194.498 104.392C194.737 104.479 195.01 104.552 195.316 104.613C195.621 104.674 195.937 104.741 196.263 104.812C196.578 104.883 196.889 104.97 197.195 105.071C197.5 105.174 197.773 105.311 198.012 105.484C198.251 105.657 198.445 105.876 198.593 106.141C198.74 106.406 198.814 106.732 198.814 107.119C198.814 107.587 198.708 107.984 198.493 108.311C198.28 108.637 198.002 108.901 197.661 109.105C197.319 109.309 196.94 109.456 196.522 109.548C196.105 109.64 195.692 109.686 195.285 109.686C194.786 109.686 194.325 109.629 193.902 109.518C193.48 109.405 193.113 109.235 192.802 109.005C192.492 108.776 192.247 108.491 192.069 108.15C191.891 107.809 191.797 107.404 191.786 106.936H193.528Z" fill="white"/>
<path d="M199.349 101.573H200.663V99.2051H202.405V101.573H203.978V102.872H202.405V107.088C202.405 107.271 202.412 107.43 202.428 107.562C202.443 107.694 202.479 107.807 202.535 107.898C202.59 107.99 202.675 108.059 202.787 108.104C202.899 108.15 203.051 108.173 203.245 108.173C203.367 108.173 203.49 108.17 203.612 108.165C203.734 108.16 203.856 108.143 203.978 108.112V109.456C203.785 109.477 203.596 109.497 203.413 109.518C203.23 109.538 203.041 109.548 202.848 109.548C202.389 109.548 202.02 109.505 201.74 109.418C201.46 109.332 201.241 109.204 201.083 109.036C200.925 108.868 200.818 108.657 200.762 108.402C200.706 108.147 200.673 107.857 200.663 107.531V102.872H199.349V101.573Z" fill="white"/>
<path d="M205.277 101.573H207.019V109.472H205.277V101.573ZM205.277 98.563H207.019V100.213H205.277V98.563Z" fill="white"/>
<path d="M214.245 104.216C214.174 103.727 213.978 103.358 213.657 103.108C213.336 102.859 212.931 102.734 212.442 102.734C212.218 102.734 211.979 102.772 211.724 102.849C211.469 102.925 211.235 103.068 211.022 103.276C210.808 103.485 210.629 103.775 210.487 104.147C210.344 104.519 210.273 105.005 210.273 105.606C210.273 105.933 210.311 106.258 210.388 106.584C210.464 106.91 210.586 107.2 210.754 107.455C210.922 107.709 211.138 107.916 211.403 108.073C211.668 108.231 211.989 108.311 212.366 108.311C212.875 108.311 213.295 108.152 213.627 107.837C213.957 107.521 214.164 107.078 214.245 106.508H215.987C215.824 107.536 215.434 108.323 214.818 108.868C214.202 109.413 213.384 109.686 212.366 109.686C211.745 109.686 211.197 109.581 210.724 109.373C210.25 109.164 209.85 108.878 209.524 108.517C209.198 108.155 208.951 107.725 208.783 107.226C208.615 106.727 208.531 106.187 208.531 105.606C208.531 105.016 208.613 104.46 208.776 103.941C208.938 103.422 209.183 102.971 209.509 102.589C209.835 102.207 210.24 101.907 210.724 101.688C211.207 101.469 211.775 101.359 212.427 101.359C212.886 101.359 213.321 101.417 213.734 101.535C214.146 101.652 214.513 101.828 214.833 102.062C215.154 102.296 215.416 102.592 215.62 102.948C215.824 103.305 215.946 103.727 215.987 104.216H214.245Z" fill="white"/>
<rect x="225.274" y="107.409" width="2.12378" height="2.0625" fill="white"/>
<path d="M219.287 106.936C219.338 107.445 219.531 107.802 219.867 108.005C220.204 108.208 220.606 108.311 221.075 108.311C221.237 108.311 221.423 108.298 221.632 108.272C221.841 108.247 222.037 108.198 222.22 108.127C222.404 108.056 222.554 107.952 222.671 107.814C222.788 107.677 222.842 107.496 222.832 107.271C222.821 107.048 222.74 106.864 222.587 106.722C222.434 106.579 222.238 106.464 221.999 106.378C221.76 106.292 221.487 106.217 221.182 106.156C220.876 106.095 220.565 106.029 220.25 105.958C219.923 105.886 219.61 105.8 219.31 105.698C219.009 105.597 218.739 105.459 218.5 105.286C218.261 105.112 218.07 104.891 217.927 104.621C217.784 104.351 217.713 104.018 217.713 103.62C217.713 103.192 217.818 102.833 218.026 102.543C218.235 102.253 218.5 102.019 218.821 101.84C219.142 101.662 219.498 101.537 219.89 101.466C220.282 101.395 220.657 101.359 221.014 101.359C221.421 101.359 221.81 101.402 222.182 101.489C222.554 101.575 222.89 101.716 223.19 101.909C223.491 102.103 223.74 102.354 223.939 102.666C224.138 102.976 224.262 103.351 224.313 103.788H222.495C222.414 103.371 222.223 103.09 221.922 102.948C221.622 102.805 221.278 102.734 220.891 102.734C220.769 102.734 220.624 102.744 220.456 102.765C220.288 102.785 220.13 102.823 219.982 102.879C219.834 102.936 219.709 103.017 219.608 103.124C219.506 103.23 219.455 103.371 219.455 103.543C219.455 103.757 219.529 103.931 219.677 104.063C219.824 104.196 220.018 104.305 220.257 104.392C220.496 104.479 220.769 104.552 221.075 104.613C221.38 104.674 221.696 104.741 222.022 104.812C222.337 104.883 222.648 104.97 222.954 105.071C223.259 105.174 223.531 105.311 223.771 105.484C224.01 105.657 224.204 105.876 224.352 106.141C224.499 106.406 224.573 106.732 224.573 107.119C224.573 107.587 224.466 107.984 224.252 108.311C224.039 108.637 223.761 108.901 223.42 109.105C223.078 109.309 222.699 109.456 222.281 109.548C221.864 109.64 221.451 109.686 221.044 109.686C220.545 109.686 220.084 109.629 219.661 109.518C219.239 109.405 218.872 109.235 218.561 109.005C218.25 108.776 218.006 108.491 217.828 108.15C217.65 107.809 217.555 107.404 217.545 106.936H219.287Z" fill="white"/>
</svg>
