<svg width="125" height="125" viewBox="0 0 125 125" fill="none" xmlns="http://www.w3.org/2000/svg">
<path d="M1 98V28C1 27.2471 1.03699 26.4951 1.11102 25.7461C1.185 24.9961 1.29498 24.252 1.44202 23.5132C1.58899 22.7739 1.77197 22.0439 1.98999 21.3232C2.20898 20.603 2.46301 19.894 2.75098 19.1982C3.039 18.502 3.36102 17.8218 3.716 17.1582C4.07098 16.4941 4.45801 15.8481 4.87598 15.2222C5.29498 14.5962 5.74298 13.9912 6.22101 13.4092C6.69897 12.8271 7.20398 12.269 7.737 11.7358C8.26898 11.2041 8.82703 10.6992 9.409 10.2212C9.99103 9.74316 10.596 9.29492 11.222 8.87598C11.848 8.45801 12.494 8.0708 13.158 7.71582C13.822 7.36084 14.502 7.03906 15.198 6.75098C15.894 6.46191 16.603 6.20898 17.323 5.99023C18.044 5.771 18.774 5.58887 19.513 5.44189C20.252 5.29492 20.996 5.18506 21.746 5.11084C22.495 5.03711 23.247 5 24 5H102C102.753 5 103.505 5.03711 104.254 5.11084C105.004 5.18506 105.748 5.29492 106.487 5.44189C107.226 5.58887 107.956 5.771 108.677 5.99023C109.397 6.20898 110.106 6.46191 110.802 6.75098C111.498 7.03906 112.178 7.36084 112.842 7.71582C113.506 8.0708 114.152 8.45801 114.778 8.87598C115.404 9.29492 116.009 9.74316 116.591 10.2212C117.173 10.6992 117.731 11.2041 118.263 11.7358C118.796 12.269 119.301 12.8271 119.779 13.4092C120.257 13.9912 120.705 14.5962 121.124 15.2222C121.542 15.8481 121.929 16.4941 122.284 17.1582C122.639 17.8218 122.961 18.502 123.249 19.1982C123.537 19.894 123.791 20.603 124.01 21.3232C124.228 22.0439 124.411 22.7739 124.558 23.5132C124.705 24.252 124.815 24.9961 124.889 25.7461C124.963 26.4951 125 27.2471 125 28V98C125 98.7529 124.963 99.5049 124.889 100.254C124.815 101.004 124.705 101.748 124.558 102.487C124.411 103.226 124.228 103.956 124.01 104.677C123.791 105.397 123.537 106.106 123.249 106.802C122.961 107.498 122.639 108.178 122.284 108.842C121.929 109.506 121.542 110.152 121.124 110.778C120.705 111.404 120.257 112.009 119.779 112.591C119.301 113.173 118.796 113.731 118.263 114.264C117.731 114.796 117.173 115.301 116.591 115.779C116.009 116.257 115.404 116.705 114.778 117.124C114.152 117.542 113.506 117.929 112.842 118.284C112.178 118.639 111.498 118.961 110.802 119.249C110.106 119.538 109.397 119.791 108.677 120.01C107.956 120.229 107.226 120.411 106.487 120.558C105.748 120.705 105.004 120.815 104.254 120.889C103.505 120.963 102.753 121 102 121H24C23.247 121 22.495 120.963 21.746 120.889C20.996 120.815 20.252 120.705 19.513 120.558C18.774 120.411 18.044 120.229 17.323 120.01C16.603 119.791 15.894 119.538 15.198 119.249C14.502 118.961 13.822 118.639 13.158 118.284C12.494 117.929 11.848 117.542 11.222 117.124C10.596 116.705 9.99103 116.257 9.409 115.779C8.82703 115.301 8.26898 114.796 7.737 114.264C7.20398 113.731 6.69897 113.173 6.22101 112.591C5.74298 112.009 5.29498 111.404 4.87598 110.778C4.45801 110.152 4.07098 109.506 3.716 108.842C3.36102 108.178 3.039 107.498 2.75098 106.802C2.46301 106.106 2.20898 105.397 1.98999 104.677C1.77197 103.956 1.58899 103.226 1.44202 102.487C1.29498 101.748 1.185 101.004 1.11102 100.254C1.03699 99.5049 1 98.7529 1 98Z" fill="white"/>
<path d="M63.329 103.765C69.656 103.765 75.983 103.766 82.31 103.762C82.664 103.762 83.024 103.767 83.37 103.705C84.101 103.575 84.516 103.107 84.562 102.371C84.609 101.6 84.254 101.051 83.493 100.852C83.128 100.757 82.734 100.739 82.353 100.74C78.984 100.753 75.614 100.799 72.245 100.796C63.435 100.787 54.626 100.754 45.816 100.74C44.992 100.739 44.154 100.729 43.347 100.864C42.577 100.992 42.229 101.598 42.275 102.368C42.319 103.105 42.734 103.574 43.465 103.705C43.811 103.767 44.171 103.762 44.525 103.762C50.793 103.766 57.061 103.765 63.329 103.765ZM72.326 97.6499C71.648 96.1841 70.851 94.7959 70.362 93.3081C69.873 91.8198 69.692 90.23 69.379 88.6982H57.321C57.083 91.9521 56.372 95.0068 54.229 97.6499H72.326ZM105.814 73.4058V72.48C105.814 56.8682 105.814 41.2559 105.813 25.645C105.813 23.1538 104.688 22.0371 102.169 22.0371C76.327 22.0352 50.484 22.0352 24.642 22.0381C22.141 22.0381 21.024 23.166 21.024 25.6699C21.023 41.2529 21.023 56.835 21.023 72.418V73.396H24.046V72.2729C24.046 57.312 24.046 42.3501 24.046 27.3882C24.046 25.4722 24.457 25.0649 26.397 25.0649C51.087 25.0649 75.776 25.0649 100.466 25.0649C102.384 25.0649 102.791 25.478 102.791 27.415C102.791 42.376 102.791 57.3369 102.791 72.2988V73.4058H105.814ZM21.115 76.6001C21.074 76.7178 21.039 76.771 21.038 76.8242C21.031 78.479 21.025 80.1338 21.024 81.7891C21.023 84.5361 22.089 85.6079 24.818 85.6079C50.562 85.6089 76.307 85.6089 102.051 85.6079C102.347 85.6079 102.643 85.6172 102.938 85.5962C104.398 85.4932 105.669 84.4448 105.747 82.9951C105.861 80.8828 105.777 78.7598 105.777 76.6001H21.115ZM99.707 73.3628V28.1528H27.117V73.3628H99.707ZM108.835 24.2251V83.48C107.735 87.626 104.825 88.707 101.374 88.667C92.152 88.561 82.929 88.6309 73.706 88.6309H72.531C72.67 89.6221 72.742 90.501 72.923 91.3579C73.777 95.4009 75.964 97.7808 80.355 97.7002C81.505 97.6782 82.67 97.6689 83.804 97.8242C86.874 98.2432 88.562 101.647 87.092 104.37C86.131 106.148 84.56 106.806 82.603 106.804C69.804 106.794 57.003 106.799 44.204 106.797C43.938 106.797 43.672 106.777 43.408 106.754C41.032 106.548 39.308 104.75 39.222 102.393C39.137 100.08 40.797 98.0752 43.149 97.811C44.495 97.6592 45.863 97.7109 47.221 97.6709C48.936 97.6211 50.49 97.1348 51.713 95.8799C53.657 93.8862 54.05 91.3501 54.256 88.6309H53.102C43.583 88.6309 34.065 88.6338 24.546 88.6289C20.543 88.626 18.004 86.0928 18.003 82.0952C17.999 63.2349 17.999 44.375 18.003 25.5161C18.004 21.564 20.509 19.0122 24.478 19.0088C50.432 18.9951 76.387 18.9941 102.341 19.0298C103.398 19.0322 104.523 19.293 105.497 19.7109C107.434 20.542 108.349 22.2549 108.835 24.2251Z" fill="#00CDBF"/>
<path d="M87.056 64.6869C86.978 64.5668 86.954 64.5111 86.913 64.4711C85.999 63.5487 85.082 62.6288 84.165 61.7089C82.786 60.3251 82.78 59.5917 84.132 58.2221C84.313 58.039 84.482 57.8427 84.747 57.5551C81.437 56.579 78.225 55.6308 74.833 54.6308C75.843 58.0438 76.789 61.2411 77.762 64.5238C77.983 64.3368 78.118 64.2348 78.24 64.1181C79.905 62.5111 80.695 62.5028 82.3 64.1327C83.18 65.0248 84.022 65.955 84.851 66.8349C85.678 66.0287 86.351 65.3739 87.056 64.6869ZM40.737 38.6127H80.018V34.2221H40.737V38.6127ZM80.031 41.7768H40.757V59.8319H73.148C72.488 57.6049 71.853 55.434 71.198 53.2689C70.975 52.5351 70.82 51.8251 71.454 51.2128C72.052 50.6371 72.729 50.7641 73.439 50.9789C75.627 51.643 77.824 52.2797 80.031 52.932V41.7768ZM86.651 59.9428C87.792 61.0761 88.863 62.1308 89.926 63.1967C91.067 64.3407 91.074 64.996 89.958 66.12C88.751 67.3358 87.542 68.5517 86.321 69.7548C85.37 70.6908 84.602 70.6898 83.652 69.7489C82.542 68.6488 81.453 67.5297 80.241 66.306C79.578 67.0009 78.987 67.6518 78.362 68.268C77.192 69.4188 75.981 69.1019 75.495 67.5209C75.105 66.2509 74.701 64.9848 74.373 63.7001C74.212 63.0687 73.928 62.8788 73.279 62.8837C69.082 62.9149 64.885 62.8998 60.688 62.8998C53.742 62.8998 46.796 62.9008 39.85 62.8998C38.157 62.8988 37.689 62.433 37.688 60.747C37.685 51.5839 37.683 42.4208 37.682 33.2587C37.682 31.5351 38.103 31.1 39.803 31.1C53.517 31.0971 67.231 31.0971 80.946 31.099C82.686 31.1 83.11 31.5419 83.11 33.3139C83.109 39.8168 83.121 46.3187 83.087 52.8207C83.082 53.621 83.239 54.038 84.094 54.224C85.33 54.494 86.534 54.914 87.746 55.289C89.311 55.7728 89.617 56.995 88.467 58.164C87.89 58.7509 87.291 59.3168 86.651 59.9428Z" fill="#00CDBF"/>
<path d="M63.51 79.5641C64.897 79.5641 66.284 79.5544 67.671 79.5671C68.787 79.5783 69.465 80.173 69.451 81.092C69.437 81.9679 68.765 82.5744 67.708 82.5812C64.846 82.5983 61.984 82.5983 59.122 82.5802C58.068 82.5744 57.395 81.9611 57.385 81.0861C57.375 80.1672 58.054 79.5783 59.173 79.5671C60.619 79.5553 62.065 79.5641 63.51 79.5641Z" fill="#00CDBF"/>
<path d="M55.792 50.8797H46.812V53.7708H55.792V50.8797ZM51.358 47.7738C53.247 47.7738 55.137 47.762 57.026 47.7777C58.327 47.7899 58.847 48.306 58.861 49.6097C58.88 51.411 58.881 53.2117 58.86 55.013C58.846 56.2918 58.291 56.847 57.011 56.8509C53.203 56.8636 49.395 56.8651 45.587 56.8499C44.317 56.845 43.748 56.265 43.736 54.9969C43.719 53.2557 43.726 51.514 43.733 49.7718C43.738 48.3079 44.246 47.785 45.689 47.7767C47.578 47.765 49.468 47.7738 51.358 47.7738Z" fill="#00CDBF"/>
</svg>
