<svg width="200" height="200" viewBox="0 0 200 200" fill="none" xmlns="http://www.w3.org/2000/svg">
<path opacity="0.2667" d="M100 157.305C101.637 157.305 103.272 157.309 104.907 157.316C106.542 157.324 108.173 157.335 109.802 157.349C111.431 157.364 113.055 157.382 114.673 157.403C116.292 157.425 117.904 157.451 119.509 157.48C121.114 157.508 122.711 157.541 124.298 157.578C125.885 157.613 127.462 157.653 129.029 157.696C130.595 157.739 132.148 157.786 133.689 157.835C135.23 157.886 136.756 157.939 138.268 157.996C139.78 158.052 141.276 158.112 142.755 158.176C144.235 158.239 145.696 158.305 147.14 158.376C148.583 158.445 150.007 158.518 151.41 158.595C152.814 158.671 154.196 158.75 155.557 158.833C156.918 158.915 158.255 159.001 159.57 159.089C160.884 159.177 162.174 159.269 163.44 159.363C164.704 159.457 165.944 159.553 167.155 159.653C168.368 159.753 169.553 159.855 170.711 159.96C171.868 160.065 172.996 160.172 174.095 160.282C175.194 160.392 176.262 160.504 177.301 160.619C178.34 160.733 179.346 160.85 180.321 160.97C181.296 161.089 182.238 161.209 183.147 161.333C184.056 161.456 184.932 161.582 185.773 161.708C186.614 161.836 187.421 161.965 188.192 162.096C188.963 162.226 189.699 162.359 190.399 162.493C191.099 162.627 191.761 162.763 192.388 162.9C193.014 163.036 193.603 163.175 194.154 163.314C194.706 163.454 195.219 163.595 195.694 163.737C196.169 163.879 196.606 164.022 197.003 164.166C197.401 164.309 197.759 164.454 198.078 164.6C198.398 164.745 198.677 164.891 198.918 165.037C199.157 165.185 199.358 165.331 199.519 165.479C199.679 165.627 199.799 165.775 199.879 165.922C199.959 166.071 200 166.219 200 166.367C200 166.515 199.959 166.664 199.879 166.811C199.799 166.96 199.679 167.107 199.519 167.256C199.358 167.403 199.157 167.55 198.918 167.697C198.677 167.843 198.398 167.99 198.078 168.135C197.759 168.281 197.401 168.425 197.003 168.569C196.606 168.713 196.169 168.856 195.694 168.997C195.219 169.14 194.706 169.281 194.154 169.42C193.603 169.56 193.014 169.697 192.388 169.835C191.761 169.972 191.099 170.107 190.399 170.242C189.699 170.376 188.963 170.508 188.192 170.639C187.421 170.77 186.614 170.898 185.773 171.026C184.932 171.153 184.056 171.279 183.147 171.402C182.238 171.525 181.296 171.646 180.321 171.765C179.346 171.885 178.34 172.001 177.301 172.116C176.262 172.231 175.194 172.343 174.095 172.453C172.996 172.563 171.868 172.67 170.711 172.775C169.553 172.88 168.368 172.982 167.155 173.082C165.944 173.182 164.704 173.278 163.44 173.372C162.174 173.466 160.884 173.557 159.57 173.646C158.255 173.734 156.918 173.819 155.557 173.901C154.196 173.985 152.814 174.064 151.41 174.14C150.007 174.216 148.583 174.29 147.14 174.359C145.696 174.429 144.235 174.496 142.755 174.559C141.276 174.622 139.78 174.683 138.268 174.739C136.756 174.796 135.23 174.849 133.689 174.899C132.148 174.949 130.595 174.996 129.029 175.039C127.462 175.082 125.885 175.121 124.298 175.158C122.711 175.194 121.114 175.226 119.509 175.255C117.904 175.284 116.292 175.309 114.673 175.331C113.055 175.353 111.431 175.371 109.802 175.386C108.173 175.4 106.542 175.41 104.907 175.418C103.272 175.425 101.637 175.429 100 175.429C98.3634 175.429 96.7277 175.425 95.093 175.418C93.4584 175.41 91.8267 175.4 90.198 175.386C88.5693 175.371 86.9455 175.353 85.3268 175.331C83.708 175.309 82.096 175.284 80.4911 175.255C78.8862 175.226 77.2891 175.194 75.702 175.158C74.1148 175.121 72.5376 175.082 70.9713 175.039C69.4049 174.996 67.8515 174.949 66.3109 174.899C64.7703 174.849 63.2435 174.796 61.7317 174.739C60.2198 174.683 58.7238 174.622 57.2446 174.559C55.7653 174.496 54.304 174.429 52.8604 174.359C51.4169 174.29 49.9931 174.216 48.5901 174.14C47.1861 174.064 45.8039 173.985 44.4425 173.901C43.0821 173.819 41.7445 173.734 40.4297 173.646C39.1158 173.557 37.8257 173.466 36.5604 173.372C35.2961 173.278 34.0564 173.182 32.8436 173.082C31.6317 172.982 30.4465 172.88 29.2891 172.775C28.1316 172.67 27.004 172.563 25.9049 172.453C24.8059 172.343 23.7376 172.231 22.699 172.116C21.6603 172.001 20.6544 171.885 19.6792 171.765C18.704 171.646 17.7623 171.525 16.8534 171.402C15.9436 171.279 15.0683 171.153 14.2268 171.026C13.3862 170.898 12.5792 170.77 11.8079 170.639C11.0366 170.508 10.301 170.376 9.60101 170.242C8.90098 170.107 8.23866 169.972 7.61187 169.835C6.98617 169.697 6.39709 169.56 5.8456 169.42C5.2941 169.281 4.78117 169.14 4.30594 168.997C3.83071 168.856 3.39404 168.713 2.99701 168.569C2.59901 168.425 2.24059 168.281 1.92176 168.135C1.60196 167.99 1.32277 167.843 1.0822 167.697C0.842587 167.55 0.641594 167.403 0.481211 167.256C0.320767 167.107 0.200993 166.96 0.120801 166.811C0.0406095 166.664 0 166.515 0 166.367C0 166.219 0.0406095 166.071 0.120801 165.922C0.200993 165.775 0.320767 165.627 0.481211 165.479C0.641594 165.331 0.842587 165.185 1.0822 165.037C1.32277 164.891 1.60196 164.745 1.92176 164.6C2.24059 164.454 2.59901 164.309 2.99701 164.166C3.39404 164.022 3.83071 163.879 4.30594 163.737C4.78117 163.595 5.2941 163.454 5.8456 163.314C6.39709 163.175 6.98617 163.036 7.61187 162.9C8.23866 162.763 8.90098 162.627 9.60101 162.493C10.301 162.359 11.0366 162.226 11.8079 162.096C12.5792 161.965 13.3862 161.836 14.2268 161.708C15.0683 161.582 15.9436 161.456 16.8534 161.333C17.7623 161.209 18.704 161.089 19.6792 160.97C20.6544 160.85 21.6603 160.733 22.699 160.619C23.7376 160.504 24.8059 160.392 25.9049 160.282C27.004 160.172 28.1316 160.065 29.2891 159.96C30.4465 159.855 31.6317 159.753 32.8436 159.653C34.0564 159.553 35.2961 159.457 36.5604 159.363C37.8257 159.269 39.1158 159.177 40.4297 159.089C41.7445 159.001 43.0821 158.915 44.4425 158.833C45.8039 158.75 47.1861 158.671 48.5901 158.595C49.9931 158.518 51.4169 158.445 52.8604 158.376C54.304 158.305 55.7653 158.239 57.2446 158.176C58.7238 158.112 60.2198 158.052 61.7317 157.996C63.2435 157.939 64.7703 157.886 66.3109 157.835C67.8515 157.786 69.4049 157.739 70.9713 157.696C72.5376 157.653 74.1148 157.613 75.702 157.578C77.2891 157.541 78.8862 157.508 80.4911 157.48C82.096 157.451 83.708 157.425 85.3268 157.403C86.9455 157.382 88.5693 157.364 90.198 157.349C91.8267 157.335 93.4584 157.324 95.093 157.316C96.7277 157.309 98.3634 157.305 100 157.305Z" fill="#00C2B5"/>
<path d="M118.796 77.4727C117.49 78.2084 116.825 79.0885 116.944 80.3677C117.047 81.4717 117.61 82.3014 118.796 82.8073V77.4727ZM80.8653 82.8094C82.2396 82.1668 82.789 81.1875 82.7257 79.9747C82.6673 78.8549 82.202 77.8678 80.8653 77.4618V82.8094ZM115.347 52.34V57.748C116.641 57.0886 117.211 56.1707 117.154 54.9153C117.101 53.7351 116.496 52.9044 115.347 52.34ZM84.3703 57.7331V52.4708C83.102 53.0776 82.4673 53.943 82.5386 55.2243C82.605 56.3994 83.1574 57.2579 84.3703 57.7331ZM50.0069 77.54C48.6475 78.0875 48.0713 78.9895 48.1297 80.2559C48.1832 81.4341 48.7297 82.3123 50.0069 82.7886V77.54ZM149.638 82.8538C151.041 82.1698 151.659 81.2153 151.537 79.846C151.432 78.6935 150.923 77.8064 149.638 77.4479V82.8538ZM132.058 115.269C132.747 117.067 134.152 116.341 135.226 116.391C135.755 116.415 136.308 115.939 137.166 115.543C135.991 114.712 135.215 114.164 134.401 113.59C133.604 114.161 132.862 114.693 132.058 115.269ZM67.8713 115.246C67.1446 114.719 66.3812 114.167 65.5782 113.584C64.7614 114.168 63.9941 114.715 63.2525 115.246C63.697 116.94 64.988 116.325 65.9743 116.433C66.8336 116.526 67.6317 116.452 67.8713 115.246ZM97.6792 90.3192C98.4525 92.1737 100.005 91.2539 101.186 91.3618C101.555 91.3955 101.99 90.7103 102.432 90.3202C99.8713 88.3608 99.8713 88.3608 97.6792 90.3192ZM53.9584 105.818C55.3119 108.526 56.6237 111.152 57.9851 113.876C59.5188 112.788 60.9723 111.756 62.3951 110.746C62.3594 110.562 62.3703 110.451 62.3198 110.387C61.3812 109.193 60.4416 107.999 59.4891 106.816C57.3822 104.197 57.3792 104.199 54.3029 105.575C54.2218 105.611 54.1545 105.679 53.9584 105.818ZM96.9376 85.6064C96.803 85.3925 96.7614 85.3083 96.704 85.2371C95.7762 84.0876 94.8445 82.9421 93.9188 81.7915C91.7752 79.1291 91.7762 79.1282 88.6277 80.5846C88.5505 80.6202 88.5 80.7113 88.4 80.8143C89.7039 83.4261 91.0188 86.0569 92.402 88.8251C93.9484 87.7272 95.403 86.6954 96.9376 85.6064ZM77.2396 105.729C76.1465 105.294 75.2248 104.884 74.2693 104.576C74 104.488 73.503 104.592 73.3327 104.794C71.7425 106.687 70.202 108.62 68.5851 110.619C70.1426 111.725 71.5891 112.753 73.1683 113.875C74.5356 111.138 75.8406 108.527 77.2396 105.729ZM107.595 88.8282C108.999 86.0114 110.304 83.3925 111.661 80.6667C110.6 80.2548 109.634 79.8391 108.637 79.5212C108.378 79.439 107.899 79.5599 107.731 79.7628C106.152 81.6539 104.619 83.5817 103.011 85.5777C104.56 86.6757 106.01 87.7044 107.595 88.8282ZM122.756 105.728C124.13 108.479 125.45 111.124 126.826 113.879C128.427 112.737 129.868 111.708 131.394 110.62C129.786 108.629 128.275 106.723 126.708 104.866C126.516 104.637 125.971 104.509 125.672 104.601C124.72 104.892 123.807 105.31 122.756 105.728ZM142.01 113.882C143.4 111.093 144.709 108.464 146.069 105.733C144.992 105.302 144.034 104.873 143.04 104.554C142.784 104.472 142.302 104.638 142.12 104.855C140.555 106.719 139.037 108.622 137.427 110.61C138.986 111.723 140.436 112.758 142.01 113.882ZM115.953 62.2648L115.469 61.954C115.232 62.3242 114.867 62.6647 114.776 63.0688C114.063 66.2232 112.479 68.8391 110.118 71.0341C109.769 71.3578 109.542 71.9677 109.518 72.4589C109.376 75.3242 109.403 75.3262 112.035 76.347C112.163 76.3965 112.293 76.4439 112.422 76.4925C113.594 76.9311 114.229 76.5579 114.36 75.3074C114.413 74.8074 114.378 74.2965 114.372 73.7906C114.324 69.8748 114.231 65.9539 115.953 62.2648ZM85.9841 77.0856C87.2475 76.6074 88.2069 76.2965 89.1169 75.8787C89.6129 75.6519 90.3841 75.2688 90.4089 74.9134C90.4861 73.8083 90.699 72.2114 90.0851 71.646C87.4079 69.1816 85.6703 66.2826 84.799 62.7896C84.7198 62.4748 84.2831 62.248 84.0129 61.9807L83.699 62.248C85.5198 66.1093 85.303 70.2253 85.3455 74.3203C85.3545 75.2103 85.7446 76.0955 85.9841 77.0856ZM99.992 82.6658C101.573 80.7173 103.003 78.8618 104.541 77.1005C105.36 76.1619 105.512 75.2133 105.17 74.0093C101.704 75.2133 98.2604 75.0915 94.4545 74.0361C94.702 75.0766 94.6752 75.9876 95.101 76.5667C96.601 78.6034 98.2555 80.5262 99.992 82.6658ZM140.075 99.5301L139.644 99.0697C136.161 100.201 132.678 100.214 128.966 99.0648C129.096 99.9945 128.961 100.868 129.332 101.37C130.911 103.508 132.641 105.537 134.405 107.716C135.991 105.769 137.526 103.995 138.918 102.116C139.467 101.376 139.699 100.399 140.075 99.5301ZM65.5723 107.723C67.1633 105.76 68.5575 103.935 70.0722 102.215C70.8901 101.287 71.1237 100.342 70.7772 99.0667C67.3237 100.225 63.8455 100.202 60.0475 99.0421C60.2416 100.035 60.1674 100.914 60.5614 101.448C62.1138 103.552 63.8129 105.546 65.5723 107.723ZM100.008 112.978C100.985 111.944 101.953 110.964 102.859 109.93C103.099 109.658 103.318 109.193 103.264 108.861C102.551 104.461 101.786 100.07 101.03 95.6469H98.9643C98.2099 100.047 97.4525 104.396 96.7396 108.751C96.6832 109.098 96.8297 109.587 97.0614 109.851C97.996 110.917 99.0009 111.921 100.008 112.978ZM135.447 120.736C133.44 120.492 133.413 120.488 133.106 122.275C131.773 130.042 130.451 137.811 129.152 145.585C129.075 146.048 129.054 146.706 129.315 147.01C130.953 148.927 132.68 150.769 134.415 152.677C136.14 150.78 137.782 149.03 139.341 147.209C139.631 146.87 139.736 146.212 139.661 145.744C138.826 140.51 137.945 135.284 137.061 130.058C136.534 126.934 135.981 123.814 135.447 120.736ZM65.5683 152.677C67.3109 150.766 68.9881 148.99 70.5722 147.133C70.8643 146.791 70.9208 146.098 70.8396 145.609C69.5367 137.79 68.1999 129.975 66.8574 122.162C66.5525 120.393 66.4821 120.367 64.6059 120.796C64.5713 120.881 64.5198 120.963 64.505 121.051C63.0723 129.41 61.6356 137.768 60.2366 146.133C60.1811 146.465 60.3911 146.935 60.6297 147.206C62.2139 149.007 63.8396 150.772 65.5683 152.677ZM107.234 107.261C112.744 105.127 118.074 103.081 123.385 100.983C123.95 100.759 124.826 100.235 124.823 99.8579C124.812 98.651 125.449 97.2936 124.208 96.239C121.674 94.0846 120.006 91.3866 119.262 88.1203C119.176 87.741 118.862 87.2906 118.527 87.1133C117.132 86.3817 115.688 85.741 114.15 85.0133C113.173 86.9687 112.104 89.1499 110.997 91.3124C110.156 92.9539 108.859 93.6648 107.307 93.344C106.786 93.2361 106.291 92.9985 105.626 92.7638C105.412 93.3757 104.994 93.9499 105.072 94.447C105.733 98.6777 106.484 102.894 107.234 107.261ZM85.7396 84.8113C84.102 85.6172 82.5951 86.3281 81.1227 87.1064C80.8069 87.2738 80.4722 87.6529 80.398 87.9895C79.6791 91.2489 78.0456 93.9499 75.5831 96.1826C75.3386 96.4053 75.1485 96.7836 75.103 97.1123C74.6941 100.071 74.8614 100.335 77.6327 101.404C78.2336 101.637 78.8336 101.87 79.4346 102.102C83.8416 103.804 88.2485 105.507 92.7743 107.255C93.4722 103.098 94.1822 99.0688 94.7989 95.0243C94.9069 94.3163 94.6267 93.5489 94.5159 92.7312C91.2138 93.9262 90.0633 93.4558 88.6455 90.6213C87.6396 88.6083 86.6327 86.5955 85.7396 84.8113ZM115.501 47.4866C116.132 39.8816 112.94 33.7688 106.573 30.7144C100.699 27.8955 93.8128 28.9975 88.9979 33.5252C85.1594 37.1351 82.8871 44.2678 84.5217 48.1965C85.7089 45.5579 87.9336 45.9866 90.1049 45.8559C92.6614 45.7024 95.2782 45.3984 97.7109 44.649C100.41 43.8162 102.967 42.4777 105.517 41.2203C107 40.4886 108.466 40.0292 109.732 41.2737C111.773 43.2817 113.642 45.4658 115.501 47.4866ZM118.794 73.149C119.718 71.5539 121.01 70.8292 122.809 70.9053C128.98 71.1648 134.649 69.5272 139.909 66.3282C141.938 65.0955 143.36 65.3015 144.962 67.0351C146.669 68.8826 148.307 70.7955 149.929 72.6282C150.47 65.9351 148.448 60.2143 142.388 56.5578C136.793 53.1816 130.997 53.3192 125.547 56.9152C119.807 60.7024 117.99 66.3608 118.794 73.149ZM123.025 75.1094C123.025 77.2074 122.983 79.1806 123.037 81.1509C123.091 83.1747 122.957 85.2608 123.4 87.2074C124.707 92.951 129.592 96.0756 134.895 95.7598C140.926 95.4005 145.176 91.0301 145.401 85.146C145.539 81.5519 145.446 77.9489 145.431 74.3499C145.43 74.0083 145.35 73.5816 145.14 73.3411C144.141 72.2015 143.084 71.1143 141.989 69.945C136.157 73.4479 129.901 75.2143 123.025 75.1094ZM88.9188 50.0995C88.9188 54.1282 88.4802 58.1846 89.0267 62.1024C89.7683 67.4083 94.9495 70.9905 100.433 70.7163C105.933 70.441 110.371 66.5242 110.828 61.1014C111.163 57.1153 111.001 53.0856 111.04 49.0747C111.043 48.8262 110.929 48.5192 110.762 48.3351C109.722 47.1797 108.651 46.051 107.616 44.941C98.8901 49.2004 97.5505 49.5688 88.9188 50.0995ZM54.2317 75.6005C54.2317 78.1757 54.3178 81.0786 54.2138 83.9747C53.9831 90.442 58.6426 95.1965 64.5891 95.7657C70.3119 96.3134 76.0406 91.8431 76.4504 86.0737C76.6524 83.2282 76.401 80.344 76.6881 77.5124C76.9752 74.6767 76.1514 72.4946 73.9435 70.7737C73.9079 70.746 73.8713 70.7133 73.8465 70.6757C73.393 69.9658 72.905 70.1074 72.2188 70.4341C69.9802 71.5005 67.7733 72.7608 65.407 73.3975C61.8366 74.3579 58.1416 74.8549 54.2317 75.6005ZM118.838 107.212C115.139 108.659 111.465 109.894 107.972 111.519C104.367 113.195 102.207 116.182 102.168 120.255C102.068 131.056 102.102 141.859 102.083 152.66C102.083 152.752 102.051 152.878 102.098 152.931C102.335 153.203 102.588 153.677 102.845 153.684C105.277 153.74 107.711 153.717 110.296 153.717V151.948C110.296 142.807 110.293 133.666 110.303 124.525C110.304 123.932 110.327 123.315 110.486 122.75C110.773 121.732 111.53 121.245 112.582 121.34C113.634 121.434 114.259 122.055 114.404 123.098C114.473 123.596 114.449 124.11 114.449 124.618C114.453 133.759 114.451 142.9 114.451 152.04V153.622H129.631C128.298 152.151 127.141 150.847 125.953 149.571C125.01 148.557 124.635 147.432 124.875 146.028C126.35 137.44 127.802 128.847 129.207 120.246C129.332 119.483 129.067 118.655 128.973 117.76C125.646 118.973 124.484 118.508 123.071 115.685C121.673 112.89 120.277 110.094 118.838 107.212ZM89.706 153.725C92.0119 153.725 94.0882 153.637 96.1534 153.755C97.5455 153.835 97.9664 153.431 97.9544 152C97.8861 143.969 97.9277 135.935 97.9178 127.902C97.9149 125.272 97.9921 122.633 97.8119 120.013C97.5198 115.749 95.2564 112.787 91.3218 111.168C88.2534 109.905 85.1405 108.754 82.0445 107.56C81.7604 107.45 81.4564 107.389 81.1099 107.291C79.698 110.123 78.3227 112.886 76.9436 115.644C75.5217 118.486 74.3485 118.963 71.0445 117.753C70.9386 118.638 70.6525 119.463 70.7772 120.219C72.1614 128.637 73.5852 137.048 75.0584 145.45C75.3732 147.245 75.0128 148.689 73.6891 149.972C72.5554 151.071 71.5475 152.299 70.3277 153.643H85.5495V151.941C85.5505 142.569 85.5446 133.196 85.5564 123.825C85.5574 122.231 86.2693 121.37 87.5217 121.325C88.8347 121.279 89.6327 122.18 89.702 123.798C89.7178 124.167 89.706 124.537 89.706 124.906V151.914V153.725ZM60.795 153.643C59.5049 152.208 58.4178 150.918 57.2425 149.714C56.1059 148.552 55.797 147.264 56.0733 145.671C57.5476 137.179 58.9801 128.681 60.3693 120.175C60.4921 119.423 60.197 118.603 60.0821 117.705C57.0337 119.01 55.6435 118.502 54.3376 115.896C52.898 113.022 51.4653 110.144 50.0059 107.221C46.8455 108.448 43.801 109.634 40.7535 110.811C35.4921 112.842 33.2436 116.119 33.2415 121.792C33.2386 129.453 33.2406 137.113 33.2406 144.774C33.2406 147.358 33.2158 149.942 33.2683 152.526C33.2762 152.924 33.6317 153.651 33.8445 153.658C36.3594 153.737 38.8782 153.709 41.505 153.709V151.878C41.505 142.788 41.5039 133.696 41.5069 124.605C41.5069 124.099 41.4802 123.584 41.5565 123.086C41.7148 122.053 42.3386 121.426 43.3921 121.339C44.4435 121.251 45.199 121.737 45.4792 122.759C45.6346 123.324 45.6534 123.941 45.6544 124.535C45.6643 133.672 45.6614 142.809 45.6614 151.946V153.643H60.795ZM170.916 154.318C169.937 156.984 167.979 157.914 165.211 157.907C144.716 157.858 124.222 157.889 103.727 157.859C102.646 157.857 101.564 157.532 100.482 157.366C100.221 157.326 99.9504 157.28 99.693 157.308C98.0594 157.488 96.4286 157.853 94.796 157.856C74.8099 157.894 54.8227 157.882 34.8356 157.881C30.6584 157.881 29.0861 156.298 29.0861 152.097C29.0851 141.896 29.0822 131.695 29.0872 121.493C29.091 114.522 32.5079 109.534 38.992 107.018C44.2327 104.985 49.4634 102.925 54.7297 100.961C55.7228 100.591 56.0287 100.131 56.0674 99.0985C56.1227 97.6202 55.7842 96.544 54.595 95.5094C52.497 93.6816 51.2683 91.2342 50.6287 88.5242C50.4208 87.644 50.0692 87.1817 49.0802 86.9143C44.5693 85.6956 42.5891 80.4935 44.9604 76.4687C45.2871 75.9143 45.4158 75.1954 45.4753 74.5371C45.7743 71.243 45.5722 67.8301 46.3743 64.6697C48.1228 57.7757 52.7802 53.3261 59.4683 51.0074C60.704 50.5776 61.7871 51.1222 62.1941 52.2134C62.59 53.2737 62.1178 54.3816 60.8476 54.8568C57.8931 55.9598 55.3109 57.5489 53.2871 60.0114C50.1951 63.7737 49.4039 68.1618 49.7079 72.8598C49.7119 72.9232 49.8287 72.9786 49.9396 73.0816C50.0732 72.9946 50.2832 72.9341 50.3535 72.8005C51.1743 71.2202 52.5653 70.8569 54.1961 70.9173C58.6485 71.0806 62.9218 70.248 66.9871 68.445C68.4158 67.8113 69.7743 67.0183 71.1466 66.2658C73.1544 65.1638 74.5257 65.336 76.097 66.9995C77.3961 68.3747 78.6743 69.7718 79.9119 71.2015C80.3198 71.6717 80.5733 72.2757 80.9059 72.8321C80.9465 72.8212 81.0911 72.8064 81.0931 72.7797C81.4841 67.5955 80.5208 62.7757 76.6267 59.0688C75.0317 57.5489 72.9475 56.5351 71.0535 55.342C70.5574 55.0311 69.9288 54.9381 69.3822 54.6965C68.1385 54.147 67.6416 53.1331 68.0475 52.048C68.4583 50.9489 69.5436 50.3282 70.7545 50.835C72.9079 51.7381 74.9802 52.8381 77.0742 53.8776C77.4703 54.0747 77.8139 54.3776 78.0643 54.5509C78.6228 53.3282 79.1852 52.1926 79.6564 51.0202C79.8534 50.5291 79.9 49.9628 79.9406 49.4252C80.1802 46.2163 79.9871 42.9104 80.702 39.8143C82.7524 30.9361 91.5307 24.547 100.482 25.0252C110.194 25.544 118.067 32.4351 119.396 41.747C119.733 44.1053 119.564 46.5321 119.735 48.9212C119.796 49.7925 120.132 50.6539 120.404 51.4994C120.738 52.5361 121.136 53.5509 121.537 54.6598C124.407 52.344 127.681 50.8955 131.352 50.2816C142.451 48.4252 153.499 57.2569 154.048 68.4787C154.107 69.6757 154.135 70.8767 154.136 72.0756C154.136 73.9074 154.249 75.6123 155.116 77.3856C156.973 81.1856 154.67 85.8094 150.56 86.9321C149.648 87.1817 149.266 87.5816 149.08 88.4361C148.452 91.3143 146.975 93.7163 144.859 95.745C144.095 96.4776 143.521 99.3598 144.042 100.229C144.222 100.531 144.685 100.703 145.053 100.847C150.42 102.937 155.798 104.996 161.161 107.095C166.356 109.129 169.661 112.787 170.701 118.355C170.734 118.531 170.843 118.692 170.916 118.861V130.495C170.18 131.343 169.443 132.197 168.13 131.675C166.859 131.17 166.746 130.096 166.754 128.931C166.773 126.3 166.788 123.67 166.753 121.039C166.697 116.868 164.99 113.513 161.199 111.699C157.601 109.978 153.792 108.698 150.005 107.196C148.547 110.101 147.144 112.898 145.742 115.695C144.33 118.512 143.139 118.99 139.883 117.763C139.777 118.599 139.498 119.379 139.615 120.094C140.992 128.557 142.391 137.016 143.879 145.46C144.19 147.223 143.878 148.6 142.613 149.861C141.463 151.006 140.423 152.261 139.185 153.631H154.341V151.899C154.341 142.761 154.337 133.622 154.348 124.485C154.349 123.892 154.376 123.274 154.543 122.711C154.843 121.696 155.671 121.074 156.643 121.398C157.344 121.632 157.951 122.376 158.405 123.028C158.648 123.378 158.494 124.014 158.494 124.521C158.497 133.704 158.497 142.889 158.497 152.073V153.724C161.007 153.724 163.267 153.685 165.525 153.743C166.506 153.769 166.789 153.425 166.779 152.467C166.735 148.406 166.773 144.344 166.753 140.284C166.748 139.106 166.887 138.024 168.156 137.556C169.451 137.079 170.229 137.873 170.916 138.805V154.318Z" fill="#003951"/>
</svg>
