<svg width="202" height="180" viewBox="0 0 202 180" fill="none" xmlns="http://www.w3.org/2000/svg">
<path opacity="0.2667" d="M101 161.235C102.653 161.235 104.305 161.239 105.956 161.246C107.607 161.254 109.255 161.265 110.9 161.279C112.545 161.294 114.185 161.312 115.82 161.334C117.455 161.356 119.083 161.382 120.704 161.411C122.325 161.44 123.938 161.473 125.541 161.51C127.144 161.546 128.737 161.586 130.319 161.629C131.901 161.673 133.47 161.72 135.026 161.77C136.582 161.821 138.124 161.875 139.651 161.932C141.178 161.989 142.689 162.05 144.183 162.114C145.677 162.178 147.153 162.245 148.611 162.316C150.069 162.386 151.507 162.46 152.924 162.537C154.342 162.614 155.738 162.694 157.113 162.778C158.487 162.861 159.838 162.947 161.166 163.036C162.493 163.125 163.796 163.218 165.074 163.313C166.351 163.408 167.603 163.505 168.827 163.606C170.052 163.707 171.249 163.81 172.418 163.916C173.587 164.022 174.726 164.13 175.836 164.241C176.946 164.352 178.025 164.466 179.074 164.582C180.123 164.697 181.139 164.815 182.124 164.936C183.109 165.056 184.06 165.178 184.978 165.303C185.897 165.427 186.781 165.554 187.631 165.682C188.48 165.811 189.295 165.941 190.074 166.073C190.853 166.205 191.596 166.339 192.303 166.474C193.01 166.61 193.679 166.747 194.312 166.885C194.944 167.023 195.539 167.163 196.096 167.304C196.653 167.445 197.171 167.587 197.651 167.731C198.131 167.874 198.572 168.019 198.973 168.164C199.375 168.309 199.737 168.455 200.059 168.602C200.382 168.749 200.664 168.896 200.907 169.044C201.149 169.193 201.352 169.341 201.514 169.49C201.676 169.64 201.797 169.789 201.878 169.938C201.959 170.088 202 170.238 202 170.387C202 170.537 201.959 170.687 201.878 170.836C201.797 170.986 201.676 171.135 201.514 171.285C201.352 171.434 201.149 171.582 200.907 171.73C200.664 171.878 200.382 172.026 200.059 172.173C199.737 172.32 199.375 172.466 198.973 172.611C198.572 172.757 198.131 172.901 197.651 173.044C197.171 173.188 196.653 173.33 196.096 173.471C195.539 173.612 194.944 173.751 194.312 173.89C193.679 174.028 193.01 174.165 192.303 174.301C191.596 174.436 190.853 174.57 190.074 174.702C189.295 174.834 188.48 174.964 187.631 175.093C186.781 175.221 185.897 175.348 184.978 175.472C184.06 175.597 183.109 175.719 182.124 175.839C181.139 175.96 180.123 176.078 179.074 176.194C178.025 176.31 176.946 176.423 175.836 176.534C174.726 176.645 173.587 176.753 172.418 176.859C171.249 176.965 170.052 177.068 168.827 177.169C167.603 177.27 166.351 177.367 165.074 177.462C163.796 177.557 162.493 177.649 161.166 177.739C159.838 177.828 158.487 177.914 157.113 177.997C155.738 178.081 154.342 178.161 152.924 178.238C151.507 178.315 150.069 178.389 148.611 178.459C147.153 178.53 145.677 178.597 144.183 178.661C142.689 178.725 141.178 178.786 139.651 178.843C138.124 178.9 136.582 178.954 135.026 179.005C133.47 179.055 131.901 179.102 130.319 179.146C128.737 179.189 127.144 179.229 125.541 179.266C123.938 179.302 122.325 179.335 120.704 179.364C119.083 179.393 117.455 179.419 115.82 179.441C114.185 179.463 112.545 179.481 110.9 179.496C109.255 179.51 107.607 179.521 105.956 179.529C104.305 179.536 102.653 179.54 101 179.54C99.347 179.54 97.695 179.536 96.044 179.529C94.393 179.521 92.745 179.51 91.1 179.496C89.455 179.481 87.815 179.463 86.18 179.441C84.545 179.419 82.917 179.393 81.296 179.364C79.675 179.335 78.062 179.302 76.459 179.266C74.856 179.229 73.263 179.189 71.681 179.146C70.099 179.102 68.53 179.055 66.974 179.005C65.418 178.954 63.876 178.9 62.349 178.843C60.822 178.786 59.311 178.725 57.817 178.661C56.323 178.597 54.847 178.53 53.389 178.459C51.931 178.389 50.493 178.315 49.076 178.238C47.658 178.161 46.262 178.081 44.887 177.997C43.513 177.914 42.162 177.828 40.834 177.739C39.507 177.649 38.204 177.557 36.926 177.462C35.649 177.367 34.397 177.27 33.173 177.169C31.948 177.068 30.751 176.965 29.582 176.859C28.413 176.753 27.274 176.645 26.164 176.534C25.054 176.423 23.975 176.31 22.926 176.194C21.877 176.078 20.861 175.96 19.876 175.839C18.891 175.719 17.94 175.597 17.022 175.472C16.103 175.348 15.219 175.221 14.369 175.093C13.52 174.964 12.705 174.834 11.926 174.702C11.147 174.57 10.404 174.436 9.69701 174.301C8.99001 174.165 8.321 174.028 7.688 173.89C7.056 173.751 6.461 173.612 5.90401 173.471C5.347 173.33 4.82899 173.188 4.349 173.044C3.869 172.901 3.42799 172.757 3.02699 172.611C2.625 172.466 2.263 172.32 1.94099 172.173C1.618 172.026 1.336 171.878 1.093 171.73C0.850998 171.582 0.647995 171.434 0.485992 171.285C0.324005 171.135 0.203003 170.986 0.121994 170.836C0.0410004 170.687 0 170.537 0 170.387C0 170.238 0.0410004 170.088 0.121994 169.938C0.203003 169.789 0.324005 169.64 0.485992 169.49C0.647995 169.341 0.850998 169.193 1.093 169.044C1.336 168.896 1.618 168.749 1.94099 168.602C2.263 168.455 2.625 168.309 3.02699 168.164C3.42799 168.019 3.869 167.874 4.349 167.731C4.82899 167.587 5.347 167.445 5.90401 167.304C6.461 167.163 7.056 167.023 7.688 166.885C8.321 166.747 8.99001 166.61 9.69701 166.474C10.404 166.339 11.147 166.205 11.926 166.073C12.705 165.941 13.52 165.811 14.369 165.682C15.219 165.554 16.103 165.427 17.022 165.303C17.94 165.178 18.891 165.056 19.876 164.936C20.861 164.815 21.877 164.697 22.926 164.582C23.975 164.466 25.054 164.352 26.164 164.241C27.274 164.13 28.413 164.022 29.582 163.916C30.751 163.81 31.948 163.707 33.173 163.606C34.397 163.505 35.649 163.408 36.926 163.313C38.204 163.218 39.507 163.125 40.834 163.036C42.162 162.947 43.513 162.861 44.887 162.778C46.262 162.694 47.658 162.614 49.076 162.537C50.493 162.46 51.931 162.386 53.389 162.316C54.847 162.245 56.323 162.178 57.817 162.114C59.311 162.05 60.822 161.989 62.349 161.932C63.876 161.875 65.418 161.821 66.974 161.77C68.53 161.72 70.099 161.673 71.681 161.629C73.263 161.586 74.856 161.546 76.459 161.51C78.062 161.473 79.675 161.44 81.296 161.411C82.917 161.382 84.545 161.356 86.18 161.334C87.815 161.312 89.455 161.294 91.1 161.279C92.745 161.265 94.393 161.254 96.044 161.246C97.695 161.239 99.347 161.235 101 161.235Z" fill="#00C2B5"/>
<path d="M133.04 32.433C133.04 34.606 133.006 36.59 133.049 38.572C133.105 41.188 132.355 43.521 130.832 45.645C130.522 46.077 130.304 46.679 130.297 47.2061C130.251 50.671 130.241 54.137 130.284 57.601C130.319 60.401 131.779 61.799 134.632 61.839C136.627 61.868 138.627 61.9301 140.617 61.824C143 61.697 144.894 62.502 146.486 64.261C147.701 65.604 149.041 66.834 150.595 68.385C152.105 66.74 153.45 65.2679 154.804 63.804C156.093 62.411 157.686 61.7889 159.59 61.835C161.585 61.885 163.581 61.85 165.576 61.845C169.111 61.8361 170.414 60.536 170.418 56.9871C170.425 50.4771 170.422 43.967 170.419 37.457C170.417 33.67 169.195 32.436 165.442 32.4351C155.255 32.4301 145.068 32.433 134.881 32.433H133.04ZM69.61 32.621C69.198 32.546 68.897 32.443 68.596 32.443C57.723 32.4351 46.85 32.415 35.977 32.452C33.326 32.462 31.892 33.955 31.881 36.598C31.852 43.583 31.855 50.567 31.878 57.553C31.887 60.3521 33.355 61.78 36.18 61.8409C37.125 61.8621 38.071 61.842 39.016 61.8459C46.16 61.874 45.096 61.278 50.256 66.481C50.796 67.025 51.195 67.709 51.924 68.682C53.601 66.838 54.873 65.446 56.137 64.047C57.564 62.468 59.311 61.7419 61.461 61.828C63.506 61.91 65.557 61.864 67.606 61.84C70.56 61.806 71.953 60.434 71.977 57.4919C72.007 53.973 72.013 50.454 71.958 46.936C71.949 46.301 71.715 45.6 71.381 45.054C70.227 43.168 69.579 41.167 69.605 38.946C69.629 36.8521 69.61 34.757 69.61 32.621ZM123.881 0.459961C124.674 0.723022 125.495 0.921997 126.254 1.25903C130.548 3.16602 132.913 6.46594 133.013 11.1801C133.116 16.062 133.039 20.947 133.041 25.8311C133.041 26.395 133.041 26.958 133.041 27.705H135.06C145.197 27.705 155.335 27.702 165.472 27.7061C171.85 27.709 175.146 31.025 175.15 37.4399C175.154 43.952 175.156 50.465 175.149 56.9771C175.142 63.153 171.755 66.551 165.628 66.578C163.321 66.589 160.774 66.0601 158.776 66.866C156.835 67.649 155.455 69.826 153.833 71.395C151.399 73.75 149.027 73.957 146.951 71.326C143.864 67.415 140.186 66.125 135.248 66.4659C128.922 66.902 125.549 63.212 125.544 56.8459C125.542 54.439 125.543 52.033 125.543 49.908C121.119 49.908 116.836 49.837 112.56 49.964C111.635 49.9919 110.536 50.5341 109.857 51.1899C108.161 52.828 106.679 54.6851 105.076 56.421C102.777 58.913 99.814 58.889 97.55 56.375C96.18 54.853 94.764 53.363 93.509 51.749C92.398 50.3199 91.077 49.756 89.288 49.881C87.563 50.002 85.822 49.942 84.09 49.8979C81.695 49.838 79.301 49.72 76.713 49.6169C76.713 52.156 76.687 54.8669 76.721 57.576C76.752 59.994 76.076 62.136 74.397 63.906C72.675 65.722 70.508 66.5291 68.04 66.566C66.36 66.592 64.664 66.71 63.001 66.538C61.026 66.334 59.602 67.006 58.343 68.483C57.291 69.717 56.067 70.811 54.87 71.913C53.066 73.572 50.883 73.6 49.077 71.933C47.534 70.509 46.137 68.925 44.569 67.532C44.005 67.031 43.141 66.6591 42.391 66.616C40.245 66.495 38.086 66.605 35.933 66.5649C30.71 66.467 27.172 62.897 27.149 57.66C27.119 50.676 27.125 43.691 27.147 36.7061C27.165 31.285 30.685 27.736 36.141 27.717C46.593 27.6801 57.046 27.705 67.498 27.705H69.608V25.9C69.608 21.2791 69.6 16.658 69.61 12.036C69.622 6.10596 72.409 2.40906 78.111 0.718018C78.249 0.677002 78.361 0.547974 78.485 0.459961H92.671C93.827 1.18506 94.649 2.12805 94.152 3.57397C93.659 5.00903 92.436 5.21802 91.074 5.20203C87.712 5.16101 84.349 5.18103 80.987 5.18994C76.782 5.20203 74.347 7.62695 74.341 11.849C74.328 20.726 74.329 29.604 74.341 38.48C74.347 42.686 76.787 45.141 80.982 45.174C83.977 45.198 86.973 45.244 89.966 45.16C92.757 45.082 94.938 46.1379 96.71 48.245C98.191 50.007 99.742 51.71 101.33 53.516C103.101 51.541 104.78 49.665 106.464 47.7939C108.022 46.062 109.94 45.153 112.3 45.173C115.452 45.2 118.605 45.205 121.757 45.172C125.826 45.131 128.303 42.619 128.308 38.537C128.32 29.6071 128.321 20.678 128.307 11.748C128.302 7.68005 125.797 5.19995 121.707 5.19104C115.77 5.18005 109.833 5.177 103.897 5.19702C102.567 5.20203 101.351 5.08704 100.788 3.63C100.213 2.14404 101.129 1.28296 102.129 0.459961H123.881Z" fill="#003951"/>
<path d="M67.583 157.037V152.452C66.175 154.096 64.981 155.49 63.656 157.037H67.583ZM56.066 130.27C53.274 131.544 50.579 131.37 47.747 130.377C47.747 131.425 47.747 132.203 47.747 132.981C47.747 135.404 48.409 136.394 50.81 136.522C52.292 136.6 53.83 136.035 55.301 135.612C55.644 135.513 55.999 134.832 56.032 134.395C56.128 133.104 56.066 131.801 56.066 130.27ZM31.138 144.366C30.516 145.855 29.738 146.951 29.641 148.105C29.422 150.713 29.498 153.35 29.563 155.973C29.574 156.359 30.176 157.05 30.518 157.059C33.793 157.142 37.07 157.108 40.657 157.108C37.448 152.813 34.45 148.8 31.138 144.366ZM95.445 122.24C95.445 124.501 95.409 126.489 95.475 128.473C95.488 128.865 95.803 129.346 96.123 129.616C98.852 131.912 103.581 131.924 106.361 129.646C106.693 129.373 107.068 128.915 107.081 128.532C107.153 126.503 107.115 124.47 107.115 122.247C103.188 123.502 99.423 123.574 95.445 122.24ZM67.578 108.537C68.802 105.555 69.23 103.085 69.03 100.303C68.689 95.546 65.297 92.244 61.085 92.5059C60.209 92.561 59.828 92.875 59.606 93.748C59.26 95.107 58.82 96.4659 58.215 97.727C57.184 99.874 57.01 100.059 58.886 101.673C61.653 104.052 64.608 106.21 67.578 108.537ZM141.56 139.624C139.25 140.576 137.167 141.401 135.124 142.313C134.84 142.441 134.588 143.004 134.595 143.361C134.637 145.818 134.782 148.275 134.834 150.733C134.879 152.811 134.843 154.891 134.843 157.006H145.485C142.272 151.624 141.805 145.79 141.56 139.624ZM146.261 133.354C146.504 141.194 145.599 148.974 150.49 155.923C155.308 148.883 154.442 141.165 154.625 133.297C151.714 134.746 149.066 134.545 146.261 133.354ZM159.296 139.546C159.24 145.856 158.563 151.687 155.429 157.112C160.996 157.112 166.294 157.104 171.592 157.121C172.447 157.123 172.86 156.78 172.852 155.917C172.828 153.347 172.879 150.774 172.77 148.207C172.694 146.405 171.748 144.915 170.145 144.173C166.687 142.574 163.139 141.17 159.296 139.546ZM83.699 136.378C81.08 137.495 78.471 138.457 76.006 139.704C73.74 140.85 72.561 142.899 72.481 145.456C72.406 147.869 72.452 150.285 72.447 152.7C72.444 154.144 72.446 155.587 72.446 157.043H92.27C91.287 149.358 88.481 142.541 83.699 136.378ZM110.107 157.022H129.969C129.969 152.854 130.115 148.77 129.915 144.704C129.794 142.234 128.233 140.441 125.975 139.411C123.88 138.455 121.748 137.572 119.593 136.76C119.215 136.617 118.436 136.82 118.196 137.134C113.716 143.007 111.053 149.628 110.107 157.022ZM105.31 157.071C106.289 148.745 109.249 141.285 114.16 134.508C112.99 134.018 112.003 133.511 110.956 133.207C110.458 133.063 109.719 133.12 109.307 133.402C104.019 137.034 98.518 137.028 93.178 133.374C92.796 133.112 92.117 133.03 91.672 133.169C90.547 133.522 89.476 134.049 88.268 134.553C93.238 141.359 96.07 148.873 97.089 157.071H105.31ZM53.617 103.437C51.68 104.363 49.523 105.214 47.553 106.381C44.999 107.893 42.567 109.619 40.151 111.35C39.786 111.612 39.543 112.464 39.669 112.929C40.965 117.738 43.51 121.767 47.538 124.752C50.622 127.038 53.093 127.049 56.194 124.802C59.887 122.128 62.215 118.459 63.806 114.228C64.352 112.775 64.195 111.841 62.945 110.88C59.798 108.46 56.732 105.934 53.617 103.437ZM35.729 142.607C39.287 147.366 42.69 151.95 46.152 156.489C46.43 156.854 47.11 157.077 47.608 157.087C50.44 157.143 53.275 157.17 56.104 157.073C56.779 157.049 57.624 156.68 58.071 156.182C60.905 153.02 63.707 149.823 66.391 146.534C67.253 145.477 67.725 144.104 68.437 142.761C65.192 141.427 62.396 140.252 59.572 139.147C59.23 139.013 58.658 139.136 58.329 139.35C54.046 142.117 49.787 142.118 45.495 139.374C45.158 139.159 44.592 139.005 44.255 139.136C41.481 140.216 38.736 141.371 35.729 142.607ZM138.512 113.156C138.775 118.197 142.416 124.819 146.569 127.994C149.37 130.135 151.588 130.124 154.416 127.953C160.734 123.103 164.027 113.593 161.97 105.941C161.247 103.25 160.021 100.826 157.601 99.0179C153.926 107.578 147.321 111.948 138.512 113.156ZM81.524 94.3299C83.253 93.302 84.821 92.4699 86.271 91.467C87.085 90.904 87.866 90.1569 88.37 89.317C89.097 88.104 90.003 87.6469 91.359 87.8349C96.271 88.514 99.591 86.6679 101.561 82.1949C102.578 79.8879 104.398 79.608 106.054 81.5389C107.554 83.2889 109.37 83.998 111.661 83.488C113.636 83.0489 114.277 83.557 115.158 85.4439C115.694 86.592 116.506 87.672 117.402 88.5749C118.46 89.641 119.743 90.483 120.999 91.479C121.253 90.994 121.587 90.4659 121.815 89.896C122.301 88.681 122.814 87.467 123.168 86.211C123.912 83.571 122.662 81.534 119.99 80.869C117.959 80.363 117.336 79.214 118.039 77.266C118.881 74.932 118.398 73.031 116.655 71.8239C114.906 70.6109 112.895 70.8549 111.084 72.5C109.236 74.1779 107.377 73.598 106.806 71.1639C105.751 66.671 101.518 64.9909 97.707 67.5529C96.078 68.6469 95.209 68.589 93.852 67.1999C92.657 65.977 91.264 65.411 89.581 65.857C87.847 66.316 86.747 67.4799 86.451 69.2349C86.167 70.9239 85.242 71.5689 83.585 71.755C78.177 72.362 75.382 78.349 78.495 82.7349C79.411 84.026 79.858 85.2559 79.731 86.7979C79.653 87.733 79.697 88.691 79.793 89.628C79.974 91.4079 80.289 93.1569 81.524 94.3299ZM36.337 108.096C38.205 106.698 40.001 105.157 41.989 103.926C43.715 102.857 45.646 102.113 47.506 101.27C51.121 99.633 53.856 97.1779 54.921 93.227C55.701 90.336 54.449 88.3859 51.528 87.7719C48.618 87.161 45.906 87.868 43.272 89.0489C42.793 89.2629 42.336 89.5279 41.85 89.7209C40.56 90.2309 39.524 89.786 38.916 88.639C38.341 87.5539 38.494 86.328 39.59 85.707C44.498 82.926 49.66 81.6479 55.067 84.102C56.424 84.717 57.413 86.12 58.619 87.103C59.033 87.4399 59.609 87.842 60.082 87.8079C67.466 87.284 73.18 92.249 73.738 99.7459C74.108 104.725 72.812 109.306 70.407 113.62C70.28 113.848 70.173 114.166 69.97 114.262C68.039 115.182 67.961 117.289 66.969 118.806C65.257 121.428 63.344 123.919 61.56 126.497C61.202 127.014 60.867 127.66 60.831 128.265C60.732 129.94 60.844 131.626 60.777 133.305C60.743 134.168 61.005 134.63 61.834 134.95C64.328 135.914 66.773 137.007 69.282 137.931C69.755 138.105 70.512 137.871 70.996 137.584C72.518 136.685 73.873 135.449 75.469 134.742C80.071 132.704 84.748 130.833 89.423 128.964C90.398 128.573 90.889 128.096 90.726 127.011C90.642 126.446 90.657 125.852 90.72 125.281C91.108 121.767 90.743 118.54 87.559 116.27C87.191 116.008 86.936 115.556 86.701 115.15C86.04 114.003 86.15 112.921 87.168 112.036C88.144 111.188 89.451 111.307 90.412 112.322C91.205 113.16 91.885 114.112 92.721 114.901C98.087 119.973 105.284 119.767 110.339 114.267C115.115 109.07 116.926 102.672 117.195 95.78C117.224 95.036 116.615 94.1359 116.062 93.524C114.601 91.911 113.015 90.4079 111.457 88.885C111.225 88.6579 110.887 88.4809 110.569 88.41C108.603 87.964 106.628 87.5539 104.372 87.071C104.344 87.104 104.05 87.4549 103.749 87.7989C100.975 90.964 97.508 92.6729 93.279 92.8199C92.788 92.837 92.223 92.8969 91.828 93.151C90.167 94.219 88.606 95.448 86.913 96.458C85.76 97.145 85.212 97.8819 85.582 99.258C85.921 100.521 86.118 101.824 86.336 103.115C86.608 104.724 85.926 105.862 84.574 106.14C83.26 106.41 81.939 105.619 81.732 104.076C81.378 101.439 80.341 99.435 78.233 97.6379C75.505 95.312 75.042 91.838 75.017 88.4029C75.006 86.961 74.722 85.719 73.983 84.4119C70.363 78.015 73.568 69.891 80.548 67.6159C81.561 67.286 82.181 66.8349 82.674 65.839C84.943 61.264 90.608 59.619 95.064 62.1939C95.852 62.65 96.437 62.7619 97.34 62.3919C101.783 60.5689 106.674 62.005 109.564 65.862C109.845 66.238 110.105 66.63 110.184 66.743C112.303 66.6729 114.26 66.291 116.096 66.6099C120.451 67.369 123.32 71.087 123.21 75.5059C123.185 76.516 123.426 77.0789 124.293 77.6519C127.373 79.691 128.805 83.285 127.876 86.874C126.882 90.711 125.43 94.339 122.432 97.1739C121.921 97.6579 121.821 98.672 121.709 99.4659C120.782 106.044 118.762 112.22 114.114 117.099C112.343 118.958 111.595 120.724 111.826 123.16C111.988 124.876 111.319 127.016 112.129 128.228C112.936 129.436 115.114 129.743 116.707 130.407C119.224 131.457 121.753 132.475 124.279 133.499C124.367 133.535 124.482 133.504 124.788 133.504V131.847C124.788 124.387 124.806 116.928 124.783 109.468C124.766 104.227 126.16 99.417 129.043 95.0429C130.079 93.4699 131.348 93.057 132.594 93.854C133.845 94.6529 134.04 96.02 133.024 97.571C130.559 101.334 129.466 105.449 129.499 109.941C129.559 118.136 129.513 126.331 129.517 134.526C129.518 136.869 131.874 138.492 133.98 137.619C136.064 136.755 138.133 135.852 140.246 135.067C141.219 134.706 141.576 134.233 141.615 133.144C141.689 131.073 141.221 129.448 139.798 127.764C136.089 123.374 133.93 118.226 133.612 112.415C133.482 110.055 134.091 109.34 136.401 108.83C138.04 108.468 139.693 108.154 141.312 107.719C147.598 106.027 151.705 102.043 153.616 95.826C154.522 92.8769 155.761 92.3299 158.477 93.869C163.635 96.792 166.146 101.479 167.051 107.132C168.362 115.316 165.742 122.392 160.484 128.528C158.914 130.358 159.503 132.238 159.429 134.151C159.421 134.347 159.794 134.645 160.05 134.752C163.766 136.306 167.493 137.836 171.375 139.437C171.411 138.814 171.46 138.369 171.461 137.925C171.465 128.521 171.481 119.118 171.46 109.715C171.424 93.7779 155.955 83.806 141.386 90.312C139.609 91.1049 138.275 90.7569 137.662 89.3399C137.089 88.015 137.7 86.858 139.417 86.0179C154.952 78.4189 173.963 88.785 175.928 105.94C176.095 107.397 176.178 108.871 176.181 110.337C176.202 120.949 176.181 131.561 176.216 142.172C176.219 143.028 176.557 143.881 176.725 144.737C177.017 146.22 177.448 147.695 177.547 149.191C177.689 151.336 177.596 153.497 177.581 155.651C177.553 159.722 175.417 161.84 171.327 161.84C134.495 161.843 97.664 161.842 60.832 161.842C50.902 161.842 40.972 161.845 31.042 161.84C26.949 161.838 24.812 159.723 24.785 155.654C24.77 153.553 24.787 151.451 24.781 149.35C24.768 144.441 27.07 141.079 31.575 139.204C34.965 137.793 38.355 136.384 41.769 135.033C42.676 134.675 42.982 134.188 43.052 133.194C43.305 129.596 43.093 126.273 39.925 123.757C38.947 122.98 38.423 121.629 37.7 120.535C36.328 118.456 35.504 116.133 33.825 114.112C32.21 112.168 31.722 109.157 31.129 106.526C30.336 103.008 30.521 99.427 31.497 95.925C31.952 94.292 33.147 93.494 34.481 93.8819C35.859 94.281 36.428 95.4749 36.04 97.156C35.131 101.101 35.253 105.306 36.337 108.096Z" fill="#003951"/>
<path d="M88.552 22.615C88.565 25.193 89.577 27.071 90.948 28.77C93.595 32.052 97.012 34.374 100.693 36.33C101.023 36.505 101.626 36.48 101.957 36.292C105.489 34.296 108.835 32.019 111.376 28.807C112.365 27.558 113.209 26.1 113.74 24.603C114.682 21.948 113.713 19.4301 111.462 17.833C109.285 16.2889 106.486 16.317 104.261 17.906C101.643 19.775 100.939 19.771 98.424 17.947C96.424 16.495 94.259 16.239 92.057 17.3621C89.827 18.499 88.671 20.4041 88.552 22.615ZM83.826 23.027C83.835 14.441 92.906 9.21594 100.331 13.552C101.064 13.98 101.536 14.02 102.287 13.578C106.563 11.064 111.408 11.495 115.02 14.623C118.676 17.788 119.775 22.426 117.934 27.068C116.539 30.587 114.122 33.3669 111.186 35.63C108.66 37.578 105.968 39.338 103.21 40.942C102.343 41.446 100.82 41.6071 99.947 41.191C94.391 38.542 89.367 35.149 85.936 29.847C84.597 27.778 83.829 25.517 83.826 23.027Z" fill="#003951"/>
<path d="M44.107 46.379C44.635 47.578 44.855 48.551 45.417 49.248C46.362 50.4189 47.399 51.5949 48.619 52.454C52.518 55.201 51.376 55.228 55.189 52.3709C56.733 51.214 57.991 49.56 59.059 47.923C59.917 46.61 59.397 44.989 58.263 44.11C57.057 43.1739 55.706 42.983 54.488 43.9439C52.721 45.336 51.182 45.219 49.346 43.9709C48.603 43.467 47.123 43.404 46.315 43.81C45.385 44.2779 44.828 45.487 44.107 46.379ZM48.23 38.618C50.555 40.089 53.429 38.8819 56.358 38.701C61.571 38.379 65.49 43.9189 63.697 48.9179C63.046 50.7309 61.926 52.5639 60.538 53.8819C58.471 55.8449 56.045 57.4659 53.624 59.001C52.873 59.477 51.47 59.577 50.664 59.2049C47.11 57.5639 43.913 55.362 41.61 52.103C39.966 49.7729 39.221 47.2199 40.044 44.374C41.014 41.021 44.22 38.6 48.23 38.618Z" fill="#003951"/>
<path d="M146.291 43.244C145.733 43.387 145.368 43.443 145.031 43.572C142.991 44.346 142.255 46.558 143.434 48.6639C144.899 51.278 147.325 52.869 149.836 54.324C150.087 54.47 150.58 54.455 150.833 54.303C153.272 52.832 155.596 51.202 157.129 48.72C158.179 47.0191 158.03 45.385 156.841 44.264C155.567 43.063 154.173 43.059 152.426 44.249C150.915 45.2791 149.785 45.245 148.234 44.231C147.594 43.813 146.866 43.531 146.291 43.244ZM163.021 46.613C162.168 48.485 161.546 50.5129 160.412 52.1961C158.289 55.3471 155.176 57.4611 151.809 59.122C151.058 59.4931 149.847 59.582 149.115 59.235C145.333 57.447 141.897 55.134 139.625 51.492C137.721 48.442 137.461 45.294 139.54 42.19C141.758 38.8781 145.725 37.783 149.387 39.32C149.95 39.557 150.786 39.5551 151.348 39.316C156.632 37.07 162.653 40.844 162.6 46.421L163.021 46.613Z" fill="#003951"/>
</svg>
