<svg width="202" height="153" viewBox="0 0 202 153" fill="none" xmlns="http://www.w3.org/2000/svg">
<path opacity="0.2667" d="M101 134.235C102.653 134.235 104.305 134.239 105.956 134.246C107.607 134.254 109.255 134.265 110.9 134.279C112.545 134.294 114.185 134.312 115.82 134.334C117.455 134.356 119.083 134.382 120.704 134.411C122.325 134.44 123.938 134.473 125.541 134.51C127.144 134.546 128.737 134.586 130.319 134.629C131.901 134.673 133.469 134.72 135.026 134.77C136.582 134.821 138.124 134.875 139.651 134.932C141.178 134.989 142.689 135.05 144.183 135.114C145.677 135.178 147.153 135.245 148.611 135.316C150.069 135.386 151.507 135.46 152.924 135.537C154.342 135.614 155.738 135.694 157.113 135.778C158.487 135.861 159.838 135.947 161.166 136.036C162.493 136.125 163.796 136.218 165.074 136.313C166.351 136.408 167.603 136.505 168.827 136.606C170.052 136.707 171.249 136.81 172.418 136.916C173.587 137.022 174.726 137.13 175.836 137.241C176.946 137.352 178.025 137.466 179.074 137.582C180.123 137.697 181.139 137.815 182.124 137.936C183.109 138.056 184.06 138.178 184.978 138.303C185.897 138.427 186.781 138.554 187.631 138.682C188.48 138.811 189.295 138.941 190.074 139.073C190.853 139.205 191.596 139.339 192.303 139.474C193.01 139.61 193.679 139.747 194.312 139.885C194.944 140.023 195.539 140.163 196.096 140.304C196.653 140.445 197.171 140.587 197.651 140.731C198.131 140.874 198.572 141.019 198.973 141.164C199.375 141.309 199.737 141.455 200.059 141.602C200.382 141.749 200.664 141.896 200.907 142.044C201.149 142.193 201.352 142.341 201.514 142.49C201.676 142.64 201.797 142.789 201.878 142.938C201.959 143.088 202 143.238 202 143.387C202 143.537 201.959 143.687 201.878 143.836C201.797 143.986 201.676 144.135 201.514 144.285C201.352 144.434 201.149 144.582 200.907 144.73C200.664 144.878 200.382 145.026 200.059 145.173C199.737 145.32 199.375 145.466 198.973 145.611C198.572 145.757 198.131 145.901 197.651 146.044C197.171 146.188 196.653 146.33 196.096 146.471C195.539 146.612 194.944 146.751 194.312 146.89C193.679 147.028 193.01 147.165 192.303 147.301C191.596 147.436 190.853 147.57 190.074 147.702C189.295 147.834 188.48 147.964 187.631 148.093C186.781 148.221 185.897 148.348 184.978 148.472C184.06 148.597 183.109 148.719 182.124 148.839C181.139 148.96 180.123 149.078 179.074 149.194C178.025 149.31 176.946 149.423 175.836 149.534C174.726 149.645 173.587 149.753 172.418 149.859C171.249 149.965 170.052 150.068 168.827 150.169C167.603 150.27 166.351 150.367 165.074 150.462C163.796 150.557 162.493 150.649 161.166 150.739C159.838 150.828 158.487 150.914 157.113 150.997C155.738 151.081 154.342 151.161 152.924 151.238C151.507 151.315 150.069 151.389 148.611 151.459C147.153 151.53 145.677 151.597 144.183 151.661C142.689 151.725 141.178 151.786 139.651 151.843C138.124 151.9 136.582 151.954 135.026 152.005C133.469 152.055 131.901 152.102 130.319 152.146C128.737 152.189 127.144 152.229 125.541 152.266C123.938 152.302 122.325 152.335 120.704 152.364C119.083 152.393 117.455 152.419 115.82 152.441C114.185 152.463 112.545 152.481 110.9 152.496C109.255 152.51 107.607 152.521 105.956 152.529C104.305 152.536 102.653 152.54 101 152.54C99.347 152.54 97.6949 152.536 96.0439 152.529C94.3929 152.521 92.745 152.51 91.1 152.496C89.455 152.481 87.8149 152.463 86.1801 152.441C84.545 152.419 82.917 152.393 81.296 152.364C79.675 152.335 78.062 152.302 76.459 152.266C74.856 152.229 73.2629 152.189 71.681 152.146C70.099 152.102 68.53 152.055 66.974 152.005C65.418 151.954 63.876 151.9 62.349 151.843C60.822 151.786 59.311 151.725 57.817 151.661C56.323 151.597 54.847 151.53 53.389 151.459C51.931 151.389 50.493 151.315 49.076 151.238C47.658 151.161 46.262 151.081 44.887 150.997C43.5129 150.914 42.162 150.828 40.834 150.739C39.507 150.649 38.204 150.557 36.926 150.462C35.649 150.367 34.397 150.27 33.172 150.169C31.948 150.068 30.751 149.965 29.582 149.859C28.413 149.753 27.274 149.645 26.1639 149.534C25.054 149.423 23.975 149.31 22.926 149.194C21.877 149.078 20.861 148.96 19.876 148.839C18.891 148.719 17.9399 148.597 17.022 148.472C16.103 148.348 15.219 148.221 14.369 148.093C13.52 147.964 12.705 147.834 11.926 147.702C11.147 147.57 10.4041 147.436 9.69702 147.301C8.98999 147.165 8.32104 147.028 7.68799 146.89C7.05603 146.751 6.46106 146.612 5.90405 146.471C5.34705 146.33 4.82898 146.188 4.349 146.044C3.86902 145.901 3.42798 145.757 3.02698 145.611C2.625 145.466 2.263 145.32 1.94098 145.173C1.61798 145.026 1.336 144.878 1.09302 144.73C0.851013 144.582 0.64801 144.434 0.486023 144.285C0.323975 144.135 0.203003 143.986 0.122009 143.836C0.0410156 143.687 0 143.537 0 143.387C0 143.238 0.0410156 143.088 0.122009 142.938C0.203003 142.789 0.323975 142.64 0.486023 142.49C0.64801 142.341 0.851013 142.193 1.09302 142.044C1.336 141.896 1.61798 141.749 1.94098 141.602C2.263 141.455 2.625 141.309 3.02698 141.164C3.42798 141.019 3.86902 140.874 4.349 140.731C4.82898 140.587 5.34705 140.445 5.90405 140.304C6.46106 140.163 7.05603 140.023 7.68799 139.885C8.32104 139.747 8.98999 139.61 9.69702 139.474C10.4041 139.339 11.147 139.205 11.926 139.073C12.705 138.941 13.52 138.811 14.369 138.682C15.219 138.554 16.103 138.427 17.022 138.303C17.9399 138.178 18.891 138.056 19.876 137.936C20.861 137.815 21.877 137.697 22.926 137.582C23.975 137.466 25.054 137.352 26.1639 137.241C27.274 137.13 28.413 137.022 29.582 136.916C30.751 136.81 31.948 136.707 33.172 136.606C34.397 136.505 35.649 136.408 36.926 136.313C38.204 136.218 39.507 136.125 40.834 136.036C42.162 135.947 43.5129 135.861 44.887 135.778C46.262 135.694 47.658 135.614 49.076 135.537C50.493 135.46 51.931 135.386 53.389 135.316C54.847 135.245 56.323 135.178 57.817 135.114C59.311 135.05 60.822 134.989 62.349 134.932C63.876 134.875 65.418 134.821 66.974 134.77C68.53 134.72 70.099 134.673 71.681 134.629C73.2629 134.586 74.856 134.546 76.459 134.51C78.062 134.473 79.675 134.44 81.296 134.411C82.917 134.382 84.545 134.356 86.1801 134.334C87.8149 134.312 89.455 134.294 91.1 134.279C92.745 134.265 94.3929 134.254 96.0439 134.246C97.6949 134.239 99.347 134.235 101 134.235Z" fill="#00C2B5"/>
<path d="M119.984 53.604C118.665 54.3471 117.993 55.236 118.113 56.528C118.217 57.643 118.786 58.481 119.984 58.992V53.604ZM81.674 58.994C83.062 58.345 83.617 57.356 83.553 56.131C83.4941 55 83.0241 54.0031 81.674 53.593V58.994ZM116.5 28.22V33.682C117.807 33.016 118.383 32.089 118.326 30.8211C118.272 29.629 117.661 28.7901 116.5 28.22ZM85.214 33.667V28.3521C83.933 28.965 83.292 29.839 83.364 31.1331C83.4311 32.32 83.989 33.187 85.214 33.667ZM50.507 53.672C49.1341 54.225 48.552 55.136 48.611 56.4151C48.6651 57.605 49.2171 58.492 50.507 58.973V53.672ZM151.134 59.039C152.551 58.348 153.176 57.384 153.052 56.001C152.946 54.8371 152.432 53.9411 151.134 53.579V59.039ZM133.379 91.778C134.075 93.594 135.493 92.861 136.578 92.911C137.113 92.9361 137.671 92.455 138.538 92.0551C137.351 91.216 136.567 90.662 135.745 90.082C134.94 90.6591 134.191 91.1961 133.379 91.778ZM68.5501 91.755C67.8161 91.223 67.0451 90.6651 66.234 90.0761C65.4091 90.666 64.6341 91.219 63.885 91.755C64.334 93.466 65.638 92.845 66.6341 92.954C67.502 93.048 68.308 92.973 68.5501 91.755ZM98.656 66.579C99.437 68.452 101.005 67.523 102.198 67.632C102.571 67.666 103.01 66.974 103.456 66.58C100.87 64.601 100.87 64.601 98.656 66.579ZM54.4981 82.233C55.865 84.968 57.19 87.62 58.565 90.371C60.114 89.272 61.5821 88.23 63.0191 87.21C62.9831 87.0241 62.9941 86.912 62.943 86.8471C61.995 85.642 61.0461 84.4361 60.084 83.241C57.9561 80.596 57.953 80.598 54.846 81.9871C54.7641 82.0241 54.6961 82.0921 54.4981 82.233ZM97.907 61.819C97.771 61.603 97.729 61.518 97.6711 61.4461C96.734 60.285 95.793 59.1281 94.8581 57.966C92.693 55.277 92.694 55.276 89.5141 56.747C89.4361 56.783 89.385 56.875 89.2841 56.979C90.601 59.617 91.929 62.2741 93.3261 65.07C94.888 63.9611 96.3571 62.919 97.907 61.819ZM78.012 82.143C76.908 81.704 75.9771 81.289 75.012 80.978C74.74 80.8891 74.2381 80.994 74.0661 81.198C72.46 83.11 70.9041 85.063 69.271 87.082C70.844 88.199 72.3051 89.2371 73.9001 90.37C75.281 87.606 76.599 84.969 78.012 82.143ZM108.671 65.073C110.089 62.228 111.407 59.583 112.778 56.83C111.706 56.414 110.73 55.994 109.723 55.673C109.462 55.59 108.978 55.7121 108.808 55.917C107.214 57.827 105.665 59.7741 104.041 61.7901C105.606 62.8991 107.07 63.938 108.671 65.073ZM123.984 82.142C125.371 84.9201 126.705 87.5921 128.094 90.374C129.711 89.221 131.167 88.182 132.708 87.083C131.084 85.072 129.558 83.147 127.975 81.271C127.781 81.0401 127.231 80.911 126.929 81.004C125.967 81.298 125.045 81.72 123.984 82.142ZM143.43 90.377C144.834 87.5601 146.156 84.905 147.53 82.147C146.442 81.7121 145.474 81.278 144.47 80.9561C144.212 80.8731 143.725 81.041 143.541 81.26C141.961 83.143 140.427 85.065 138.801 87.073C140.376 88.197 141.84 89.242 143.43 90.377ZM117.112 38.244L116.624 37.9301C116.384 38.304 116.016 38.648 115.924 39.056C115.204 42.242 113.604 44.884 111.219 47.101C110.867 47.428 110.637 48.044 110.613 48.5401C110.47 51.434 110.497 51.4361 113.155 52.4671C113.285 52.517 113.416 52.565 113.546 52.614C114.73 53.057 115.371 52.6801 115.504 51.417C115.557 50.912 115.522 50.396 115.516 49.885C115.467 45.9301 115.373 41.97 117.112 38.244ZM86.844 53.213C88.12 52.73 89.089 52.416 90.0081 51.994C90.5091 51.765 91.288 51.3781 91.313 51.0191C91.391 49.903 91.606 48.2901 90.986 47.719C88.282 45.23 86.527 42.302 85.647 38.7741C85.5671 38.4561 85.126 38.2271 84.8531 37.957L84.536 38.2271C86.375 42.127 86.156 46.2841 86.199 50.4201C86.208 51.319 86.6021 52.213 86.844 53.213ZM100.992 58.849C102.589 56.881 104.033 55.007 105.586 53.228C106.414 52.28 106.567 51.322 106.222 50.106C102.721 51.322 99.2431 51.199 95.3991 50.1331C95.6491 51.184 95.622 52.104 96.052 52.689C97.567 54.746 99.2381 56.688 100.992 58.849ZM141.476 75.882L141.04 75.417C137.523 76.5601 134.005 76.573 130.256 75.412C130.387 76.351 130.251 77.233 130.625 77.74C132.22 79.9 133.967 81.949 135.749 84.15C137.351 82.183 138.901 80.392 140.307 78.494C140.862 77.746 141.096 76.76 141.476 75.882ZM66.2281 84.157C67.835 82.174 69.2431 80.3311 70.773 78.594C71.599 77.656 71.835 76.702 71.485 75.414C67.997 76.584 64.484 76.5611 60.648 75.3891C60.844 76.392 60.7691 77.28 61.167 77.819C62.735 79.944 64.4511 81.958 66.2281 84.157ZM101.008 89.464C101.995 88.4201 102.972 87.4301 103.888 86.386C104.13 86.111 104.351 85.641 104.297 85.306C103.576 80.8621 102.804 76.427 102.04 71.96H99.954C99.192 76.4041 98.427 80.796 97.7071 85.195C97.6501 85.5451 97.798 86.039 98.032 86.306C98.976 87.3831 99.991 88.397 101.008 89.464ZM136.801 97.3001C134.774 97.054 134.747 97.049 134.437 98.854C133.091 106.699 131.756 114.546 130.444 122.397C130.366 122.865 130.345 123.53 130.608 123.837C132.263 125.773 134.007 127.633 135.759 129.56C137.501 127.644 139.16 125.877 140.734 124.038C141.027 123.695 141.133 123.031 141.058 122.558C140.214 117.272 139.324 111.993 138.432 106.715C137.899 103.56 137.341 100.409 136.801 97.3001ZM66.224 129.56C67.984 127.63 69.678 125.836 71.278 123.961C71.573 123.615 71.63 122.916 71.548 122.422C70.2321 114.524 68.882 106.631 67.526 98.74C67.2181 96.953 67.147 96.927 65.252 97.361C65.2171 97.4461 65.1651 97.5291 65.1501 97.6181C63.703 106.061 62.252 114.502 60.839 122.951C60.783 123.286 60.995 123.761 61.236 124.035C62.8361 125.854 64.4781 127.636 66.224 129.56ZM108.306 83.69C113.872 81.535 119.255 79.468 124.619 77.349C125.19 77.1231 126.074 76.594 126.071 76.213C126.06 74.994 126.703 73.6231 125.45 72.558C122.891 70.382 121.206 67.657 120.455 64.358C120.368 63.975 120.051 63.52 119.712 63.341C118.303 62.6021 116.845 61.955 115.291 61.22C114.305 63.195 113.225 65.398 112.107 67.582C111.258 69.24 109.948 69.958 108.38 69.634C107.854 69.525 107.354 69.285 106.682 69.048C106.466 69.666 106.044 70.246 106.123 70.7481C106.79 75.021 107.549 79.2791 108.306 83.69ZM86.5971 61.016C84.943 61.83 83.4211 62.548 81.934 63.334C81.615 63.5031 81.277 63.886 81.2021 64.226C80.476 67.518 78.8261 70.246 76.339 72.501C76.0921 72.726 75.9001 73.108 75.854 73.44C75.4411 76.428 75.61 76.695 78.4091 77.775C79.016 78.01 79.622 78.245 80.229 78.48C84.6801 80.199 89.131 81.919 93.7021 83.684C94.407 79.486 95.1241 75.416 95.747 71.3311C95.856 70.616 95.573 69.841 95.4611 69.015C92.126 70.2221 90.964 69.747 89.532 66.884C88.516 64.851 87.4991 62.818 86.5971 61.016ZM116.656 23.318C117.293 15.637 114.069 9.46303 107.639 6.37807C101.706 3.53102 94.751 4.64406 89.888 9.21706C86.011 12.8631 83.716 20.067 85.367 24.035C86.5661 21.37 88.813 21.803 91.006 21.671C93.588 21.516 96.231 21.209 98.688 20.452C101.414 19.611 103.997 18.259 106.572 16.989C108.07 16.25 109.551 15.786 110.829 17.043C112.891 19.0711 114.778 21.277 116.656 23.318ZM119.982 49.2371C120.915 47.626 122.22 46.8941 124.037 46.971C130.27 47.233 135.996 45.579 141.308 42.348C143.357 41.103 144.794 41.3111 146.412 43.062C148.136 44.928 149.79 46.86 151.428 48.7111C151.975 41.9511 149.932 36.173 143.812 32.48C138.161 29.07 132.307 29.209 126.803 32.841C121.005 36.666 119.17 42.381 119.982 49.2371ZM124.255 51.2171C124.255 53.3361 124.213 55.329 124.267 57.319C124.322 59.3631 124.187 61.47 124.634 63.4361C125.954 69.2371 130.888 72.393 136.244 72.074C142.335 71.7111 146.628 67.297 146.855 61.354C146.994 57.724 146.9 54.085 146.885 50.45C146.884 50.105 146.804 49.674 146.591 49.431C145.582 48.28 144.515 47.182 143.409 46.001C137.519 49.539 131.2 51.323 124.255 51.2171ZM89.808 25.957C89.808 30.026 89.365 34.1231 89.917 38.08C90.666 43.439 95.8991 47.057 101.437 46.78C106.992 46.502 111.475 42.546 111.936 37.069C112.275 33.043 112.111 28.973 112.15 24.922C112.153 24.671 112.038 24.361 111.87 24.1751C110.819 23.0081 109.737 21.8681 108.692 20.747C99.8791 25.049 98.526 25.421 89.808 25.957ZM54.7741 51.713C54.7741 54.314 54.861 57.246 54.756 60.171C54.523 66.703 59.229 71.505 65.235 72.08C71.015 72.6331 76.8011 68.1181 77.215 62.291C77.419 59.417 77.1651 56.504 77.455 53.6441C77.745 50.78 76.913 48.5761 74.683 46.838C74.647 46.8101 74.61 46.777 74.585 46.739C74.127 46.022 73.6341 46.1651 72.9411 46.495C70.6801 47.572 68.4511 48.845 66.0611 49.4881C62.455 50.458 58.7231 50.96 54.7741 51.713ZM120.026 83.641C116.29 85.1021 112.58 86.35 109.052 87.991C105.411 89.684 103.229 92.7 103.19 96.814C103.089 107.723 103.123 118.634 103.104 129.543C103.104 129.636 103.072 129.763 103.119 129.817C103.358 130.092 103.614 130.57 103.873 130.577C106.33 130.634 108.788 130.611 111.399 130.611V128.824C111.399 119.592 111.396 110.359 111.406 101.127C111.407 100.528 111.43 99.905 111.591 99.334C111.881 98.306 112.645 97.814 113.708 97.91C114.77 98.005 115.402 98.632 115.548 99.6851C115.618 100.189 115.594 100.708 115.594 101.221C115.597 110.453 115.596 119.685 115.596 128.917V130.515H130.927C129.581 129.029 128.412 127.712 127.213 126.423C126.26 125.399 125.881 124.263 126.124 122.845C127.614 114.171 129.08 105.492 130.499 96.8051C130.625 96.0341 130.358 95.198 130.263 94.294C126.903 95.5191 125.729 95.0501 124.302 92.198C122.89 89.375 121.48 86.551 120.026 83.641ZM90.6031 130.619C92.932 130.619 95.0291 130.53 97.115 130.649C98.521 130.73 98.9461 130.322 98.934 128.877C98.865 120.765 98.907 112.651 98.897 104.538C98.8941 101.881 98.9721 99.216 98.7901 96.57C98.495 92.263 96.209 89.271 92.235 87.636C89.136 86.361 85.992 85.198 82.865 83.992C82.578 83.881 82.271 83.82 81.9211 83.721C80.495 86.5811 79.106 89.371 77.713 92.157C76.277 95.027 75.0921 95.509 71.755 94.287C71.648 95.181 71.359 96.0141 71.485 96.778C72.8831 105.28 74.3211 113.775 75.809 122.261C76.127 124.074 75.763 125.532 74.4261 126.828C73.281 127.938 72.263 129.179 71.031 130.536H86.4051V128.817C86.406 119.351 86.4001 109.885 86.412 100.42C86.413 98.8101 87.132 97.94 88.397 97.895C89.7231 97.848 90.5291 98.7581 90.599 100.393C90.615 100.765 90.6031 101.139 90.6031 101.512V128.79V130.619ZM61.403 130.536C60.1 129.087 59.002 127.784 57.815 126.568C56.667 125.394 56.355 124.093 56.6341 122.484C58.1231 113.907 59.57 105.324 60.9731 96.733C61.0971 95.974 60.799 95.146 60.683 94.239C57.604 95.557 56.2 95.044 54.881 92.412C53.427 89.509 51.98 86.6021 50.506 83.65C47.314 84.8891 44.239 86.0871 41.161 87.276C35.8471 89.327 33.5761 92.637 33.574 98.367C33.5711 106.104 33.573 113.841 33.573 121.578C33.573 124.188 33.548 126.798 33.601 129.408C33.609 129.81 33.9681 130.544 34.183 130.551C36.7231 130.631 39.267 130.603 41.9201 130.603V128.753C41.9201 119.572 41.919 110.39 41.922 101.208C41.922 100.696 41.8951 100.176 41.9721 99.673C42.132 98.63 42.762 97.997 43.8261 97.9091C44.888 97.82 45.651 98.3111 45.934 99.343C46.091 99.914 46.11 100.537 46.111 101.137C46.121 110.365 46.1181 119.594 46.1181 128.822V130.536H61.403ZM172.625 131.218C171.636 133.91 169.659 134.85 166.863 134.843C146.163 134.793 125.464 134.824 104.764 134.794C103.672 134.792 102.58 134.464 101.487 134.296C101.223 134.256 100.95 134.209 100.69 134.238C99.0401 134.419 97.393 134.788 95.744 134.791C75.558 134.83 55.371 134.817 35.184 134.816C30.965 134.816 29.377 133.217 29.377 128.975C29.376 118.671 29.3731 108.368 29.3781 98.065C29.382 91.0241 32.833 85.986 39.382 83.445C44.6751 81.391 49.958 79.3111 55.277 77.327C56.2801 76.953 56.589 76.489 56.6281 75.4461C56.684 73.953 56.3421 72.866 55.141 71.8211C53.022 69.975 51.781 67.5031 51.135 64.766C50.9251 63.877 50.57 63.41 49.5711 63.14C45.015 61.9091 43.015 56.655 45.4101 52.59C45.74 52.03 45.87 51.304 45.9301 50.6391C46.2321 47.312 46.028 43.865 46.838 40.673C48.604 33.71 53.308 29.216 60.063 26.874C61.3111 26.44 62.4051 26.99 62.8161 28.0921C63.216 29.163 62.739 30.282 61.4561 30.762C58.4721 31.876 55.864 33.481 53.82 35.968C50.6971 39.768 49.898 44.2 50.205 48.945C50.209 49.009 50.3271 49.065 50.439 49.169C50.574 49.0811 50.786 49.02 50.8571 48.885C51.6861 47.289 53.091 46.922 54.7381 46.983C59.235 47.148 63.5511 46.307 67.657 44.486C69.1 43.846 70.4721 43.0451 71.8581 42.285C73.886 41.172 75.271 41.346 76.8581 43.026C78.1701 44.4151 79.4611 45.8261 80.7111 47.27C81.1231 47.745 81.3791 48.355 81.715 48.917C81.756 48.906 81.902 48.891 81.9041 48.864C82.299 43.6281 81.3261 38.76 77.393 35.016C75.782 33.481 73.677 32.457 71.7641 31.252C71.263 30.938 70.6281 30.844 70.0761 30.6C68.82 30.0451 68.318 29.021 68.7281 27.9251C69.143 26.815 70.239 26.188 71.4621 26.7C73.637 27.6121 75.73 28.723 77.845 29.773C78.245 29.9721 78.5921 30.278 78.845 30.453C79.4091 29.218 79.9771 28.0711 80.453 26.887C80.652 26.391 80.699 25.819 80.74 25.276C80.9821 22.035 80.787 18.6961 81.5091 15.569C83.58 6.60207 92.4461 0.149064 101.487 0.631974C111.296 1.15602 119.248 8.11598 120.59 17.521C120.93 19.903 120.76 22.354 120.932 24.767C120.994 25.647 121.333 26.517 121.608 27.371C121.945 28.418 122.347 29.443 122.752 30.563C125.651 28.224 128.958 26.761 132.666 26.141C143.876 24.266 155.034 33.1861 155.589 44.52C155.648 45.729 155.676 46.942 155.677 48.153C155.677 50.0031 155.792 51.725 156.667 53.516C158.543 57.354 156.217 62.0241 152.066 63.158C151.144 63.41 150.759 63.814 150.571 64.677C149.937 67.584 148.445 70.01 146.308 72.059C145.536 72.799 144.956 75.71 145.482 76.588C145.664 76.893 146.132 77.067 146.503 77.2121C151.924 79.323 157.356 81.403 162.773 83.523C168.02 85.577 171.358 89.271 172.408 94.895C172.441 95.073 172.551 95.236 172.625 95.406V107.156C171.882 108.013 171.138 108.876 169.811 108.348C168.528 107.838 168.414 106.753 168.422 105.577C168.441 102.92 168.456 100.263 168.421 97.606C168.364 93.393 166.64 90.005 162.811 88.173C159.177 86.434 155.33 85.142 151.505 83.625C150.033 86.559 148.615 89.3831 147.199 92.208C145.773 95.054 144.57 95.536 141.282 94.297C141.175 95.142 140.893 95.929 141.011 96.652C142.402 105.199 143.815 113.743 145.318 122.271C145.632 124.052 145.317 125.443 144.039 126.716C142.878 127.873 141.827 129.14 140.577 130.524H155.884V128.774C155.884 119.545 155.88 110.315 155.892 101.086C155.893 100.487 155.92 99.8631 156.088 99.2951C156.391 98.2691 157.228 97.641 158.209 97.969C158.917 98.205 159.53 98.9561 159.989 99.615C160.234 99.968 160.079 100.611 160.079 101.123C160.082 110.398 160.082 119.674 160.082 128.95V130.618C162.617 130.618 164.9 130.578 167.18 130.637C168.171 130.663 168.457 130.316 168.447 129.348C168.402 125.247 168.441 121.144 168.421 117.043C168.415 115.854 168.556 114.761 169.838 114.288C171.146 113.806 171.931 114.608 172.625 115.55V131.218Z" fill="#003951"/>
</svg>
