<svg width="200" height="200" viewBox="0 0 200 200" fill="none" xmlns="http://www.w3.org/2000/svg">
<path opacity="0.2667" d="M100 170.183C101.637 170.183 103.272 170.187 104.907 170.194C106.542 170.202 108.173 170.213 109.802 170.227C111.431 170.242 113.054 170.259 114.673 170.281C116.292 170.303 117.904 170.329 119.509 170.358C121.114 170.386 122.711 170.419 124.298 170.456C125.885 170.491 127.462 170.531 129.029 170.573C130.595 170.617 132.149 170.663 133.689 170.713C135.23 170.763 136.756 170.817 138.268 170.873C139.78 170.93 141.276 170.99 142.755 171.054C144.235 171.117 145.696 171.183 147.14 171.254C148.583 171.323 150.007 171.396 151.41 171.472C152.814 171.549 154.196 171.628 155.557 171.711C156.918 171.793 158.255 171.878 159.57 171.966C160.884 172.055 162.174 172.147 163.44 172.241C164.704 172.335 165.944 172.431 167.155 172.531C168.368 172.631 169.553 172.733 170.711 172.838C171.868 172.943 172.996 173.05 174.095 173.159C175.194 173.269 176.262 173.382 177.301 173.497C178.34 173.611 179.346 173.728 180.321 173.848C181.296 173.966 182.238 174.087 183.147 174.211C184.056 174.334 184.932 174.459 185.773 174.586C186.614 174.714 187.421 174.843 188.192 174.973C188.963 175.104 189.699 175.237 190.399 175.37C191.099 175.505 191.761 175.641 192.388 175.777C193.014 175.914 193.603 176.053 194.154 176.192C194.706 176.332 195.219 176.472 195.694 176.615C196.169 176.757 196.606 176.9 197.003 177.044C197.401 177.187 197.759 177.332 198.078 177.477C198.398 177.623 198.677 177.768 198.918 177.915C199.157 178.062 199.358 178.209 199.519 178.356C199.679 178.505 199.799 178.652 199.879 178.8C199.959 178.949 200 179.097 200 179.245C200 179.393 199.959 179.542 199.879 179.689C199.799 179.838 199.679 179.985 199.519 180.134C199.358 180.281 199.157 180.428 198.918 180.574C198.677 180.721 198.398 180.867 198.078 181.013C197.759 181.158 197.401 181.303 197.003 181.447C196.606 181.591 196.169 181.734 195.694 181.875C195.219 182.018 194.706 182.158 194.154 182.298C193.603 182.438 193.014 182.575 192.388 182.713C191.761 182.85 191.099 182.985 190.399 183.12C189.699 183.254 188.963 183.386 188.192 183.517C187.421 183.648 186.614 183.776 185.773 183.904C184.932 184.031 184.056 184.157 183.147 184.279C182.238 184.403 181.296 184.524 180.321 184.643C179.346 184.762 178.34 184.879 177.301 184.994C176.262 185.109 175.194 185.221 174.095 185.331C172.996 185.441 171.868 185.548 170.711 185.653C169.553 185.757 168.368 185.859 167.155 185.959C165.944 186.059 164.704 186.155 163.44 186.25C162.174 186.344 160.884 186.435 159.57 186.524C158.255 186.612 156.918 186.697 155.557 186.779C154.196 186.863 152.814 186.942 151.41 187.018C150.007 187.094 148.583 187.167 147.14 187.237C145.696 187.307 144.235 187.373 142.755 187.437C141.276 187.5 139.78 187.56 138.268 187.617C136.756 187.673 135.23 187.727 133.689 187.777C132.149 187.827 130.595 187.873 129.029 187.917C127.462 187.959 125.885 187.999 124.298 188.036C122.711 188.071 121.114 188.104 119.509 188.133C117.904 188.161 116.292 188.187 114.673 188.209C113.054 188.231 111.431 188.249 109.802 188.263C108.173 188.277 106.542 188.288 104.907 188.296C103.272 188.303 101.637 188.307 100 188.307C98.3634 188.307 96.7277 188.303 95.0931 188.296C93.4584 188.288 91.8267 188.277 90.198 188.263C88.5693 188.249 86.9455 188.231 85.3267 188.209C83.7079 188.187 82.096 188.161 80.4911 188.133C78.8861 188.104 77.2891 188.071 75.702 188.036C74.1149 187.999 72.5376 187.959 70.9713 187.917C69.4049 187.873 67.8515 187.827 66.3109 187.777C64.7703 187.727 63.2436 187.673 61.7317 187.617C60.2198 187.56 58.7238 187.5 57.2446 187.437C55.7653 187.373 54.304 187.307 52.8604 187.237C51.4168 187.167 49.9931 187.094 48.5901 187.018C47.1861 186.942 45.804 186.863 44.4426 186.779C43.0822 186.697 41.7446 186.612 40.4297 186.524C39.1158 186.435 37.8257 186.344 36.5604 186.25C35.296 186.155 34.0564 186.059 32.8446 185.959C31.6317 185.859 30.4465 185.757 29.2891 185.653C28.1317 185.548 27.004 185.441 25.905 185.331C24.8059 185.221 23.7376 185.109 22.699 184.994C21.6604 184.879 20.6544 184.762 19.6792 184.643C18.704 184.524 17.7624 184.403 16.8535 184.279C15.9436 184.157 15.0683 184.031 14.2267 183.904C13.3861 183.776 12.5792 183.648 11.8079 183.517C11.0366 183.386 10.301 183.254 9.601 183.12C8.901 182.985 8.23861 182.85 7.61188 182.713C6.98614 182.575 6.39703 182.438 5.84555 182.298C5.29406 182.158 4.78118 182.018 4.30594 181.875C3.8307 181.734 3.39405 181.591 2.99702 181.447C2.59901 181.303 2.24059 181.158 1.92178 181.013C1.60198 180.867 1.32277 180.721 1.08218 180.574C0.842572 180.428 0.641579 180.281 0.481181 180.134C0.320797 179.985 0.200993 179.838 0.120786 179.689C0.0405944 179.542 0 179.393 0 179.245C0 179.097 0.0405944 178.949 0.120786 178.8C0.200993 178.652 0.320797 178.505 0.481181 178.356C0.641579 178.209 0.842572 178.062 1.08218 177.915C1.32277 177.768 1.60198 177.623 1.92178 177.477C2.24059 177.332 2.59901 177.187 2.99702 177.044C3.39405 176.9 3.8307 176.757 4.30594 176.615C4.78118 176.472 5.29406 176.332 5.84555 176.192C6.39703 176.053 6.98614 175.914 7.61188 175.777C8.23861 175.641 8.901 175.505 9.601 175.37C10.301 175.237 11.0366 175.104 11.8079 174.973C12.5792 174.843 13.3861 174.714 14.2267 174.586C15.0683 174.459 15.9436 174.334 16.8535 174.211C17.7624 174.087 18.704 173.966 19.6792 173.848C20.6544 173.728 21.6604 173.611 22.699 173.497C23.7376 173.382 24.8059 173.269 25.905 173.159C27.004 173.05 28.1317 172.943 29.2891 172.838C30.4465 172.733 31.6317 172.631 32.8446 172.531C34.0564 172.431 35.296 172.335 36.5604 172.241C37.8257 172.147 39.1158 172.055 40.4297 171.966C41.7446 171.878 43.0822 171.793 44.4426 171.711C45.804 171.628 47.1861 171.549 48.5901 171.472C49.9931 171.396 51.4168 171.323 52.8604 171.254C54.304 171.183 55.7653 171.117 57.2446 171.054C58.7238 170.99 60.2198 170.93 61.7317 170.873C63.2436 170.817 64.7703 170.763 66.3109 170.713C67.8515 170.663 69.4049 170.617 70.9713 170.573C72.5376 170.531 74.1149 170.491 75.702 170.456C77.2891 170.419 78.8861 170.386 80.4911 170.358C82.096 170.329 83.7079 170.303 85.3267 170.281C86.9455 170.259 88.5693 170.242 90.198 170.227C91.8267 170.213 93.4584 170.202 95.0931 170.194C96.7277 170.187 98.3634 170.183 100 170.183Z" fill="#00C2B5"/>
<path d="M131.723 42.6565C131.723 44.8079 131.689 46.7723 131.732 48.7347C131.787 51.3248 131.045 53.6347 129.537 55.7377C129.23 56.1654 129.014 56.7614 129.007 57.2833C128.961 60.7139 128.951 64.1455 128.994 67.5752C129.029 70.3476 130.474 71.7317 133.299 71.7713C135.274 71.8001 137.254 71.8615 139.225 71.7564C141.584 71.6307 143.459 72.4277 145.036 74.1693C146.239 75.499 147.565 76.7169 149.104 78.2525C150.599 76.6238 151.931 75.1663 153.271 73.7168C154.547 72.3377 156.125 71.7218 158.01 71.7673C159.985 71.8169 161.961 71.7822 163.937 71.7772C167.437 71.7684 168.727 70.4812 168.731 66.9674C168.738 60.5219 168.735 54.0763 168.732 47.6308C168.73 43.8813 167.52 42.6595 163.804 42.6585C153.718 42.6536 143.632 42.6565 133.546 42.6565H131.723ZM68.9208 42.8426C68.5129 42.7684 68.2148 42.6664 67.9168 42.6664C57.1515 42.6585 46.3861 42.6387 35.6208 42.6753C32.996 42.6852 31.5762 44.1634 31.5653 46.7803C31.5366 53.6961 31.5396 60.6109 31.5624 67.5277C31.5713 70.2991 33.0247 71.7129 35.8218 71.7732C36.7574 71.7942 37.694 71.7743 38.6297 71.7782C45.703 71.806 44.6495 71.2158 49.7584 76.3673C50.2931 76.906 50.6881 77.5832 51.4099 78.5466C53.0703 76.7208 54.3297 75.3427 55.5812 73.9575C56.994 72.3941 58.7238 71.6752 60.8525 71.7604C62.8772 71.8417 64.9079 71.7961 66.9366 71.7723C69.8614 71.7387 71.2406 70.3802 71.2643 67.4673C71.2941 63.9832 71.3 60.499 71.2455 57.0159C71.2366 56.3872 71.0049 55.6931 70.6742 55.1525C69.5317 53.2852 68.8901 51.304 68.9158 49.105C68.9396 47.0318 68.9208 44.9574 68.9208 42.8426ZM122.654 11C123.44 11.2605 124.252 11.4575 125.004 11.7912C129.255 13.6793 131.597 16.9465 131.696 21.614C131.798 26.4476 131.722 31.2842 131.724 36.1199C131.724 36.6783 131.724 37.2357 131.724 37.9752H133.723C143.759 37.9752 153.797 37.9723 163.834 37.9763C170.148 37.9792 173.412 41.2624 173.416 47.6138C173.42 54.0614 173.422 60.5099 173.415 66.9575C173.408 73.0723 170.054 76.4367 163.988 76.4634C161.704 76.4743 159.182 75.9506 157.204 76.7485C155.282 77.5238 153.916 79.6793 152.31 81.2327C149.9 83.5644 147.551 83.7694 145.496 81.1644C142.44 77.2922 138.798 76.0149 133.909 76.3525C127.646 76.7842 124.306 73.1308 124.301 66.8277C124.299 64.4446 124.3 62.0624 124.3 59.9584C119.92 59.9584 115.679 59.8882 111.446 60.0139C110.53 60.0416 109.442 60.5783 108.769 61.2277C107.09 62.8495 105.623 64.6882 104.036 66.407C101.759 68.8743 98.8257 68.8506 96.5841 66.3614C95.2277 64.8545 93.8257 63.3793 92.5832 61.7812C91.4832 60.3663 90.1752 59.8079 88.4039 59.9317C86.696 60.0515 84.9723 59.9921 83.2574 59.9485C80.8861 59.8892 78.5158 59.7723 75.9535 59.6703C75.9535 62.1842 75.9277 64.8683 75.9614 67.5506C75.9921 69.9446 75.3228 72.0654 73.6604 73.8179C71.9554 75.6159 69.8099 76.4149 67.3663 76.4516C65.703 76.4773 64.0238 76.5941 62.3772 76.4238C60.4218 76.2218 59.0119 76.8871 57.7653 78.3496C56.7237 79.5714 55.5119 80.6545 54.3267 81.7455C52.5406 83.3882 50.3792 83.4159 48.5911 81.7654C47.0634 80.3555 45.6802 78.7872 44.1277 77.4079C43.5693 76.9119 42.7139 76.5437 41.9713 76.501C39.8465 76.3812 37.7089 76.4901 35.5772 76.4505C30.4059 76.3535 26.903 72.8188 26.8802 67.6337C26.8505 60.7189 26.8564 53.803 26.8782 46.8872C26.896 41.5199 30.3812 38.0059 35.7832 37.9872C46.1317 37.9506 56.4812 37.9752 66.8297 37.9752H68.9188V36.1882C68.9188 31.613 68.9109 27.0376 68.9208 22.4614C68.9327 16.5901 71.6921 12.9298 77.3376 11.2555C77.4742 11.2149 77.5851 11.0871 77.7079 11H91.7535C92.898 11.7179 93.7119 12.6516 93.2198 14.0832C92.7317 15.504 91.5208 15.7109 90.1723 15.6951C86.8436 15.6545 83.5138 15.6743 80.1851 15.6831C76.0218 15.6951 73.6109 18.096 73.6049 22.2763C73.5921 31.0653 73.5931 39.8555 73.6049 48.6436C73.6109 52.808 76.0267 55.2386 80.1802 55.2713C83.1455 55.2951 86.1119 55.3406 89.0752 55.2575C91.8386 55.1803 93.998 56.2257 95.7525 58.3119C97.2188 60.0564 98.7544 61.7426 100.327 63.5307C102.08 61.5753 103.743 59.7179 105.41 57.8653C106.952 56.1505 108.851 55.2505 111.188 55.2703C114.309 55.297 117.431 55.302 120.551 55.2693C124.58 55.2287 127.033 52.7416 127.038 48.7C127.049 39.8585 127.05 31.0178 127.037 22.1763C127.032 18.1486 124.551 15.6931 120.502 15.6842C114.624 15.6734 108.746 15.6703 102.868 15.6902C101.551 15.6951 100.348 15.5813 99.7901 14.1387C99.2208 12.6674 100.128 11.8148 101.118 11H122.654Z" fill="#003951"/>
<path d="M66.9139 166.027V161.487C65.5198 163.115 64.3377 164.495 63.0258 166.027H66.9139ZM55.5109 139.525C52.7466 140.786 50.0782 140.614 47.2743 139.631C47.2743 140.668 47.2743 141.439 47.2743 142.209C47.2743 144.608 47.9297 145.588 50.307 145.715C51.7743 145.792 53.2971 145.233 54.7535 144.814C55.0931 144.716 55.4446 144.042 55.4773 143.609C55.5723 142.331 55.5109 141.041 55.5109 139.525ZM30.8297 153.481C30.2139 154.955 29.4436 156.041 29.3476 157.183C29.1307 159.765 29.206 162.376 29.2703 164.973C29.2812 165.355 29.8772 166.04 30.2159 166.049C33.4584 166.131 36.703 166.097 40.2545 166.097C37.0773 161.845 34.1089 157.871 30.8297 153.481ZM94.5 131.574C94.5 133.813 94.4644 135.781 94.5297 137.746C94.5426 138.134 94.8545 138.61 95.1713 138.877C97.8733 141.151 102.555 141.162 105.308 138.907C105.637 138.637 106.008 138.183 106.021 137.804C106.092 135.795 106.054 133.782 106.054 131.581C102.166 132.824 98.4386 132.895 94.5 131.574ZM66.9089 118.007C68.1208 115.055 68.5446 112.609 68.3466 109.854C68.0089 105.145 64.6505 101.875 60.4802 102.135C59.6129 102.189 59.2357 102.5 59.0159 103.364C58.6733 104.71 58.2377 106.055 57.6386 107.304C56.6179 109.43 56.4456 109.613 58.303 111.211C61.0426 113.566 63.9683 115.703 66.9089 118.007ZM140.158 148.786C137.871 149.729 135.809 150.546 133.786 151.449C133.505 151.575 133.255 152.133 133.262 152.486C133.304 154.919 133.448 157.352 133.499 159.785C133.544 161.843 133.508 163.902 133.508 165.996H144.045C140.863 160.667 140.401 154.891 140.158 148.786ZM144.813 142.578C145.053 150.341 144.157 158.044 149 164.924C153.77 157.954 152.913 150.312 153.094 142.522C150.212 143.956 147.59 143.758 144.813 142.578ZM157.719 148.709C157.663 154.956 156.993 160.73 153.89 166.101C159.402 166.101 164.648 166.093 169.893 166.11C170.74 166.112 171.149 165.772 171.141 164.918C171.117 162.373 171.167 159.826 171.059 157.284C170.984 155.5 170.048 154.025 168.46 153.29C165.037 151.707 161.524 150.317 157.719 148.709ZM82.8703 145.572C80.2773 146.678 77.6941 147.631 75.2535 148.865C73.0099 150 71.8426 152.029 71.7634 154.56C71.6891 156.95 71.7347 159.342 71.7297 161.733C71.7268 163.162 71.7287 164.591 71.7287 166.033H91.3565C90.3832 158.424 87.605 151.674 82.8703 145.572ZM109.017 166.012H128.682C128.682 161.885 128.827 157.842 128.629 153.816C128.509 151.37 126.963 149.595 124.728 148.575C122.653 147.629 120.543 146.755 118.409 145.951C118.035 145.809 117.263 146.01 117.026 146.321C112.59 152.136 109.953 158.691 109.017 166.012ZM104.267 166.06C105.237 157.817 108.167 150.431 113.03 143.721C111.871 143.236 110.894 142.734 109.857 142.433C109.364 142.29 108.633 142.347 108.225 142.626C102.989 146.222 97.5426 146.216 92.2555 142.598C91.8773 142.339 91.205 142.257 90.7644 142.395C89.6505 142.745 88.5901 143.266 87.3941 143.765C92.3149 150.504 95.1188 157.944 96.1277 166.06H104.267ZM53.0862 112.957C51.1683 113.874 49.0327 114.717 47.0822 115.872C44.5535 117.369 42.1456 119.078 39.7535 120.792C39.3921 121.052 39.1515 121.895 39.2763 122.355C40.5594 127.117 43.0792 131.106 47.0673 134.061C50.1208 136.325 52.5674 136.336 55.6376 134.111C59.2941 131.463 61.599 127.831 63.1743 123.642C63.7149 122.203 63.5594 121.278 62.3218 120.327C59.206 117.931 56.1703 115.43 53.0862 112.957ZM35.3753 151.74C38.898 156.451 42.2674 160.99 45.6951 165.484C45.9703 165.846 46.6436 166.066 47.1367 166.076C49.9406 166.132 52.7475 166.159 55.5485 166.062C56.2169 166.039 57.0535 165.673 57.4961 165.18C60.302 162.05 63.0763 158.884 65.7337 155.628C66.5872 154.581 67.0545 153.222 67.7594 151.892C64.5466 150.571 61.7782 149.408 58.9822 148.314C58.6436 148.181 58.0773 148.303 57.7515 148.515C53.5109 151.254 49.2941 151.256 45.0446 148.539C44.7109 148.326 44.1505 148.173 43.8169 148.303C41.0703 149.372 38.3525 150.516 35.3753 151.74ZM137.141 122.58C137.401 127.571 141.006 134.128 145.118 137.271C147.891 139.391 150.087 139.38 152.887 137.231C159.143 132.429 162.403 123.013 160.366 115.437C159.651 112.772 158.437 110.372 156.041 108.582C152.402 117.057 145.862 121.384 137.141 122.58ZM80.7169 103.941C82.4287 102.923 83.9812 102.099 85.4169 101.106C86.2228 100.549 86.9961 99.8089 87.4951 98.9773C88.2149 97.7763 89.1119 97.3238 90.4545 97.5099C95.3178 98.1823 98.605 96.3545 100.555 91.9257C101.562 89.6416 103.364 89.3644 105.004 91.2762C106.489 93.0089 108.287 93.711 110.555 93.206C112.511 92.7713 113.146 93.2743 114.018 95.1426C114.549 96.2793 115.353 97.3486 116.24 98.2426C117.287 99.2981 118.557 100.132 119.801 101.118C120.052 100.638 120.383 100.115 120.609 99.5505C121.09 98.3476 121.598 97.1456 121.949 95.9021C122.685 93.2882 121.448 91.2714 118.802 90.6129C116.791 90.112 116.174 88.9743 116.87 87.0456C117.704 84.7347 117.226 82.8525 115.5 81.6575C113.768 80.4564 111.777 80.6981 109.984 82.3268C108.154 83.9881 106.314 83.4139 105.749 81.004C104.704 76.5555 100.513 74.8921 96.7396 77.4287C95.1268 78.5119 94.2664 78.4545 92.9228 77.0792C91.7396 75.8684 90.3604 75.308 88.6941 75.7496C86.9772 76.204 85.8881 77.3565 85.5951 79.0941C85.3139 80.7663 84.398 81.405 82.7575 81.5892C77.403 82.1902 74.6357 88.1179 77.7178 92.4604C78.6248 93.7387 79.0674 94.9565 78.9416 96.4832C78.8644 97.409 78.908 98.3575 79.003 99.2852C79.1822 101.048 79.4941 102.779 80.7169 103.941ZM35.9773 117.57C37.8268 116.186 39.605 114.66 41.5733 113.442C43.2822 112.383 45.1941 111.647 47.0357 110.812C50.6149 109.191 53.3228 106.76 54.3773 102.849C55.1495 99.9862 53.9099 98.0555 51.0178 97.4475C48.1367 96.8426 45.4515 97.5427 42.8436 98.7119C42.3693 98.9238 41.9169 99.1861 41.4357 99.3772C40.1584 99.8822 39.1327 99.4416 38.5307 98.306C37.9614 97.2317 38.1129 96.0179 39.198 95.403C44.0575 92.6496 49.1683 91.3842 54.5218 93.814C55.8654 94.4229 56.8446 95.8119 58.0386 96.7852C58.4485 97.1188 59.0188 97.5169 59.4872 97.4832C66.798 96.9645 72.4555 101.88 73.008 109.303C73.3743 114.233 72.0911 118.768 69.7099 123.04C69.5842 123.265 69.4782 123.58 69.2773 123.675C67.3654 124.586 67.2881 126.672 66.306 128.174C64.6109 130.77 62.7169 133.237 60.9505 135.789C60.5961 136.301 60.2644 136.941 60.2287 137.54C60.1307 139.198 60.2416 140.867 60.1753 142.53C60.1416 143.384 60.401 143.842 61.2218 144.158C63.6911 145.113 66.1119 146.195 68.5961 147.11C69.0644 147.282 69.8139 147.051 70.2931 146.766C71.8 145.876 73.1416 144.652 74.7218 143.952C79.2782 141.935 83.9089 140.082 88.5376 138.232C89.503 137.845 89.9891 137.372 89.8277 136.298C89.7446 135.739 89.7594 135.151 89.8218 134.585C90.206 131.106 89.8446 127.911 86.6921 125.663C86.3277 125.404 86.0753 124.957 85.8426 124.555C85.1881 123.419 85.297 122.348 86.305 121.471C87.2713 120.632 88.5654 120.75 89.5169 121.755C90.302 122.584 90.9753 123.527 91.803 124.308C97.1159 129.33 104.242 129.126 109.247 123.68C113.975 118.535 115.768 112.2 116.035 105.376C116.063 104.64 115.46 103.749 114.913 103.143C113.466 101.546 111.896 100.057 110.353 98.5496C110.124 98.3248 109.789 98.1495 109.474 98.0793C107.528 97.6377 105.572 97.2317 103.339 96.7536C103.311 96.7862 103.02 97.1337 102.722 97.4743C99.9753 100.608 96.5426 102.3 92.3555 102.446C91.8693 102.462 91.3099 102.522 90.9188 102.773C89.2743 103.831 87.7287 105.048 86.0525 106.048C84.9109 106.728 84.3683 107.457 84.7347 108.82C85.0703 110.07 85.2654 111.36 85.4812 112.639C85.7505 114.232 85.0753 115.359 83.7367 115.634C82.4357 115.901 81.1277 115.118 80.9228 113.59C80.5723 110.979 79.5456 108.995 77.4584 107.216C74.7575 104.913 74.299 101.473 74.2743 98.0723C74.2634 96.6447 73.9822 95.4149 73.2505 94.1208C69.6664 87.7872 72.8396 79.7436 79.7505 77.4911C80.7535 77.1644 81.3674 76.7178 81.8555 75.7317C84.102 71.2021 89.7109 69.5733 94.1228 72.1228C94.903 72.5743 95.4822 72.6852 96.3763 72.3188C100.775 70.5139 105.618 71.9357 108.479 75.7546C108.757 76.1268 109.015 76.5149 109.093 76.6268C111.191 76.5574 113.129 76.1793 114.947 76.4951C119.258 77.2466 122.099 80.9278 121.99 85.303C121.965 86.303 122.204 86.8604 123.062 87.4277C126.112 89.4466 127.53 93.005 126.61 96.5585C125.626 100.358 124.188 103.95 121.22 106.756C120.714 107.236 120.615 108.24 120.504 109.026C119.586 115.539 117.586 121.653 112.984 126.484C111.231 128.325 110.49 130.073 110.719 132.485C110.879 134.184 110.217 136.303 111.019 137.503C111.818 138.699 113.974 139.003 115.552 139.66C118.044 140.7 120.548 141.708 123.049 142.722C123.136 142.758 123.25 142.727 123.552 142.727V141.086C123.552 133.7 123.57 126.315 123.548 118.929C123.531 113.74 124.911 108.977 127.765 104.647C128.791 103.089 130.048 102.68 131.281 103.469C132.52 104.26 132.713 105.614 131.707 107.15C129.266 110.875 128.184 114.95 128.217 119.397C128.276 127.511 128.231 135.625 128.235 143.739C128.236 146.058 130.568 147.665 132.653 146.801C134.717 145.946 136.765 145.052 138.857 144.274C139.821 143.917 140.174 143.449 140.213 142.37C140.286 140.32 139.823 138.711 138.414 137.044C134.742 132.697 132.604 127.6 132.289 121.847C132.16 119.51 132.763 118.802 135.051 118.297C136.673 117.939 138.31 117.628 139.913 117.197C146.137 115.522 150.203 111.577 152.095 105.422C152.992 102.502 154.219 101.96 156.908 103.484C162.015 106.378 164.501 111.019 165.397 116.616C166.695 124.719 164.101 131.725 158.895 137.8C157.341 139.612 157.924 141.473 157.851 143.367C157.843 143.561 158.212 143.857 158.465 143.962C162.145 145.501 165.835 147.016 169.678 148.601C169.714 147.984 169.762 147.544 169.763 147.104C169.767 137.793 169.783 128.483 169.762 119.173C169.727 103.394 154.411 93.5209 139.986 99.9624C138.227 100.748 136.906 100.403 136.299 99C135.732 97.6882 136.337 96.5427 138.037 95.7109C153.418 88.1871 172.241 98.4506 174.186 115.436C174.352 116.878 174.434 118.338 174.437 119.789C174.457 130.296 174.437 140.803 174.471 151.309C174.474 152.156 174.809 153.001 174.975 153.849C175.264 155.317 175.691 156.777 175.789 158.258C175.93 160.382 175.838 162.522 175.823 164.655C175.795 168.685 173.68 170.782 169.631 170.782C133.163 170.785 96.6971 170.784 60.2297 170.784C50.398 170.784 40.5664 170.787 30.7347 170.782C26.6822 170.78 24.5664 168.686 24.5396 164.658C24.5248 162.577 24.5416 160.496 24.5357 158.416C24.5228 153.556 26.802 150.227 31.2624 148.37C34.6188 146.973 37.9753 145.578 41.3555 144.241C42.2535 143.886 42.5565 143.404 42.6258 142.42C42.8763 138.857 42.6664 135.567 39.5297 133.076C38.5614 132.307 38.0426 130.969 37.3268 129.886C35.9683 127.828 35.1525 125.528 33.4901 123.527C31.8911 121.602 31.4079 118.621 30.8208 116.016C30.0357 112.533 30.2188 108.987 31.1852 105.52C31.6357 103.903 32.8188 103.113 34.1396 103.497C35.504 103.892 36.0673 105.074 35.6832 106.739C34.7832 110.645 34.904 114.808 35.9773 117.57Z" fill="#003951"/>
<path d="M87.6753 32.9357C87.6882 35.4881 88.6901 37.3476 90.0476 39.0297C92.6684 42.2792 96.0515 44.5783 99.6961 46.5148C100.023 46.6881 100.62 46.6634 100.948 46.4772C104.445 44.501 107.757 42.2466 110.273 39.0664C111.253 37.8297 112.088 36.3861 112.614 34.904C113.547 32.2753 112.587 29.7823 110.358 28.201C108.203 26.6722 105.432 26.7 103.229 28.2733C100.637 30.1238 99.9397 30.1198 97.4496 28.3139C95.4694 26.8763 93.3258 26.6228 91.1456 27.7347C88.9377 28.8604 87.7931 30.7466 87.6753 32.9357ZM82.9961 33.3436C83.005 24.8426 91.9862 19.6693 99.3377 23.9624C100.063 24.3861 100.531 24.4258 101.274 23.9881C105.508 21.499 110.305 21.9258 113.881 25.0228C117.501 28.1564 118.589 32.7486 116.766 37.3446C115.385 40.8288 112.992 43.5812 110.085 45.8218C107.584 47.7505 104.919 49.4931 102.188 51.0812C101.33 51.5803 99.8218 51.7397 98.9575 51.3278C93.4565 48.705 88.4822 45.3456 85.0852 40.0961C83.7595 38.0475 82.9991 35.8089 82.9961 33.3436Z" fill="#003951"/>
<path d="M43.6702 56.4645C44.193 57.6516 44.4108 58.615 44.9673 59.3051C45.9029 60.4644 46.9297 61.6288 48.1376 62.4793C51.998 65.1992 50.8673 65.2259 54.6425 62.3971C56.1712 61.2516 57.4168 59.6141 58.4742 57.9932C59.3237 56.6932 58.8089 55.0883 57.6861 54.2179C56.492 53.2912 55.1544 53.1021 53.9485 54.0536C52.199 55.4319 50.6752 55.316 48.8574 54.0803C48.1217 53.5814 46.6564 53.519 45.8564 53.921C44.9356 54.3842 44.3841 55.5814 43.6702 56.4645ZM47.7524 48.7804C50.0544 50.2368 52.9 49.0417 55.8 48.8626C60.9613 48.5437 64.8415 54.0288 63.0663 58.9783C62.4217 60.7734 61.3128 62.5882 59.9386 63.8932C57.892 65.8367 55.49 67.4417 53.093 68.9615C52.3495 69.4329 50.9603 69.5318 50.1623 69.1635C46.6435 67.5387 43.4782 65.3586 41.198 62.1318C39.5703 59.8248 38.8326 57.2971 39.6475 54.4794C40.6079 51.1595 43.7821 48.7625 47.7524 48.7804Z" fill="#003951"/>
<path d="M144.843 53.3605C144.29 53.502 143.929 53.5575 143.595 53.6853C141.575 54.4515 140.847 56.6417 142.014 58.7268C143.464 61.3149 145.866 62.8902 148.352 64.3308C148.601 64.4753 149.089 64.4605 149.34 64.31C151.754 62.8536 154.055 61.2397 155.573 58.7822C156.613 57.0982 156.465 55.4803 155.288 54.3704C154.027 53.1813 152.647 53.1773 150.917 54.3556C149.421 55.3754 148.302 55.3417 146.766 54.3377C146.133 53.9239 145.412 53.6447 144.843 53.3605ZM161.407 56.6962C160.562 58.5496 159.947 60.5575 158.824 62.2239C156.722 65.3437 153.64 67.4368 150.306 69.0812C149.562 69.4487 148.363 69.5368 147.639 69.1932C143.894 67.4229 140.492 65.1328 138.243 61.5268C136.357 58.507 136.1 55.3901 138.158 52.3169C140.354 49.0378 144.282 47.9535 147.908 49.4753C148.465 49.71 149.293 49.7081 149.849 49.4714C155.081 47.2476 161.043 50.9843 160.99 56.5061L161.407 56.6962Z" fill="#003951"/>
</svg>
