<svg width="20" height="20" viewBox="0 0 20 20" fill="none" xmlns="http://www.w3.org/2000/svg">
<path d="M13.7342 19.462C13.4222 19.4098 13.1072 19.3678 12.7972 19.3038C11.9682 19.1329 11.1922 18.8087 10.4382 18.4371C7.44924 16.9601 5.05723 14.8029 3.18923 12.0529C2.37823 10.86 1.73023 9.58215 1.30123 8.20178C1.05123 7.40003 0.904235 6.57971 1.07123 5.73499C1.15024 5.33411 1.32324 4.98206 1.60723 4.69202C2.09424 4.19397 2.58523 3.6969 3.08824 3.21594C3.71924 2.61194 4.42523 2.61096 5.05123 3.22083C5.78324 3.93372 6.50123 4.66174 7.21823 5.3888C7.53924 5.71399 7.74523 6.09094 7.67423 6.56897C7.62224 6.92493 7.41823 7.19788 7.17324 7.44397C6.76623 7.85315 6.35523 8.25794 5.94723 8.66614C5.73524 8.87805 5.73123 8.93274 5.85224 9.20374C6.31624 10.2457 7.02823 11.1129 7.79223 11.941C8.55324 12.7657 9.39123 13.505 10.3432 14.1032C10.6682 14.3058 11.0182 14.4698 11.3552 14.653C11.5122 14.7369 11.6292 14.672 11.7402 14.5612C12.1592 14.1378 12.5762 13.714 13.0012 13.298C13.1292 13.173 13.2682 13.0529 13.4212 12.9611C13.9042 12.6671 14.4372 12.714 14.8762 13.0719C14.9642 13.1451 15.0502 13.2198 15.1312 13.2999C15.8122 13.9791 16.4972 14.6549 17.1692 15.3419C17.3342 15.5118 17.4882 15.7101 17.5862 15.922C17.7972 16.38 17.7152 16.837 17.3872 17.1989C16.8542 17.7858 16.2902 18.3458 15.7212 18.8981C15.4082 19.2008 15.0052 19.3532 14.5752 19.424C14.5232 19.4318 14.4712 19.4489 14.4192 19.462H13.7342Z" fill="white"/>
<path d="M19.4693 9.6499C19.0033 9.73389 18.5382 9.81787 18.0513 9.90479C17.6973 7.95557 16.8273 6.28857 15.4163 4.91797C14.0043 3.54395 12.3143 2.71973 10.3333 2.4209C10.3993 1.94482 10.4643 1.47363 10.5303 1C11.4253 1.12158 12.2753 1.35059 13.0923 1.68994C14.6283 2.32568 15.9413 3.27783 17.0312 4.53174C18.0873 5.74658 18.8273 7.13477 19.2493 8.69092C19.3293 8.98486 19.3963 9.28174 19.4693 9.57764V9.6499Z" fill="white"/>
<path d="M10.1462 6.08887C10.2112 5.62256 10.2762 5.16162 10.3412 4.70068C12.8152 4.979 15.2272 7.00781 15.7182 9.90381C15.2562 9.98389 14.7932 10.064 14.3262 10.1436C13.8022 7.90088 12.4182 6.55566 10.1462 6.08887Z" fill="white"/>
</svg>
