<svg width="84" height="115" viewBox="0 0 84 115" fill="none" xmlns="http://www.w3.org/2000/svg">
<path d="M42.406 83.772C39.053 83.914 36.729 82.28 34.521 80.344C33.051 79.0559 31.53 77.822 29.99 76.6169C29.39 76.147 28.684 75.8059 28.007 75.4409C27.221 75.0171 26.814 75.2771 26.463 76.124C22.924 84.6689 19.338 93.1951 15.768 101.727C15.647 102.018 15.554 102.321 15.387 102.79C17.982 102.063 20.415 101.381 22.849 100.7C25.305 100.014 26.586 100.538 27.799 102.733C29.026 104.958 30.247 107.186 31.586 109.622C35.213 100.956 38.761 92.479 42.406 83.772ZM80.022 42.4929C80.011 40.8689 79.608 39.7929 78.547 38.4971C76.885 36.468 75.221 34.4409 73.541 32.427C72.169 30.78 71.482 28.8899 71.305 26.761C71.08 24.039 70.849 21.313 70.468 18.6089C70.089 15.9189 67.982 14.0791 65.272 13.824C62.846 13.5959 60.423 13.322 57.993 13.1421C55.471 12.9541 53.286 12.072 51.379 10.3899C49.634 8.85203 47.806 7.40892 46.006 5.93406C43.407 3.80394 40.641 3.79002 38.056 5.89891C36.054 7.53392 34.061 9.18187 32.069 10.831C30.579 12.063 28.897 12.823 26.957 13.0071C24.2 13.269 21.445 13.5591 18.689 13.8259C15.846 14.102 13.714 16.2329 13.442 19.0849C13.212 21.511 12.941 23.935 12.76 26.364C12.571 28.884 11.711 31.0749 10.026 32.9861C8.43802 34.7849 6.95001 36.6721 5.43802 38.5371C3.42101 41.0239 3.44501 43.82 5.48901 46.312C7.15202 48.3391 8.82501 50.3589 10.493 52.383C11.699 53.845 12.437 55.5 12.619 57.4009C12.882 60.157 13.173 62.9109 13.439 65.667C13.701 68.3689 15.546 70.4541 18.237 70.8569C20.279 71.164 22.344 71.397 24.406 71.4741C27.903 71.604 30.962 72.6211 33.526 75.1111C34.926 76.47 36.527 77.623 38.039 78.865C40.581 80.9519 43.352 80.9809 45.909 78.9131C47.891 77.311 49.858 75.6889 51.806 74.0459C53.503 72.615 55.44 71.865 57.652 71.686C60.374 71.466 63.099 71.2241 65.803 70.8491C68.282 70.5061 70.101 68.6579 70.471 66.175C70.77 64.1689 71.014 62.1421 71.08 60.1179C71.198 56.541 72.227 53.416 74.784 50.7971C76.199 49.3501 77.387 47.6809 78.677 46.1111C79.577 45.0139 80.057 43.7671 80.022 42.4929ZM30.969 114.502C30.421 113.834 29.769 113.227 29.344 112.488C27.837 109.864 26.389 107.205 24.963 104.536C24.617 103.887 24.266 103.763 23.563 103.97C20.487 104.88 17.387 105.713 14.303 106.599C13.302 106.886 12.396 106.858 11.667 106.027C10.937 105.196 11.036 104.296 11.438 103.338C15.248 94.2561 19.045 85.168 22.844 76.082C22.999 75.7109 23.149 75.3369 23.364 74.813C21.886 74.6599 20.511 74.4729 19.13 74.3821C14.027 74.043 10.636 70.844 10.079 65.7681C9.79301 63.1609 9.53101 60.552 9.29501 57.9409C9.17001 56.561 8.62402 55.394 7.74902 54.343C6.09502 52.355 4.44801 50.3611 2.81802 48.354C-0.156983 44.688 -0.172982 40.1411 2.78401 36.459C4.24101 34.645 5.68501 32.8139 7.23701 31.082C8.61102 29.5491 9.30302 27.823 9.43802 25.7839C9.59801 23.3899 9.87601 21.0029 10.112 18.615C10.534 14.3479 13.951 10.9221 18.196 10.498C20.915 10.2261 23.632 9.92796 26.355 9.69188C27.818 9.5659 29.043 8.98387 30.15 8.05906C31.992 6.51902 33.853 4.99998 35.701 3.468C39.695 0.155987 44.182 0.121075 48.203 3.38597C49.952 4.80687 51.734 6.1931 53.409 7.697C54.916 9.05003 56.629 9.68699 58.621 9.82396C60.941 9.98289 63.254 10.2451 65.568 10.479C70.223 10.9509 73.535 14.3359 73.964 19.0371C74.195 21.574 74.435 24.1111 74.671 26.6479C74.801 28.0471 75.295 29.2849 76.206 30.3721C77.868 32.354 79.512 34.3501 81.138 36.3601C84.19 40.1311 84.184 44.6699 81.13 48.437C79.967 49.8721 78.878 51.385 77.58 52.688C75.381 54.897 74.484 57.5239 74.416 60.574C74.375 62.3789 74.144 64.1831 73.934 65.98C73.381 70.7141 69.985 73.9541 65.215 74.3589C63.746 74.4839 62.28 74.6389 60.672 74.793C60.865 75.311 61.009 75.7419 61.185 76.1609C64.917 85.0749 68.653 93.989 72.388 102.902C72.473 103.106 72.551 103.314 72.64 103.517C73.027 104.402 73.003 105.252 72.361 106.008C71.68 106.81 70.798 106.911 69.836 106.64C66.712 105.76 63.58 104.907 60.47 103.98C59.712 103.754 59.368 103.918 59.004 104.603C57.569 107.309 56.103 110 54.569 112.651C54.164 113.352 53.478 113.889 52.92 114.502H51.59C51.037 113.801 50.33 113.173 49.961 112.386C48.99 110.318 48.167 108.182 47.286 106.072C46.191 103.452 45.083 100.838 44.009 98.2099C43.461 96.8711 44.047 95.729 45.278 95.636C46.305 95.5591 46.801 96.1799 47.155 97.0339C48.638 100.611 50.135 104.182 51.63 107.753C51.861 108.305 52.108 108.849 52.432 109.59C53.753 107.197 54.961 105.009 56.169 102.82C57.437 100.523 58.667 100.004 61.174 100.704C63.615 101.385 66.055 102.064 68.646 102.786C68.428 102.229 68.281 101.828 68.117 101.434C64.732 93.3369 61.345 85.2419 57.958 77.146C57.007 74.874 56.493 74.7439 54.437 76.2739C54.052 76.561 53.689 76.876 53.318 77.1799C51.375 78.77 49.406 80.331 47.505 81.969C46.923 82.4709 46.362 83.1169 46.068 83.8139C42.033 93.3569 38.064 102.929 34.014 112.465C33.683 113.246 32.882 113.828 32.3 114.502H30.969Z" fill="#00C2B5"/>
<path d="M68.278 42.3492C68.316 57.889 54.786 70.1631 39.378 68.5669C25.706 67.1499 15.26 55.5 15.751 41.75C16.129 31.1951 21.306 23.4629 30.736 18.6421C31.174 18.418 31.826 18.1609 32.183 18.3311C32.741 18.596 33.337 19.138 33.542 19.7C33.821 20.4619 33.274 21.063 32.574 21.4851C30.903 22.492 29.138 23.388 27.616 24.5879C20.489 30.2061 17.463 39.7791 19.917 48.576C22.363 57.3411 29.966 63.938 38.954 65.0931C53.541 66.9681 65.976 55.157 64.864 40.4839C63.921 28.0359 52.672 18.4742 40.236 19.5472C39.831 19.5821 39.425 19.618 39.019 19.6202C37.978 19.625 37.257 19.0191 37.185 18.1001C37.109 17.1421 37.778 16.4161 38.865 16.281C42.432 15.8401 45.943 16.1399 49.387 17.1541C60.594 20.45 68.25 30.668 68.278 42.3492Z" fill="#00C2B5"/>
<path d="M54.315 35.2528C53.885 34.726 53.595 34.1388 53.122 33.839C52.221 33.268 51.454 33.7309 50.772 34.4149C46.523 38.6779 42.264 42.9308 38.007 47.185C36.614 48.5768 35.953 48.5819 34.584 47.2189C33.197 45.839 31.821 44.4469 30.426 43.0739C29.469 42.132 28.477 42.049 27.696 42.808C26.932 43.5509 26.983 44.632 27.883 45.5419C30.195 47.8769 32.518 50.2018 34.856 52.5109C35.79 53.434 36.752 53.454 37.67 52.539C42.929 47.3019 48.176 42.0529 53.406 36.787C53.768 36.422 53.952 35.8798 54.315 35.2528ZM36.434 44.329C36.755 43.87 36.944 43.4928 37.226 43.2089C40.95 39.466 44.681 35.7299 48.423 32.0048C50.683 29.7538 53.831 29.6449 55.932 31.7169C58.062 33.8158 57.967 37.0128 55.676 39.3109C50.515 44.4889 45.347 49.6598 40.168 54.82C37.798 57.1818 34.785 57.1869 32.421 54.8468C30.085 52.5358 27.758 50.215 25.45 47.8759C23.284 45.6808 23.232 42.5138 25.293 40.445C27.364 38.3659 30.482 38.4179 32.722 40.5939C33.886 41.725 35.011 42.8949 36.434 44.329Z" fill="#00C2B5"/>
</svg>
