<svg width="200" height="200" viewBox="0 0 200 200" fill="none" xmlns="http://www.w3.org/2000/svg">
<path opacity="0.2667" d="M100 157.305C101.637 157.305 103.272 157.309 104.907 157.316C106.542 157.324 108.173 157.335 109.802 157.349C111.431 157.363 113.054 157.381 114.673 157.403C116.292 157.425 117.904 157.451 119.509 157.479C121.114 157.508 122.711 157.541 124.298 157.577C125.885 157.613 127.462 157.653 129.029 157.695C130.595 157.739 132.148 157.785 133.689 157.835C135.23 157.885 136.756 157.939 138.268 157.995C139.78 158.052 141.276 158.112 142.755 158.175C144.235 158.239 145.696 158.305 147.14 158.375C148.583 158.445 150.007 158.518 151.41 158.594C152.814 158.67 154.196 158.75 155.557 158.833C156.918 158.915 158.255 159 159.57 159.088C160.884 159.176 162.174 159.268 163.44 159.362C164.704 159.457 165.944 159.553 167.155 159.653C168.368 159.753 169.553 159.855 170.711 159.96C171.868 160.064 172.996 160.171 174.095 160.281C175.194 160.391 176.262 160.504 177.301 160.619C178.34 160.733 179.346 160.85 180.321 160.969C181.296 161.088 182.238 161.209 183.147 161.333C184.056 161.456 184.932 161.581 185.773 161.708C186.614 161.836 187.421 161.965 188.192 162.095C188.963 162.226 189.699 162.359 190.399 162.492C191.099 162.627 191.761 162.762 192.388 162.899C193.014 163.036 193.603 163.174 194.154 163.314C194.706 163.454 195.219 163.594 195.694 163.737C196.169 163.878 196.606 164.022 197.003 164.165C197.401 164.309 197.759 164.454 198.078 164.599C198.398 164.745 198.677 164.89 198.918 165.037C199.157 165.184 199.358 165.331 199.519 165.478C199.679 165.627 199.799 165.774 199.879 165.922C199.959 166.07 200 166.219 200 166.366C200 166.515 199.959 166.663 199.879 166.811C199.799 166.959 199.679 167.107 199.519 167.256C199.358 167.403 199.157 167.55 198.918 167.696C198.677 167.843 198.398 167.989 198.078 168.135C197.759 168.28 197.401 168.425 197.003 168.568C196.606 168.713 196.169 168.856 195.694 168.997C195.219 169.14 194.706 169.28 194.154 169.42C193.603 169.56 193.014 169.697 192.388 169.835C191.761 169.971 191.099 170.107 190.399 170.242C189.699 170.375 188.963 170.508 188.192 170.639C187.421 170.769 186.614 170.898 185.773 171.026C184.932 171.153 184.056 171.278 183.147 171.401C182.238 171.525 181.296 171.646 180.321 171.764C179.346 171.884 178.34 172.001 177.301 172.116C176.262 172.231 175.194 172.343 174.095 172.453C172.996 172.563 171.868 172.669 170.711 172.774C169.553 172.879 168.368 172.981 167.155 173.081C165.944 173.181 164.704 173.277 163.44 173.371C162.174 173.465 160.884 173.557 159.57 173.646C158.255 173.734 156.918 173.819 155.557 173.901C154.196 173.984 152.814 174.063 151.41 174.14C150.007 174.216 148.583 174.289 147.14 174.359C145.696 174.429 144.235 174.495 142.755 174.559C141.276 174.622 139.78 174.682 138.268 174.739C136.756 174.795 135.23 174.849 133.689 174.899C132.148 174.949 130.595 174.995 129.029 175.039C127.462 175.081 125.885 175.121 124.298 175.158C122.711 175.193 121.114 175.226 119.509 175.255C117.904 175.283 116.292 175.309 114.673 175.331C113.054 175.353 111.431 175.37 109.802 175.385C108.173 175.399 106.542 175.41 104.907 175.418C103.272 175.425 101.637 175.429 100 175.429C98.3634 175.429 96.7277 175.425 95.0931 175.418C93.4584 175.41 91.8267 175.399 90.198 175.385C88.5693 175.37 86.9455 175.353 85.3267 175.331C83.7079 175.309 82.096 175.283 80.4911 175.255C78.8861 175.226 77.2891 175.193 75.702 175.158C74.1149 175.121 72.5376 175.081 70.9713 175.039C69.4049 174.995 67.8515 174.949 66.3109 174.899C64.7703 174.849 63.2435 174.795 61.7317 174.739C60.2198 174.682 58.7237 174.622 57.2446 174.559C55.7653 174.495 54.3039 174.429 52.8604 174.359C51.4169 174.289 49.9931 174.216 48.5901 174.14C47.1862 174.063 45.804 173.984 44.4426 173.901C43.0822 173.819 41.7445 173.734 40.4297 173.646C39.1159 173.557 37.8257 173.465 36.5604 173.371C35.296 173.277 34.0564 173.181 32.8445 173.081C31.6317 172.981 30.4465 172.879 29.2891 172.774C28.1317 172.669 27.0039 172.563 25.905 172.453C24.806 172.343 23.7376 172.231 22.699 172.116C21.6604 172.001 20.6545 171.884 19.6792 171.764C18.704 171.646 17.7624 171.525 16.8534 171.401C15.9436 171.278 15.0683 171.153 14.2268 171.026C13.3862 170.898 12.5792 170.769 11.8079 170.639C11.0366 170.508 10.301 170.375 9.60101 170.242C8.90098 170.107 8.2386 169.971 7.61187 169.835C6.98617 169.697 6.39703 169.56 5.84554 169.42C5.29404 169.28 4.78117 169.14 4.30594 168.997C3.83071 168.856 3.39404 168.713 2.99701 168.568C2.59901 168.425 2.24059 168.28 1.92176 168.135C1.60196 167.989 1.32277 167.843 1.0822 167.696C0.842587 167.55 0.641594 167.403 0.481211 167.256C0.320767 167.107 0.200993 166.959 0.120801 166.811C0.0406095 166.663 0 166.515 0 166.366C0 166.219 0.0406095 166.07 0.120801 165.922C0.200993 165.774 0.320767 165.627 0.481211 165.478C0.641594 165.331 0.842587 165.184 1.0822 165.037C1.32277 164.89 1.60196 164.745 1.92176 164.599C2.24059 164.454 2.59901 164.309 2.99701 164.165C3.39404 164.022 3.83071 163.878 4.30594 163.737C4.78117 163.594 5.29404 163.454 5.84554 163.314C6.39703 163.174 6.98617 163.036 7.61187 162.899C8.2386 162.762 8.90098 162.627 9.60101 162.492C10.301 162.359 11.0366 162.226 11.8079 162.095C12.5792 161.965 13.3862 161.836 14.2268 161.708C15.0683 161.581 15.9436 161.456 16.8534 161.333C17.7624 161.209 18.704 161.088 19.6792 160.969C20.6545 160.85 21.6604 160.733 22.699 160.619C23.7376 160.504 24.806 160.391 25.905 160.281C27.0039 160.171 28.1317 160.064 29.2891 159.96C30.4465 159.855 31.6317 159.753 32.8445 159.653C34.0564 159.553 35.296 159.457 36.5604 159.362C37.8257 159.268 39.1159 159.176 40.4297 159.088C41.7445 159 43.0822 158.915 44.4426 158.833C45.804 158.75 47.1862 158.67 48.5901 158.594C49.9931 158.518 51.4169 158.445 52.8604 158.375C54.3039 158.305 55.7653 158.239 57.2446 158.175C58.7237 158.112 60.2198 158.052 61.7317 157.995C63.2435 157.939 64.7703 157.885 66.3109 157.835C67.8515 157.785 69.4049 157.739 70.9713 157.695C72.5376 157.653 74.1149 157.613 75.702 157.577C77.2891 157.541 78.8861 157.508 80.4911 157.479C82.096 157.451 83.7079 157.425 85.3267 157.403C86.9455 157.381 88.5693 157.363 90.198 157.349C91.8267 157.335 93.4584 157.324 95.0931 157.316C96.7277 157.309 98.3634 157.305 100 157.305Z" fill="#00C2B5"/>
<path d="M50.4961 151.729C57.309 151.747 62.8347 146.296 62.91 139.485C62.9852 132.685 57.3149 126.996 50.4921 127.023C43.7436 127.05 38.1615 132.652 38.1615 139.399C38.1615 146.169 43.704 151.709 50.4961 151.729ZM155.643 151.729C162.434 151.734 167.992 146.218 168.025 139.443C168.057 132.711 162.479 127.074 155.734 127.024C148.894 126.973 143.253 132.602 143.29 139.442C143.327 146.26 148.821 151.725 155.643 151.729ZM181.921 99.1001C177.359 92.0051 173.014 85.208 168.595 78.4595C168.288 77.9892 167.431 77.6427 166.826 77.6378C159.53 77.5823 152.233 77.5992 144.936 77.609C144.424 77.6101 143.911 77.7011 143.381 77.7526V99.1001H181.921ZM131.138 65.2022V136.246H137.169C141.557 125.498 146.617 120.929 154.98 120.917C165.336 120.903 171.435 126.588 174.081 136.211H186.471V130.136H177.349V123.981H186.565V121.988C186.565 117.34 186.566 112.691 186.564 108.044C186.563 105.445 186.496 105.375 183.951 105.375C169.705 105.373 155.458 105.378 141.213 105.37C138.059 105.368 137.081 104.402 137.076 101.266C137.064 92.6952 137.065 84.1229 137.076 75.5506C137.08 72.4081 138.063 71.417 141.186 71.4111C148.068 71.3972 154.95 71.4071 161.832 71.4071H164.098C162.927 69.5705 161.934 68.1407 161.079 66.6328C160.477 65.5704 159.747 65.1616 158.486 65.1704C149.974 65.2308 141.463 65.2022 132.952 65.2022H131.138ZM68.9535 136.201H124.545V130.086H72.2782V123.936H124.589V55.916H19.6981V49.7773H124.558V43.7566H13.5793V124.064H28.8021V130.199H13.5941V136.243H32.1209C35.6941 125.898 41.7575 120.852 50.5297 120.848C59.2961 120.845 65.2723 125.806 68.9535 136.201ZM192.737 140.392C191.74 142.081 190.252 142.59 188.328 142.551C183.623 142.457 178.915 142.52 174.122 142.52C171.268 152.437 165.053 158.363 154.393 157.763C145.029 157.238 139.641 151.478 137.232 142.598H68.8733C67.7258 147.82 65.0684 152.062 60.5318 155C57.3515 157.06 53.8476 158.022 50.0595 157.897C41.303 157.607 35.5654 152.726 32.1159 142.52H30.2357C23.8961 142.52 17.5565 142.53 11.2179 142.515C8.3525 142.509 7.2674 141.423 7.26637 138.572C7.26245 106.152 7.26245 73.7308 7.26637 41.31C7.2674 38.4447 8.29805 37.4268 11.2238 37.4268C49.803 37.4209 88.3813 37.4199 126.961 37.4259C129.897 37.4268 130.869 38.4032 130.877 41.3308C130.891 47.1169 130.881 52.903 130.881 58.8863C131.71 58.9308 132.404 59.0002 133.099 59.0011C142.215 59.0091 151.332 59.0486 160.448 58.9754C162.617 58.9576 164.016 59.7229 165.192 61.5685C174.329 75.9169 183.545 90.215 192.737 104.529V140.392Z" fill="#003951"/>
<path d="M19.7119 31.2357V25.1208C20.4 25.0892 20.9891 25.0396 21.5783 25.0387C34.6704 25.0347 47.7614 25.0644 60.8535 25.0001C62.503 24.9921 63.0168 25.4218 62.9723 27.106C62.8634 31.2337 62.9476 31.2357 58.7555 31.2357H22.0139H19.7119Z" fill="#003951"/>
<rect x="7.40576" y="25.1667" width="5.92307" height="5.9696" fill="#003951"/>
<rect x="154.214" y="137.587" width="5.9715" height="6.00684" fill="#003951"/>
<rect x="48.0929" y="137.525" width="5.95776" height="6.06299" fill="#003951"/>
</svg>
