<svg width="202" height="153" viewBox="0 0 202 153" fill="none" xmlns="http://www.w3.org/2000/svg">
<path opacity="0.2667" d="M101 134.235C102.653 134.235 104.305 134.239 105.956 134.246C107.607 134.254 109.255 134.265 110.9 134.279C112.545 134.294 114.185 134.312 115.82 134.334C117.455 134.356 119.083 134.382 120.704 134.411C122.325 134.44 123.938 134.473 125.541 134.51C127.144 134.546 128.737 134.586 130.319 134.629C131.901 134.673 133.47 134.72 135.026 134.77C136.582 134.821 138.124 134.875 139.651 134.932C141.178 134.989 142.689 135.05 144.183 135.114C145.677 135.178 147.153 135.245 148.611 135.316C150.069 135.386 151.507 135.46 152.924 135.537C154.342 135.614 155.738 135.694 157.113 135.778C158.487 135.861 159.838 135.947 161.166 136.036C162.493 136.125 163.796 136.218 165.074 136.313C166.351 136.408 167.603 136.505 168.827 136.606C170.052 136.707 171.249 136.81 172.418 136.916C173.587 137.022 174.726 137.13 175.836 137.241C176.946 137.352 178.025 137.466 179.074 137.582C180.123 137.697 181.139 137.815 182.124 137.936C183.109 138.056 184.06 138.178 184.978 138.303C185.897 138.427 186.781 138.554 187.631 138.682C188.48 138.811 189.295 138.941 190.074 139.073C190.853 139.205 191.596 139.339 192.303 139.474C193.01 139.61 193.679 139.747 194.312 139.885C194.944 140.023 195.539 140.163 196.096 140.304C196.653 140.445 197.171 140.587 197.651 140.731C198.131 140.874 198.572 141.019 198.973 141.164C199.375 141.309 199.737 141.455 200.059 141.602C200.382 141.749 200.664 141.896 200.907 142.044C201.149 142.193 201.352 142.341 201.514 142.49C201.676 142.64 201.797 142.789 201.878 142.938C201.959 143.088 202 143.238 202 143.387C202 143.537 201.959 143.687 201.878 143.836C201.797 143.986 201.676 144.135 201.514 144.285C201.352 144.434 201.149 144.582 200.907 144.73C200.664 144.878 200.382 145.026 200.059 145.173C199.737 145.32 199.375 145.466 198.973 145.611C198.572 145.757 198.131 145.901 197.651 146.044C197.171 146.188 196.653 146.33 196.096 146.471C195.539 146.612 194.944 146.751 194.312 146.89C193.679 147.028 193.01 147.165 192.303 147.301C191.596 147.436 190.853 147.57 190.074 147.702C189.295 147.834 188.48 147.964 187.631 148.093C186.781 148.221 185.897 148.348 184.978 148.472C184.06 148.597 183.109 148.719 182.124 148.839C181.139 148.96 180.123 149.078 179.074 149.194C178.025 149.31 176.946 149.423 175.836 149.534C174.726 149.645 173.587 149.753 172.418 149.859C171.249 149.965 170.052 150.068 168.827 150.169C167.603 150.27 166.351 150.367 165.074 150.462C163.796 150.557 162.493 150.649 161.166 150.739C159.838 150.828 158.487 150.914 157.113 150.997C155.738 151.081 154.342 151.161 152.924 151.238C151.507 151.315 150.069 151.389 148.611 151.459C147.153 151.53 145.677 151.597 144.183 151.661C142.689 151.725 141.178 151.786 139.651 151.843C138.124 151.9 136.582 151.954 135.026 152.005C133.47 152.055 131.901 152.102 130.319 152.146C128.737 152.189 127.144 152.229 125.541 152.266C123.938 152.302 122.325 152.335 120.704 152.364C119.083 152.393 117.455 152.419 115.82 152.441C114.185 152.463 112.545 152.481 110.9 152.496C109.255 152.51 107.607 152.521 105.956 152.529C104.305 152.536 102.653 152.54 101 152.54C99.347 152.54 97.695 152.536 96.044 152.529C94.393 152.521 92.745 152.51 91.1 152.496C89.455 152.481 87.815 152.463 86.18 152.441C84.545 152.419 82.917 152.393 81.296 152.364C79.675 152.335 78.062 152.302 76.459 152.266C74.856 152.229 73.263 152.189 71.681 152.146C70.099 152.102 68.53 152.055 66.974 152.005C65.418 151.954 63.876 151.9 62.349 151.843C60.822 151.786 59.311 151.725 57.817 151.661C56.323 151.597 54.847 151.53 53.389 151.459C51.931 151.389 50.493 151.315 49.076 151.238C47.658 151.161 46.262 151.081 44.887 150.997C43.513 150.914 42.162 150.828 40.834 150.739C39.507 150.649 38.204 150.557 36.926 150.462C35.649 150.367 34.397 150.27 33.173 150.169C31.948 150.068 30.751 149.965 29.582 149.859C28.413 149.753 27.274 149.645 26.164 149.534C25.054 149.423 23.975 149.31 22.926 149.194C21.877 149.078 20.861 148.96 19.876 148.839C18.891 148.719 17.94 148.597 17.022 148.472C16.103 148.348 15.219 148.221 14.369 148.093C13.52 147.964 12.705 147.834 11.926 147.702C11.147 147.57 10.404 147.436 9.69702 147.301C8.98999 147.165 8.32098 147.028 7.68799 146.89C7.05603 146.751 6.461 146.612 5.90399 146.471C5.34698 146.33 4.82898 146.188 4.349 146.044C3.86902 145.901 3.42798 145.757 3.02698 145.611C2.625 145.466 2.263 145.32 1.94098 145.173C1.61798 145.026 1.336 144.878 1.09302 144.73C0.851013 144.582 0.64801 144.434 0.486023 144.285C0.323975 144.135 0.203003 143.986 0.122009 143.836C0.0410156 143.687 0 143.537 0 143.387C0 143.238 0.0410156 143.088 0.122009 142.938C0.203003 142.789 0.323975 142.64 0.486023 142.49C0.64801 142.341 0.851013 142.193 1.09302 142.044C1.336 141.896 1.61798 141.749 1.94098 141.602C2.263 141.455 2.625 141.309 3.02698 141.164C3.42798 141.019 3.86902 140.874 4.349 140.731C4.82898 140.587 5.34698 140.445 5.90399 140.304C6.461 140.163 7.05603 140.023 7.68799 139.885C8.32098 139.747 8.98999 139.61 9.69702 139.474C10.404 139.339 11.147 139.205 11.926 139.073C12.705 138.941 13.52 138.811 14.369 138.682C15.219 138.554 16.103 138.427 17.022 138.303C17.94 138.178 18.891 138.056 19.876 137.936C20.861 137.815 21.877 137.697 22.926 137.582C23.975 137.466 25.054 137.352 26.164 137.241C27.274 137.13 28.413 137.022 29.582 136.916C30.751 136.81 31.948 136.707 33.173 136.606C34.397 136.505 35.649 136.408 36.926 136.313C38.204 136.218 39.507 136.125 40.834 136.036C42.162 135.947 43.513 135.861 44.887 135.778C46.262 135.694 47.658 135.614 49.076 135.537C50.493 135.46 51.931 135.386 53.389 135.316C54.847 135.245 56.323 135.178 57.817 135.114C59.311 135.05 60.822 134.989 62.349 134.932C63.876 134.875 65.418 134.821 66.974 134.77C68.53 134.72 70.099 134.673 71.681 134.629C73.263 134.586 74.856 134.546 76.459 134.51C78.062 134.473 79.675 134.44 81.296 134.411C82.917 134.382 84.545 134.356 86.18 134.334C87.815 134.312 89.455 134.294 91.1 134.279C92.745 134.265 94.393 134.254 96.044 134.246C97.695 134.239 99.347 134.235 101 134.235Z" fill="#00C2B5"/>
<path d="M51.001 128.603C57.882 128.621 63.463 123.116 63.539 116.237C63.615 109.369 57.888 103.623 50.997 103.65C44.181 103.677 38.543 109.335 38.543 116.15C38.543 122.988 44.141 128.583 51.001 128.603ZM157.199 128.603C164.058 128.608 169.672 123.037 169.705 116.194C169.738 109.395 164.104 103.702 157.291 103.651C150.383 103.6 144.686 109.285 144.723 116.193C144.76 123.079 150.309 128.599 157.199 128.603ZM183.74 75.448C179.133 68.282 174.744 61.417 170.281 54.601C169.971 54.126 169.105 53.776 168.494 53.771C161.125 53.715 153.755 53.7321 146.385 53.7419C145.868 53.743 145.35 53.835 144.815 53.887V75.448H183.74ZM132.449 41.2111V112.965H138.541C142.973 102.11 148.083 97.495 156.53 97.483C166.989 97.469 173.149 103.211 175.822 112.93H188.336V106.794H179.122V100.578H188.431V98.5649C188.431 93.87 188.432 89.175 188.43 84.481C188.429 81.856 188.361 81.786 185.79 81.786C171.402 81.7841 157.013 81.7889 142.625 81.781C139.44 81.7791 138.452 80.803 138.447 77.636C138.435 68.979 138.436 60.321 138.447 51.663C138.451 48.489 139.444 47.488 142.598 47.4821C149.549 47.468 156.499 47.478 163.45 47.478H165.739C164.556 45.623 163.553 44.179 162.69 42.656C162.082 41.583 161.344 41.17 160.071 41.179C151.474 41.24 142.878 41.2111 134.281 41.2111H132.449ZM69.643 112.92H125.79V106.744H73.001V100.532H125.835V31.832H19.895V25.632H125.804V19.551H13.715V100.662H29.09V106.858H13.73V112.962H32.442C36.051 102.514 42.175 97.417 51.035 97.413C59.889 97.41 65.925 102.421 69.643 112.92ZM194.664 117.153C193.657 118.859 192.154 119.373 190.211 119.333C185.459 119.238 180.704 119.302 175.863 119.302C172.981 129.318 166.703 135.304 155.937 134.698C146.479 134.167 141.037 128.35 138.604 119.381H69.562C68.403 124.655 65.719 128.94 61.137 131.907C57.925 133.987 54.386 134.959 50.56 134.833C41.716 134.54 35.921 129.61 32.437 119.302H30.538C24.135 119.302 17.732 119.312 11.33 119.297C8.43596 119.291 7.34001 118.194 7.33897 115.315C7.33501 82.5699 7.33501 49.825 7.33897 17.08C7.34001 14.186 8.38097 13.158 11.336 13.158C50.301 13.152 89.265 13.151 128.231 13.157C131.196 13.158 132.178 14.144 132.186 17.101C132.2 22.9449 132.19 28.7889 132.19 34.832C133.027 34.877 133.728 34.947 134.43 34.948C143.637 34.9561 152.845 34.996 162.052 34.922C164.243 34.9041 165.656 35.677 166.844 37.541C176.072 52.033 185.38 66.474 194.664 80.931V117.153Z" fill="#003951"/>
<path d="M19.909 6.90502V0.728991C20.604 0.697009 21.199 0.64696 21.794 0.645984C35.017 0.641955 48.239 0.671985 61.462 0.607043C63.128 0.598986 63.647 1.03295 63.602 2.734C63.492 6.90294 63.577 6.90502 59.343 6.90502H22.234H19.909Z" fill="#003951"/>
</svg>
